<svg width="478" height="186" viewBox="0 0 478 186" fill="none" xmlns="http://www.w3.org/2000/svg">
<path fill-rule="evenodd" clip-rule="evenodd" d="M0.0166553 28.8668L0.0166553 28.8668C0.0177213 21.0008 0.0187873 13.1349 0.0106548 5.26881C0.00889652 3.41834 0.0278855 1.43355 2.06603 0.690435C4.40132 -0.160837 7.01301 -0.42808 9.13203 1.08118C10.0087 1.70533 10.5073 3.36182 10.5305 4.56093C10.6177 9.06556 10.6121 13.5716 10.6066 18.0778V18.0778V18.0778V18.0778V18.0779V18.0779V18.0779V18.078V18.078V18.078V18.078V18.0781C10.6037 20.3501 10.6009 22.6222 10.61 24.8941C10.6108 25.07 10.6031 25.2561 10.5954 25.4462C10.5518 26.5094 10.5033 27.6958 11.8847 27.8938C13.2704 28.0922 13.7017 26.8343 14.0782 25.7359C14.1095 25.6446 14.1404 25.5544 14.1715 25.4663C14.8443 23.5566 15.5223 21.6486 16.2003 19.7406L16.2004 19.7404C17.9619 14.7831 19.7234 9.82586 21.3947 4.83934C22.9335 0.248053 25.3918 -0.29097 30.247 0.399817C32.4965 0.72009 33.0694 2.30995 32.2099 4.82224C31.802 6.01459 31.3943 7.20705 30.9866 8.39951L30.9814 8.4149C28.6041 15.3683 26.2268 22.3219 23.794 29.2565C23.0664 31.3296 23.0879 33.2642 23.8094 35.3365C27.0616 44.6782 30.2665 54.0362 33.4714 63.3943L33.4778 63.413L33.4842 63.4316L33.5094 63.5051C34.1135 65.269 34.7176 67.0329 35.322 68.7967C36.4163 71.9893 35.2876 73.5241 31.8607 73.5523C31.3336 73.5565 30.8065 73.5576 30.2794 73.5516C27.2823 73.5168 25.8905 72.5894 24.9118 69.7733C23.1564 64.7218 21.4127 59.6664 19.669 54.611C18.0381 49.8828 16.4073 45.1545 14.7668 40.4295C14.4866 39.6225 14.1609 38.7549 13.6008 38.1447C13.2129 37.7218 12.3296 37.4434 11.7733 37.5669C11.3203 37.6677 10.8984 38.415 10.6965 38.96C10.5529 39.3479 10.5708 39.7979 10.5885 40.2428C10.5944 40.3905 10.6002 40.5376 10.6002 40.6817C10.5984 44.933 10.5984 49.1844 10.5984 53.4357C10.5984 58.3957 10.5984 63.3557 10.5956 68.3156C10.5931 72.572 9.60394 73.5523 5.35147 73.553C1.09232 73.5537 0.0180393 72.5116 0.0166328 68.3575C0.0146635 62.5991 0.0151066 56.8407 0.0155497 51.0822C0.0157396 48.6143 0.0159295 46.1463 0.0159295 43.6783V36.9002C0.0159295 34.2224 0.0162924 31.5446 0.0166553 28.8668ZM363.702 11.1912C361.734 11.9134 361.688 13.8253 361.69 15.6175C361.696 22.1316 361.695 28.6456 361.694 35.1596C361.694 37.4533 361.694 39.747 361.694 42.0408C361.694 44.5683 361.693 47.0958 361.693 49.6233C361.691 56.0195 361.69 62.4156 361.697 68.8115C361.701 72.3066 362.944 73.5465 366.433 73.5504C369.687 73.5545 372.941 73.5538 376.195 73.5532H376.21C379.629 73.5525 383.048 73.5518 386.467 73.5567C388.72 73.5598 389.148 73.9889 389.203 76.1705C389.216 76.7249 389.225 77.2796 389.233 77.8344C389.254 79.19 389.274 80.5457 389.374 81.8956C389.507 83.6941 390.634 84.8325 392.402 84.9609C392.623 84.977 392.847 84.9969 393.072 85.017C394.988 85.1875 396.995 85.3662 398.227 83.2692C398.535 82.7438 398.667 82.0666 398.708 81.448C398.799 80.0626 398.816 78.6699 398.803 77.281L398.8 77.0132V77.012V77.0109V77.0097V77.0085V77.0074V77.0062V77.005V77.0039V77.0027V77.0015V77.0004V76.9992C398.768 73.6772 398.735 70.3542 398.629 67.034C398.585 65.6486 397.893 64.5831 396.448 64.2181L396.396 64.2051C393.498 63.4748 393.491 63.473 393.49 60.4858C393.49 54.8279 393.49 49.17 393.49 43.5122C393.49 36.1323 393.49 28.7525 393.489 21.3726C393.488 20.7955 393.492 20.2182 393.495 19.6409C393.505 18.0154 393.515 16.3899 393.443 14.768C393.314 11.8838 392.078 10.7593 389.133 10.6585C388.548 10.6382 387.962 10.6414 387.376 10.6567C384.215 10.738 382.939 11.9783 382.855 15.1455C382.818 16.5149 382.826 17.8855 382.835 19.2563C382.839 19.8561 382.842 20.456 382.842 21.0559C382.842 24.5749 382.842 28.0939 382.842 31.6129C382.843 41.5372 382.844 51.4615 382.838 61.3859C382.836 63.6697 382.36 64.1253 380.062 64.1435C378.797 64.1533 377.532 64.1502 376.266 64.147L375.493 64.1452C372.729 64.1393 372.274 63.684 372.274 60.8877C372.272 54.8246 372.272 48.7614 372.272 42.6981C372.272 38.3891 372.273 34.08 372.272 29.7709C372.272 28.4952 372.276 27.2193 372.281 25.9434C372.294 22.2355 372.307 18.5274 372.205 14.8224C372.175 13.7224 371.717 12.2218 370.912 11.6336C368.729 10.0371 366.1 10.3106 363.702 11.1912ZM418.991 59.5014C418.45 61.0647 417.914 62.6298 417.379 64.1948L417.376 64.201L417.375 64.2056C416.732 66.0838 416.089 67.962 415.438 69.8373C414.543 72.4149 412.968 73.5093 410.162 73.5522C404.676 73.6363 403.872 72.8489 403.872 67.3917L403.872 55.9579C403.873 42.6182 403.873 29.2783 403.87 15.9386C403.87 15.8401 403.87 15.7412 403.869 15.6419C403.863 13.9063 403.856 12.0751 405.75 11.258C408.07 10.257 410.62 10.1384 412.843 11.4411C413.659 11.9194 414.363 13.3404 414.353 14.3243C414.27 23.1793 414.046 32.033 413.822 40.8863L413.796 41.938C413.782 42.489 413.752 43.0397 413.723 43.594V43.5945C413.656 44.8387 413.589 46.1007 413.694 47.4245C413.766 47.2452 413.84 47.0666 413.915 46.888C414.077 46.4971 414.24 46.1061 414.379 45.7069C415.36 42.8731 416.351 40.0421 417.341 37.2111L417.342 37.2088L417.342 37.2065L417.343 37.2041L417.344 37.2018L417.345 37.1995L417.346 37.1971L417.347 37.1948L417.347 37.1925L417.348 37.1901L417.349 37.1878L417.35 37.1855L417.351 37.1831L417.352 37.1808L417.354 37.175L417.354 37.174L417.354 37.173C419.892 29.9177 422.43 22.6624 424.823 15.3605C426.442 10.4175 429.83 9.99118 434.474 11.1198C435.329 11.327 436.075 12.6681 436.511 13.6436C436.789 14.2655 436.766 15.0319 436.743 15.7792C436.736 15.9853 436.73 16.1899 436.73 16.3897C436.74 33.5407 436.738 50.6917 436.735 67.8428C436.735 68.4795 436.731 69.119 436.675 69.7522C436.441 72.3737 435.264 73.4692 432.63 73.5501C426.989 73.7239 425.971 72.851 426.107 67.2724C426.258 61.0112 426.485 54.7517 426.712 48.4921V48.4918V48.4915V48.4912V48.4909V48.4906V48.4903V48.4899V48.4896V48.4893V48.489V48.4887V48.4884V48.4881C426.819 45.5489 426.925 42.6096 427.024 39.6702C427.044 39.0832 427.038 38.4951 427.033 37.9072C427.03 37.6323 427.027 37.3575 427.027 37.0829L426.755 37.0787C425.976 39.3288 425.196 41.5788 424.417 43.8288L424.408 43.855L424.399 43.8813L424.39 43.9077L424.38 43.9341L424.371 43.9607L424.362 43.9874L424.353 44.0142L424.317 44.1166C422.541 49.2445 420.764 54.3723 418.991 59.5014ZM198.292 55.6211C198.289 52.6303 198.286 49.6395 198.286 46.6488H198.414C198.414 44.4084 198.414 42.168 198.415 39.9276C198.415 32.0903 198.416 24.2531 198.408 16.4157C198.408 16.2666 198.409 16.1165 198.41 15.9658C198.417 15.1824 198.425 14.3857 198.22 13.655C198 12.8693 197.583 11.8834 196.942 11.5132C194.628 10.1784 192.077 10.2587 189.691 11.2551C187.773 12.0559 187.774 13.9116 187.776 15.6315V15.6318V15.6321V15.6324L187.776 15.8293L187.776 15.921C187.761 21.3435 187.763 26.766 187.765 32.1886C187.766 34.2375 187.767 36.2864 187.767 38.3353C187.767 40.485 187.767 42.6346 187.767 44.7843C187.768 50.3376 187.769 55.8909 187.764 61.4442C187.762 63.7496 187.366 64.1243 184.983 64.1442C184.047 64.1522 183.11 64.1505 182.173 64.1449C178.471 64.1229 177.213 62.899 177.201 59.241C177.19 55.7474 177.192 52.2538 177.195 48.7602C177.196 47.157 177.197 45.5538 177.197 43.9505C177.197 41.3973 177.197 38.844 177.198 36.2907L177.198 36.1813C177.2 29.0988 177.202 22.0161 177.182 14.934C177.174 12.0666 175.905 10.7747 173.047 10.6693C168.767 10.512 166.435 10.7579 166.575 16.7137C166.699 22.0242 166.671 27.338 166.643 32.6519C166.631 34.9842 166.618 37.3165 166.619 39.6485C166.619 41.8065 166.615 43.9646 166.612 46.1227C166.603 51.3783 166.594 56.6338 166.644 61.8887C166.704 68.2125 169.305 71.8451 174.556 73.0539C175.911 73.3658 177.33 73.4827 178.726 73.5298C180.001 73.5729 181.277 73.5653 182.553 73.5577C183.561 73.5517 184.568 73.5458 185.575 73.5647C187.31 73.5975 187.99 74.2802 187.72 75.9455C187.582 76.7943 187.153 77.7827 186.521 78.3301C185.126 79.5383 183.581 80.6107 181.986 81.5537C177.155 84.409 176.777 85.8419 179.832 90.474C181.144 92.4636 182.684 92.9228 184.769 91.7875C187.532 90.2814 190.263 88.7132 192.973 87.1132C196.408 85.0848 198.248 82.0467 198.268 78.0946C198.306 70.6035 198.299 63.1123 198.292 55.6211ZM193.489 157.145C191.452 157.105 190.911 156.572 190.908 154.526C190.899 149.873 190.9 145.22 190.902 140.566C190.902 138.79 190.903 137.014 190.903 135.238C190.903 133.405 190.903 131.572 190.902 129.739C190.902 125.258 190.901 120.778 190.904 116.297C190.906 113.551 191.364 113.104 194.193 113.104C194.336 113.104 194.479 113.103 194.622 113.102L194.792 113.101L194.95 113.1H194.951H194.951H194.952H194.952H194.953H194.953H194.953H194.954H194.954C195.931 113.092 196.911 113.084 197.876 113.19C200.349 113.459 201.397 114.593 201.442 117.061C201.486 119.43 201.48 121.801 201.475 124.171C201.473 124.987 201.472 125.802 201.472 126.618L201.473 130.928C201.476 138.006 201.478 145.084 201.469 152.162C201.464 156.022 200.336 157.133 196.475 157.149C196.262 157.149 196.049 157.151 195.836 157.152H195.834C195.052 157.156 194.27 157.161 193.489 157.145ZM200.837 166.532C207.973 166.312 211.733 162.851 211.963 155.817C212.119 151.034 212.082 146.244 212.045 141.454C212.028 139.352 212.012 137.249 212.012 135.147L211.989 135.147L211.966 135.147C211.966 132.999 211.98 130.85 211.994 128.702C212.026 123.727 212.059 118.753 211.918 113.784C211.753 107.963 208.411 104.407 202.603 103.996C198.432 103.701 194.24 103.692 190.049 103.684C188.679 103.681 187.309 103.678 185.94 103.665C181.371 103.623 180.325 104.677 180.324 109.129C180.324 125.851 180.324 142.573 180.324 159.294L180.324 176.016C180.324 181.601 181.118 182.376 186.691 182.238C189.623 182.166 190.85 180.988 190.888 178.098C190.908 176.559 190.905 175.02 190.902 173.482C190.899 172.009 190.896 170.536 190.913 169.064C190.936 167.179 191.561 166.583 193.461 166.562C194.445 166.552 195.429 166.557 196.412 166.562C197.888 166.57 199.363 166.578 200.837 166.532ZM169.79 171.161C169.77 175.044 167.953 178.05 164.596 180.061C161.847 181.707 159.057 183.29 156.24 184.82C154.234 185.909 152.702 185.456 151.42 183.571C148.289 178.969 148.668 177.42 153.415 174.61C155.059 173.637 156.637 172.517 158.095 171.29C158.695 170.785 159.106 169.856 159.243 169.059C159.545 167.311 158.858 166.597 157.039 166.567C155.764 166.545 154.489 166.549 153.214 166.553C152.205 166.556 151.197 166.56 150.189 166.55C142.169 166.476 138.223 162.618 138.166 154.655C138.123 148.547 138.131 142.438 138.139 136.329V136.323C138.143 133.747 138.146 131.17 138.146 128.593L138.145 125.763V125.762V125.762V125.762V125.761V125.761V125.761V125.761V125.76V125.76V125.76V125.759V125.759V125.759V125.759V125.758C138.144 120.1 138.143 114.443 138.147 108.785C138.149 104.803 139.327 103.646 143.409 103.667C144.278 103.672 145.161 103.75 146.013 103.919C147.663 104.244 148.482 105.371 148.666 106.96C148.734 107.551 148.729 108.151 148.725 108.749V108.75V108.75C148.724 108.905 148.722 109.061 148.722 109.216C148.724 116.02 148.724 122.824 148.724 129.628V129.86C148.724 137.169 148.724 144.477 148.726 151.786C148.727 156.035 149.847 157.117 154.115 157.156C159.377 157.203 159.376 157.145 159.307 153.698C159.297 153.237 159.287 152.716 159.288 152.126C159.297 144.902 159.297 137.677 159.297 130.453C159.297 123.372 159.298 116.291 159.306 109.209C159.307 108.233 159.359 107.227 159.595 106.286C160.138 104.116 161.98 103.392 165.914 103.67C168.313 103.839 169.548 104.831 169.809 106.883C169.919 107.741 169.936 108.615 169.937 109.482C169.943 117.402 169.943 125.323 169.942 133.243L169.942 139.715C169.898 139.715 169.854 139.715 169.809 139.715C169.809 142.693 169.812 145.672 169.815 148.65C169.823 156.153 169.83 163.657 169.79 171.161ZM254.177 148.735C254.174 145.761 254.171 142.787 254.171 139.813H254.299L254.299 136.358L254.299 133.26C254.3 125.308 254.3 117.357 254.292 109.406C254.292 109.258 254.293 109.109 254.295 108.96V108.96C254.302 108.175 254.309 107.377 254.102 106.646C253.881 105.861 253.458 104.876 252.816 104.509C250.498 103.187 247.949 103.258 245.564 104.265C243.654 105.072 243.657 106.921 243.659 108.636V108.637L243.66 108.813L243.66 108.938C243.645 114.855 243.647 120.773 243.65 126.691C243.65 128.824 243.651 130.956 243.651 133.089C243.651 135.008 243.649 136.926 243.647 138.845C243.642 144.166 243.636 149.487 243.67 154.808C243.681 156.447 242.973 157.157 241.382 157.148C240.837 157.145 240.293 157.147 239.749 157.148H239.744C239.177 157.15 238.611 157.151 238.044 157.148C234.353 157.126 233.096 155.897 233.086 152.231C233.074 148.444 233.077 144.656 233.079 140.868C233.08 139.212 233.081 137.555 233.081 135.898C233.081 133.754 233.083 131.609 233.085 129.465L233.085 129.419C233.092 122.37 233.099 115.32 233.032 108.272C233.021 107.091 232.715 105.513 231.921 104.815C229.784 102.938 227.062 103.352 224.603 104.15C222.619 104.793 222.496 106.705 222.498 108.513C222.505 113.916 222.504 119.32 222.503 124.723C222.503 127.602 222.502 130.481 222.503 133.36C222.503 135.449 222.499 137.537 222.496 139.625C222.487 144.719 222.477 149.812 222.528 154.905C222.591 161.226 225.198 164.86 230.453 166.062C231.808 166.372 233.228 166.487 234.623 166.534C235.889 166.576 237.156 166.568 238.424 166.561C239.44 166.555 240.457 166.549 241.473 166.568C243.201 166.602 243.879 167.293 243.603 168.962C243.463 169.81 243.03 170.797 242.397 171.343C240.999 172.55 239.453 173.62 237.858 174.563C233.037 177.413 232.66 178.859 235.724 183.489C237.036 185.472 238.576 185.924 240.665 184.785C243.427 183.277 246.16 181.712 248.868 180.11C252.302 178.079 254.134 175.037 254.153 171.085C254.191 163.635 254.184 156.185 254.177 148.735ZM467.182 28.4327C467.184 29.2708 467.185 30.1089 467.185 30.947H467.192C467.192 31.7767 467.188 32.6065 467.185 33.4363C467.178 35.4436 467.17 37.4511 467.207 39.4577C467.235 40.9334 466.586 41.5956 465.123 41.5785C464.495 41.571 463.868 41.5747 463.24 41.5784C462.346 41.5836 461.451 41.5888 460.558 41.5618C458.252 41.492 456.798 40.3752 456.729 38.1103C456.583 33.2532 456.591 28.3856 456.742 23.5284C456.808 21.4198 457.953 20.4426 460.122 20.2252C461.803 20.0567 463.512 20.0867 465.205 20.138C466.511 20.1771 467.207 20.8937 467.194 22.2627C467.174 24.3191 467.178 26.3758 467.182 28.4327ZM446.078 22.6625C446.022 28.1654 445.988 33.6708 446.073 39.173C446.153 44.3811 447.619 48.8206 453.563 50.5253C452.706 52.3418 451.857 54.1376 451.015 55.9191L451.008 55.9358C448.9 60.3941 446.835 64.7628 444.796 69.143C443.769 71.3511 444.694 73.2713 447.107 73.4562C451.935 73.8257 453.73 73.7025 455.934 69.129C457.755 65.3512 459.616 61.5926 461.477 57.834L461.48 57.8298L461.481 57.8277L461.482 57.8256L461.483 57.8235C462.319 56.1354 463.155 54.4473 463.987 52.7574C464.447 51.8221 465.095 50.842 466.206 51.3252C466.743 51.559 467.13 52.6929 467.149 53.4297C467.214 56.0545 467.207 58.6812 467.199 61.3078C467.196 62.4472 467.193 63.5866 467.196 64.7258C467.197 65.1692 467.193 65.6131 467.189 66.057V66.0578C467.178 67.3537 467.167 68.6502 467.276 69.936C467.459 72.0897 468.522 73.3564 470.47 73.4712C475.632 73.7755 477.931 73.8466 477.881 67.4345C477.788 55.4178 477.805 43.4 477.822 31.3822C477.829 26.4829 477.836 21.5836 477.836 16.6844L477.836 16.5131V16.5118C477.836 15.8744 477.836 15.2357 477.789 14.6005C477.596 11.9672 476.479 10.7328 473.844 10.6945L473.229 10.6855L472.496 10.6746L472.49 10.6745C467.436 10.5991 462.376 10.5236 457.331 10.7433C450.943 11.021 447.79 13.4415 446.572 18.5387C446.252 19.8784 446.091 21.2848 446.078 22.6625ZM62.6254 24.4989C62.6089 21.4183 61.4052 20.2436 58.2667 20.1072C57.5663 20.0769 56.8591 20.072 56.1611 20.1278C53.3405 20.3521 52.1073 21.5125 52.096 24.32C52.0486 36.1893 52.0461 48.0593 52.1263 59.9283C52.1337 60.9899 52.549 62.4057 53.3043 63.0378C55.4283 64.8147 58.066 64.4299 60.4846 63.715C62.5206 63.1132 62.6479 61.2271 62.6426 59.413C62.632 55.5567 62.6331 51.7004 62.6343 47.8441C62.6348 45.9683 62.6354 44.0924 62.6346 42.2166C62.6346 40.4828 62.6365 38.749 62.6384 37.0152C62.6431 32.8431 62.6478 28.671 62.6254 24.4989ZM73.1326 62.7713C72.9269 69.4154 70.0666 72.5892 63.4261 73.3278C59.4405 73.7708 55.3192 73.7796 51.3365 73.3236C44.5008 72.5407 41.5688 68.9552 41.5178 61.8893C41.4534 52.9787 41.4704 44.0674 41.4873 35.1565C41.4907 33.407 41.494 31.6575 41.4967 29.908C41.4978 29.1389 41.4876 28.3678 41.4774 27.5962C41.4461 25.2318 41.4148 22.8633 41.7091 20.5381C42.5242 14.1051 45.0955 11.5027 51.6146 10.9302C55.8995 10.5541 60.2845 10.6522 64.5693 11.082C69.7108 11.5973 72.916 15.2194 73.0679 20.5451C73.2106 25.5649 73.1783 30.5897 73.146 35.6145L73.146 35.6181C73.1321 37.776 73.1182 39.9338 73.1182 42.0913C73.139 42.0917 73.1597 42.0917 73.1801 42.0917C73.1801 44.1895 73.1955 46.2878 73.2109 48.3861V48.3866C73.246 53.1833 73.2811 57.9801 73.1326 62.7713ZM61.7167 113.894C62.6148 114.441 63.2288 116.105 63.259 117.278C63.3691 121.588 63.3568 125.901 63.3444 130.214C63.3397 131.865 63.3349 133.516 63.3371 135.168C63.3371 136.869 63.3387 138.57 63.3402 140.271C63.344 144.36 63.3478 148.449 63.3297 152.538C63.3153 155.93 62.0905 157.108 58.6661 157.148C58.3148 157.152 57.9636 157.152 57.6123 157.149C54.0546 157.116 52.8003 155.864 52.7715 152.29C52.7612 151.043 52.7637 149.797 52.7662 148.551C52.7672 148.002 52.7683 147.454 52.7683 146.905C52.7683 144.568 52.768 142.23 52.7676 139.893C52.7666 132.734 52.7656 125.576 52.7743 118.418C52.7744 118.309 52.774 118.199 52.7736 118.088V118.087V118.086V118.085C52.7675 116.377 52.761 114.554 54.6366 113.725C56.9561 112.7 59.5389 112.57 61.7167 113.894ZM64.117 166.336C70.7604 165.589 73.6273 162.423 73.8327 155.785C73.9809 150.995 73.9457 146.199 73.9106 141.404C73.8952 139.304 73.8798 137.204 73.8798 135.105L73.85 135.105L73.8197 135.105C73.8197 132.949 73.8334 130.794 73.8471 128.638C73.8791 123.61 73.9111 118.582 73.769 113.559C73.6182 108.229 70.4228 104.607 65.2796 104.087C60.9962 103.654 56.6101 103.556 52.3256 103.933C45.7966 104.506 43.245 107.104 42.4074 113.531C42.125 115.699 42.153 117.91 42.1808 120.116C42.1897 120.813 42.1985 121.511 42.1975 122.206C42.1948 124.054 42.1914 125.901 42.188 127.749V127.75C42.1716 136.794 42.1551 145.839 42.2182 154.883C42.2681 162.008 45.2758 165.616 52.1994 166.36C56.1308 166.783 60.1884 166.777 64.117 166.336ZM31.7971 161.251C31.7967 161.418 31.7983 161.588 31.8 161.759C31.816 163.408 31.833 165.17 29.9977 165.973C27.6825 166.987 25.1643 167.003 22.8818 165.863C22.1514 165.498 21.6848 164.367 21.3806 163.49C21.1487 162.823 21.1566 162.062 21.1644 161.322C21.1658 161.184 21.1673 161.048 21.1672 160.912C21.1605 151.14 21.1601 141.367 21.1598 131.594C21.1596 126.476 21.1595 121.358 21.1584 116.239C21.1577 113.517 20.7529 113.115 18.0431 113.101L17.7832 113.1C16.3468 113.093 14.9105 113.085 13.4745 113.104C11.1304 113.134 10.5963 113.661 10.5942 116.005C10.5876 123.048 10.5885 130.091 10.5894 137.135L10.5894 137.153C10.5897 139.896 10.5901 142.638 10.59 145.381C10.5899 147.027 10.5913 148.673 10.5927 150.318C10.5961 154.235 10.5996 158.152 10.5822 162.068C10.5675 165.354 9.32825 166.534 5.99112 166.556C5.52237 166.559 5.05398 166.559 4.58523 166.556C1.32898 166.529 0.0190943 165.252 0.0166328 162C0.00858659 149.538 0.00974579 137.075 0.010905 124.613C0.0112656 120.736 0.0116263 116.858 0.0117097 112.981C0.0117097 112.469 0.00878205 111.957 0.00585451 111.445C-0.001159 110.219 -0.00817186 108.992 0.0250723 107.767C0.096105 105.137 1.36098 103.726 4.0233 103.7C11.9301 103.623 19.8386 103.619 27.7451 103.695C30.6602 103.723 31.7764 105.097 31.7929 108.408C31.8199 113.845 31.8154 119.282 31.811 124.719C31.8092 126.93 31.8073 129.142 31.8077 131.353C31.8077 132.628 31.8076 133.903 31.8073 135.177C31.8072 137.5 31.808 139.822 31.8088 142.144C31.8109 148.513 31.8131 154.882 31.7971 161.251ZM85.9166 11.0812C83.8166 11.6983 83.6604 13.6458 83.6629 15.5228C83.6705 21.9252 83.6695 28.3278 83.6685 34.7304V34.7473C83.6681 37.2047 83.6677 39.6621 83.6678 42.1194L83.6683 48.1024V48.1381C83.6689 55.1135 83.6695 62.0888 83.6657 69.0639C83.665 70.5676 83.8317 72.117 85.2949 72.8563C87.5911 74.0156 90.1089 73.971 92.4228 72.9962C94.2828 72.2131 94.2666 70.4297 94.2513 68.7393C94.2499 68.5921 94.2486 68.4456 94.2485 68.3006L94.2478 67.2822C94.2427 59.9731 94.2376 52.6637 94.2531 45.3543C94.257 43.2369 94.8537 42.6588 96.953 42.6337C98.5006 42.6149 100.049 42.6223 101.597 42.6296L101.873 42.6309C104.391 42.6421 104.811 43.0527 104.813 45.5755C104.816 48.6629 104.816 51.7503 104.816 54.8377C104.816 59.2834 104.816 63.729 104.825 68.1746C104.826 68.9799 104.91 69.7907 105.021 70.59C105.264 72.3319 106.416 73.3632 108.066 73.4644C113.255 73.7836 115.554 73.8311 115.507 67.4591C115.419 55.6851 115.433 43.9103 115.448 32.1354C115.454 26.9321 115.46 21.7287 115.458 16.5255C115.458 16.3707 115.459 16.215 115.461 16.0588V16.0587C115.468 15.281 115.476 14.4922 115.285 13.7613C115.078 12.9679 114.704 11.9729 114.075 11.5762C111.789 10.1336 109.225 10.2937 106.828 11.204C104.838 11.9599 104.831 13.8862 104.825 15.6509L104.824 15.8193C104.812 18.4359 104.814 21.0528 104.815 23.6696C104.816 25.9783 104.818 28.287 104.81 30.5955C104.803 32.7718 104.335 33.2052 102.098 33.2219C100.658 33.2327 99.2178 33.2287 97.7775 33.2248L97.3532 33.2236C94.7581 33.217 94.2538 32.737 94.2489 30.2131C94.246 28.7069 94.2495 27.2007 94.253 25.6944C94.2615 22.1011 94.2699 18.508 94.1908 14.9164C94.1669 13.8474 93.8283 12.4352 93.0902 11.7978C90.9817 9.97624 88.3335 10.3708 85.9166 11.0812ZM238.772 68.3588C238.772 68.4987 238.773 68.64 238.774 68.7822C238.786 70.4702 238.799 72.273 236.899 73.0241C234.575 73.942 232.059 74.0369 229.769 72.8357C228.315 72.0727 228.173 70.4971 228.167 69.0192C228.153 65.7184 228.155 62.4177 228.157 59.1171C228.158 57.8422 228.159 56.5673 228.159 55.2925C228.159 53.1024 228.16 50.9123 228.161 48.7221C228.164 40.1394 228.168 31.5566 228.117 22.9745C228.112 22.1086 227.7 20.66 227.166 20.5009C225.965 20.143 224.545 20.2913 223.269 20.5274C222.889 20.5983 222.511 21.6268 222.444 22.2495C222.004 26.3171 221.591 30.3878 221.179 34.4586L221.179 34.4598L221.178 34.461L221.178 34.4622L221.178 34.4634L221.178 34.4646C220.914 37.0694 220.65 39.6742 220.379 42.2781C220.193 44.0647 220.02 45.8532 219.847 47.6418L219.847 47.6424C219.39 52.362 218.933 57.082 218.239 61.7677C217.314 68.0145 212.827 71.4886 207.366 73.9367C206.96 74.1189 206.418 74.2431 206.007 74.1373C203.394 73.4621 202.594 71.2771 201.826 69.1816C201.747 68.9657 201.668 68.7507 201.588 68.5385C200.913 66.7547 202.01 65.4188 203.544 64.5229C206.397 62.8552 208.026 60.6171 208.28 57.1545C208.693 51.5266 209.26 45.9099 209.827 40.2932C210.074 37.8493 210.321 35.4054 210.555 32.9606C210.781 30.5966 211.003 28.2322 211.225 25.8679L211.225 25.8659L211.225 25.8639L211.225 25.8619L211.225 25.86L211.226 25.858L211.226 25.8514C211.593 21.9418 211.96 18.0321 212.347 14.1244C212.555 12.0224 213.806 10.7504 216.081 10.7162C222.402 10.6213 228.728 10.599 235.048 10.7242C237.736 10.7772 238.757 12.208 238.765 15.3636C238.782 21.6775 238.78 27.9915 238.777 34.3055C238.775 36.911 238.774 39.5164 238.774 42.1218C238.775 44.1667 238.775 46.2116 238.775 48.2565C238.777 54.9572 238.778 61.658 238.772 68.3588ZM330.027 49.731C330.033 47.4542 330.97 45.7471 333.031 44.6255C334.718 43.7062 336.385 42.7491 338.143 41.7398L338.144 41.7392C338.926 41.29 339.727 40.8305 340.555 40.3594C340.555 42.3517 340.559 44.3098 340.563 46.2435V46.2439V46.2443V46.2447V46.245C340.573 50.9419 340.583 55.4952 340.531 60.0478C340.501 62.7806 339.118 64.0129 336.353 64.1395C336.321 64.141 336.289 64.1414 336.257 64.1418C336.23 64.1421 336.204 64.1424 336.178 64.1433C331.604 64.301 329.714 63.6127 329.972 58.2451C330.067 56.261 330.052 54.272 330.038 52.2831L330.038 52.274C330.031 51.4262 330.025 50.5784 330.027 49.731ZM351.141 47.1775C351.139 45.4902 351.137 43.8029 351.137 42.1156H351.125C351.125 40.0911 351.132 38.0664 351.139 36.0418C351.154 31.4072 351.17 26.7726 351.103 22.139C351.011 15.7185 348.05 11.6244 342.469 11.1067C337.438 10.6402 332.35 10.6825 327.278 10.7245C326.557 10.7305 325.836 10.7365 325.116 10.741C322.761 10.7557 321.695 12.08 321.55 14.427C321.497 15.2894 321.507 16.1679 321.61 17.0247C321.82 18.7629 322.937 19.8538 324.708 20.0098C325.673 20.0945 326.648 20.0934 327.62 20.0924C327.878 20.0921 328.135 20.0918 328.392 20.0932C329.335 20.0979 330.278 20.0956 331.221 20.0932C332.971 20.0889 334.721 20.0846 336.47 20.1256C338.034 20.1622 339.518 20.4706 340.16 22.2049C341.4 25.549 340.163 29.2454 337.068 31.0571C334.002 32.8528 330.896 34.5837 327.792 36.3145L327.028 36.7404C322.306 39.3738 319.371 43.1145 319.393 48.6962C319.398 49.9896 319.397 51.2834 319.395 52.5772C319.39 56.2054 319.385 59.8341 319.533 63.4564C319.767 69.1875 322.756 72.5674 328.5 73.1926C332.605 73.6399 336.811 73.7111 340.928 73.3905C346.72 72.9397 349.631 70.3831 350.673 65.5298C350.987 64.0701 351.106 62.5462 351.117 61.0502C351.152 56.4261 351.146 51.8018 351.141 47.1775ZM271.392 46.6103C271.33 44.0363 270.111 42.7921 267.516 42.6575C266.076 42.5827 264.629 42.6112 263.186 42.6396L262.952 42.6442C261.738 42.6679 260.882 43.2363 260.875 44.5128C260.845 50.3594 260.843 56.2063 260.875 62.0529C260.883 63.4519 261.732 64.1392 263.137 64.1406C263.552 64.1411 263.968 64.1459 264.383 64.1507C265.432 64.1628 266.481 64.1749 267.526 64.1179C270.123 63.9759 271.331 62.7388 271.392 60.155C271.429 58.5819 271.42 57.0079 271.411 55.4336V55.4304C271.407 54.7478 271.403 54.0651 271.403 53.3825C271.403 52.6914 271.407 52.0003 271.411 51.3092C271.42 49.7425 271.429 48.1759 271.392 46.6103ZM250.267 15.5699C250.265 13.6982 250.391 11.7343 252.474 11.098C254.882 10.3615 257.53 9.9805 259.655 11.7633C260.401 12.3881 260.768 13.7983 260.792 14.8617C260.875 18.4884 260.866 22.1172 260.858 25.7461C260.854 27.2143 260.85 28.6826 260.853 30.1508C260.857 32.7213 261.353 33.1773 263.892 33.2335C264.67 33.2507 265.449 33.2579 266.229 33.2652H266.229H266.23H266.23C268.553 33.2868 270.88 33.3084 273.171 33.5928C278.473 34.2515 281.654 37.5439 281.838 42.8836C282.077 49.8804 282.108 56.8995 281.832 63.8939C281.592 70.0004 277.377 73.4229 270.567 73.5283C266.366 73.5934 262.163 73.5764 257.961 73.5594C256.893 73.5551 255.826 73.5508 254.758 73.5478C251.616 73.5391 250.285 72.2235 250.279 69.0863C250.267 62.7071 250.269 56.3281 250.271 49.9489C250.272 47.3506 250.273 44.7524 250.273 42.154C250.273 39.7268 250.273 37.2996 250.273 34.8723C250.275 28.4383 250.276 22.0042 250.267 15.5699ZM125.844 37.1297C125.846 38.8078 125.847 40.486 125.847 42.1641H125.857C125.857 44.1698 125.851 46.1755 125.846 48.1813C125.833 52.7776 125.821 57.374 125.874 61.9694C125.946 68.2137 128.5 71.7734 133.692 73.0265C134.932 73.3255 136.23 73.508 137.505 73.523C142.422 73.5816 147.34 73.5694 152.257 73.5453C155.336 73.53 156.538 72.215 156.573 68.9397C156.609 65.5441 155.414 64.1845 152.279 64.1559C149.989 64.1349 147.698 64.1388 145.407 64.1426H145.405C144.184 64.1447 142.963 64.1467 141.742 64.1451C137.587 64.1398 136.428 62.9983 136.426 58.8846C136.422 50.3122 136.423 41.7401 136.424 33.168V33.0858L136.425 26.0499C136.425 20.9343 137.817 19.6766 142.983 20.1203C143.216 20.1406 143.448 20.1772 143.679 20.2156C145.855 20.5777 146.878 21.6453 146.951 23.8146C147.006 25.4312 147.001 27.0497 146.996 28.6679C146.994 29.1926 146.993 29.7172 146.993 30.2417C146.997 35.6383 147.84 36.4498 153.353 36.3524C156.207 36.3018 157.519 35.2091 157.572 32.4034C157.648 28.3543 157.685 24.2898 157.417 20.2522C157.059 14.8438 153.736 11.3934 148.29 11.0093C143.877 10.6981 139.405 10.7235 134.989 11.0274C130.183 11.3582 127.141 14.3139 126.264 18.9153C125.994 20.3286 125.875 21.7883 125.865 23.2282C125.835 27.8618 125.839 32.4958 125.844 37.1297ZM303.051 68.6833C303.042 72.4617 301.928 73.5447 298.141 73.5527C298.005 73.553 297.869 73.554 297.734 73.555C297.342 73.5579 296.95 73.5607 296.559 73.5485C293.938 73.4665 292.574 72.177 292.486 69.5538C292.434 67.9904 292.444 66.425 292.454 64.8597C292.458 64.223 292.462 63.5863 292.462 62.9498C292.461 57.9746 292.462 52.9993 292.462 48.024C292.462 39.7319 292.462 31.4397 292.46 23.1476C292.46 20.5648 292.012 20.1162 289.424 20.098C287.667 20.0862 285.91 20.075 284.153 20.0928C282.624 20.1085 281.88 19.3982 281.899 17.8774C281.91 17.0208 281.907 16.1641 281.905 15.3073V15.2953C281.903 14.7076 281.901 14.1198 281.904 13.5321C281.913 11.204 282.439 10.659 284.776 10.6562C291.106 10.6487 297.435 10.6503 303.765 10.6519C305.635 10.6524 307.505 10.6529 309.376 10.6531C309.58 10.6531 309.785 10.6509 309.989 10.6487C310.547 10.6428 311.105 10.6368 311.659 10.6751C312.881 10.7592 313.622 11.3767 313.629 12.6553C313.64 14.5083 313.646 16.3622 313.621 18.2151C313.602 19.5046 312.864 20.0823 311.597 20.0827L310.681 20.0826C309.113 20.0822 307.544 20.0817 305.975 20.1001C303.613 20.1273 303.065 20.6507 303.061 22.9718C303.052 28.5961 303.053 34.2207 303.055 39.8452C303.055 42.0421 303.056 44.239 303.056 46.4358C303.056 48.7016 303.056 50.9674 303.057 53.2332C303.059 58.3832 303.061 63.5333 303.051 68.6833ZM116.42 166.556C120.207 166.548 121.322 165.465 121.33 161.686C121.34 156.496 121.338 151.306 121.336 146.116C121.336 143.832 121.335 141.548 121.335 139.265C121.335 137.088 121.334 134.911 121.334 132.734C121.332 127.147 121.331 121.561 121.34 115.974C121.344 113.654 121.892 113.13 124.255 113.104C125.807 113.085 127.359 113.086 128.911 113.086C129.233 113.086 129.555 113.086 129.877 113.086C131.144 113.085 131.882 112.507 131.9 111.218C131.925 109.365 131.919 107.511 131.908 105.658C131.901 104.379 131.159 103.762 129.937 103.678C129.383 103.64 128.826 103.646 128.27 103.652C128.064 103.654 127.859 103.657 127.654 103.657C125.787 103.656 123.919 103.656 122.052 103.655C115.719 103.654 109.387 103.652 103.055 103.66C100.717 103.663 100.192 104.207 100.182 106.536C100.181 106.764 100.18 106.992 100.179 107.22C100.173 108.383 100.167 109.545 100.186 110.707C100.217 112.547 100.721 113.052 102.609 113.09C103.625 113.11 104.642 113.106 105.659 113.102C106.341 113.1 107.022 113.097 107.704 113.102C110.291 113.12 110.739 113.569 110.739 116.152C110.741 123.95 110.741 131.749 110.741 139.547C110.741 145.016 110.741 150.485 110.741 155.954C110.741 156.586 110.737 157.219 110.733 157.851C110.723 159.421 110.713 160.991 110.765 162.558C110.853 165.181 112.217 166.47 114.839 166.552C115.23 166.564 115.622 166.561 116.014 166.558C116.149 166.558 116.285 166.557 116.42 166.556Z" fill="white"/>
</svg>
