<svg width="43" height="54" viewBox="0 0 43 54" fill="none" xmlns="http://www.w3.org/2000/svg">
<path fill-rule="evenodd" clip-rule="evenodd" d="M40.2059 53.8871C39.7871 53.8871 39.3683 53.7475 38.9495 53.4683L34.6218 50.2574L31.4109 52.4911C30.7129 53.0495 29.7356 53.0495 29.0376 52.4911L25.6871 50.2574L22.3366 52.4911C21.6386 53.0495 20.6614 53.0495 19.9634 52.4911L16.6129 50.2574L13.2624 52.4911C12.5644 53.0495 11.5871 53.0495 10.8891 52.4911L7.67822 50.2574L3.3505 53.4683C2.65248 53.8871 1.81485 54.0267 1.11683 53.6079C0.418812 53.1891 0 52.4911 0 51.7931V2.09406C0 0.977228 0.977228 0 2.09406 0H40.2059C41.3228 0 42.3 0.977228 42.3 2.09406V51.7931C42.3 52.6307 41.8812 53.3287 41.1832 53.6079C40.904 53.7475 40.4851 53.8871 40.2059 53.8871ZM25.6871 45.6505C26.1059 45.6505 26.5248 45.7901 26.9436 46.0693L30.2941 48.303L33.6446 46.0693C34.3426 45.5109 35.3198 45.5109 36.0178 46.0693L38.1119 47.6049V4.18812H4.18812V47.6049L6.28218 46.0693C6.9802 45.5109 7.95743 45.5109 8.65545 46.0693L12.0059 48.303L15.3564 46.0693C16.0545 45.5109 17.0317 45.5109 17.7297 46.0693L21.0802 48.303L24.4307 46.0693C24.8495 45.6505 25.2683 45.6505 25.6871 45.6505ZM28.6188 41.4624H33.2257C33.505 41.4624 33.9238 41.0436 33.9238 40.7644C33.9238 40.3455 33.6446 40.0663 33.2257 40.0663H28.6188C28.2 40.0663 27.9208 40.3455 27.9208 40.7644C27.9208 41.1832 28.2 41.4624 28.6188 41.4624ZM33.2257 24.9891H31.9693C31.5505 24.9891 31.2713 24.7099 31.2713 24.2911C31.2713 23.8723 31.5505 23.5931 31.9693 23.5931H33.2257C33.6446 23.5931 33.9238 23.8723 33.9238 24.2911C33.9238 24.7099 33.505 24.9891 33.2257 24.9891ZM31.9693 29.7356H33.2257C33.505 29.7356 33.9238 29.3168 33.9238 29.0376C33.9238 28.6188 33.6446 28.3396 33.2257 28.3396H31.9693C31.5505 28.3396 31.2713 28.6188 31.2713 29.0376C31.2713 29.4564 31.5505 29.7356 31.9693 29.7356ZM33.2257 34.4822H31.9693C31.5505 34.4822 31.2713 34.203 31.2713 33.7842C31.2713 33.3653 31.5505 33.0861 31.9693 33.0861H33.2257C33.6446 33.0861 33.9238 33.3653 33.9238 33.7842C33.9238 34.0634 33.505 34.4822 33.2257 34.4822ZM31.9693 10.6099H33.2257C33.505 10.6099 33.9238 10.3307 33.9238 9.91188C33.9238 9.49307 33.6446 9.21386 33.2257 9.21386H31.9693C31.5505 9.21386 31.2713 9.49307 31.2713 9.91188C31.2713 10.3307 31.5505 10.6099 31.9693 10.6099ZM33.2257 15.3564H31.9693C31.5505 15.3564 31.2713 15.0772 31.2713 14.6584C31.2713 14.2396 31.5505 13.9604 31.9693 13.9604H33.2257C33.6446 13.9604 33.9238 14.2396 33.9238 14.6584C33.9238 15.0772 33.505 15.3564 33.2257 15.3564ZM31.9693 20.103H33.2257C33.505 20.103 33.9238 19.8238 33.9238 19.4049C33.9238 18.9861 33.6446 18.7069 33.2257 18.7069H31.9693C31.5505 18.7069 31.2713 18.9861 31.2713 19.4049C31.2713 19.8238 31.5505 20.103 31.9693 20.103ZM16.0545 24.9891H9.21386C8.79505 24.9891 8.51584 24.7099 8.51584 24.2911C8.51584 23.8723 8.79505 23.5931 9.21386 23.5931H16.0545C16.4733 23.5931 16.7525 23.8723 16.7525 24.2911C16.7525 24.7099 16.4733 24.9891 16.0545 24.9891ZM9.21386 29.7356H24.5703C24.9891 29.7356 25.2683 29.3168 25.2683 29.0376C25.2683 28.6188 24.9891 28.3396 24.5703 28.3396H9.21386C8.79505 28.3396 8.51584 28.6188 8.51584 29.0376C8.51584 29.4564 8.79505 29.7356 9.21386 29.7356ZM24.5703 34.4822H9.21386C8.79505 34.4822 8.51584 34.203 8.51584 33.7842C8.51584 33.3653 8.79505 33.0861 9.21386 33.0861H24.5703C24.9891 33.0861 25.2683 33.3653 25.2683 33.7842C25.2683 34.0634 24.9891 34.4822 24.5703 34.4822ZM9.21386 10.6099H16.0545C16.4733 10.6099 16.7525 10.3307 16.7525 9.91188C16.7525 9.49307 16.4733 9.21386 16.0545 9.21386H9.21386C8.79505 9.21386 8.51584 9.49307 8.51584 9.91188C8.51584 10.3307 8.79505 10.6099 9.21386 10.6099ZM24.5703 15.3564H9.21386C8.79505 15.3564 8.51584 15.0772 8.51584 14.6584C8.51584 14.2396 8.79505 13.9604 9.21386 13.9604H24.5703C24.9891 13.9604 25.2683 14.2396 25.2683 14.6584C25.2683 15.0772 24.9891 15.3564 24.5703 15.3564ZM9.21386 20.103H24.5703C24.9891 20.103 25.2683 19.8238 25.2683 19.4049C25.2683 18.9861 24.9891 18.7069 24.5703 18.7069H9.21386C8.79505 18.7069 8.51584 18.9861 8.51584 19.4049C8.51584 19.8238 8.79505 20.103 9.21386 20.103Z" fill="#5BADDE"/>
</svg>
