<svg width="98" height="505" viewBox="0 0 98 505" fill="none" xmlns="http://www.w3.org/2000/svg">
<path fill-rule="evenodd" clip-rule="evenodd" d="M46.3019 253.983C39.6132 253.983 32.9244 253.973 26.2356 253.986C22.6753 253.993 22.4465 254.311 22.4626 257.801C22.4707 259.655 23.0485 260.695 25.0392 260.736C26.3697 260.764 27.6949 261.023 29.0249 261.155C41.9539 262.439 54.8877 263.67 67.807 265.048C69.7622 265.257 70.488 264.584 70.5483 262.829C70.6103 261.031 70.4762 259.223 70.5968 257.431C70.7686 254.872 69.7299 253.904 67.17 253.945C60.2158 254.058 53.2583 253.984 46.3019 253.983ZM42.2791 242.267C50.4874 242.266 58.6963 242.223 66.9035 242.295C69.0444 242.313 70.4116 241.997 70.7573 239.387C70.887 238.405 72.5552 236.933 73.5783 236.885C79.006 236.624 84.453 236.689 89.891 236.758C92.5278 236.793 93.2499 238.749 93.4701 240.978C93.7797 244.121 92.8778 246.187 90.613 246.611C88.4484 247.016 86.1863 247.027 83.9716 246.985C81.6783 246.941 80.7926 247.848 80.8286 250.188C80.9277 256.49 80.9353 262.795 80.826 269.096C80.7823 271.599 81.8479 272.525 84.1789 272.44C85.7825 272.381 87.3914 272.402 88.996 272.44C92.097 272.513 93.3651 273.864 93.5019 277.175C93.6483 280.732 92.3027 282.547 89.1603 282.718C86.6693 282.853 84.1655 282.756 81.6676 282.759C80.2401 282.762 78.8003 282.639 77.3873 282.784C74.029 283.128 71.6048 282.23 70.151 278.783C68.7687 275.508 65.3473 275.597 62.5118 275.321C48.0552 273.914 33.5824 272.68 19.1166 271.374C18.141 271.286 17.169 271.133 16.2036 270.966C13.0622 270.426 12.2001 269.521 12.1726 266.347C12.1177 259.954 12.1118 253.56 12.1705 247.168C12.2033 243.679 13.6238 242.295 17.1206 242.28C25.5066 242.244 33.8931 242.268 42.2791 242.267Z" fill="white"/>
<path fill-rule="evenodd" clip-rule="evenodd" d="M46.5517 87.6566C52.6229 87.6566 58.6946 87.6863 64.7657 87.6479C70.4508 87.6122 70.6559 88.738 70.5752 81.8353C70.5246 77.5003 69.285 76.2451 64.938 76.2407C53.4198 76.2294 41.9016 76.237 30.3839 76.237C22.8233 76.237 22.4836 76.6813 22.4373 84.3484C22.4211 87.0184 23.4237 87.7491 25.927 87.7015C32.7999 87.5705 39.6761 87.656 46.5517 87.6566ZM55.0276 99.4274C42.713 99.428 30.3979 99.435 18.0833 99.4247C13.404 99.4204 12.1704 98.2004 12.1526 93.5656C12.1338 88.7023 12.0966 83.8374 12.1752 78.9758C12.2059 77.1014 12.3546 75.1912 12.7616 73.3688C13.9479 68.0617 17.3063 64.9846 22.7442 64.9299C38.5372 64.7708 54.3341 64.7481 70.1261 64.9278C76.5532 65.0008 80.4672 69.4804 80.8038 76.414C80.9438 79.2902 80.891 82.1779 80.8517 85.059C80.8264 86.8755 81.5932 87.695 83.4132 87.6668C86.5357 87.6181 89.6604 87.6187 92.7824 87.6679C96.8332 87.7313 97.9926 89.1028 97.9866 93.6819C97.9818 97.9806 96.7579 99.402 92.7759 99.4139C80.1932 99.4496 67.6104 99.4269 55.0276 99.4274Z" fill="white"/>
<path fill-rule="evenodd" clip-rule="evenodd" d="M41.4479 204.87C50.3503 207.943 59.2532 211.014 68.1562 214.089C71.1866 215.136 74.2413 216.119 77.2373 217.26C80.4616 218.488 81.6129 221.498 80.803 226.149C80.3696 228.635 78.8672 229.656 75.3322 229.659C56.1415 229.678 36.9507 229.677 17.7605 229.656C15.7972 229.654 13.2519 229.757 12.7975 227.466C12.3026 224.97 12.4319 222.113 13.2013 219.712C13.5109 218.745 16.2522 218.09 17.8752 218.114C27.862 218.259 37.8451 218.644 47.8298 218.938C48.9794 218.972 50.1317 218.943 51.4052 218.615C47.1982 217.136 42.996 215.64 38.7826 214.179C31.4622 211.642 24.1278 209.145 16.8122 206.593C12.4976 205.089 10.5499 200.23 12.665 196.095C13.0716 195.301 13.9525 194.619 14.7747 194.217C15.5366 193.843 16.5107 193.805 17.3922 193.804C36.7612 193.783 56.1302 193.77 75.4986 193.828C76.7791 193.831 78.1974 194.163 79.305 194.788C80.9086 195.694 81.5342 200.056 80.6366 202.615C79.8645 204.817 78.1301 205.515 75.9784 205.448C65.7282 205.129 55.4786 204.801 45.2285 204.488C43.9852 204.451 42.7397 204.484 41.4953 204.484C41.4797 204.612 41.4636 204.741 41.4479 204.87Z" fill="white"/>
<path fill-rule="evenodd" clip-rule="evenodd" d="M36.9273 312.095V312.106C40.5786 312.106 44.2304 312.092 47.8817 312.112C49.6419 312.122 50.5153 311.345 50.4723 309.51C50.4243 307.444 50.4443 305.375 50.4696 303.309C50.4911 301.543 49.7281 300.639 47.9156 300.644C40.7913 300.666 33.6653 300.607 26.5414 300.686C23.9886 300.715 22.6704 302.17 22.5116 304.752C22.4507 305.737 22.4609 306.73 22.4986 307.717C22.6112 310.653 23.8475 311.991 26.7751 312.073C30.1566 312.167 33.543 312.095 36.9273 312.095ZM36.5412 289.244C40.9108 289.244 45.2901 289.061 49.6484 289.286C56.3555 289.632 59.9443 293.141 60.5813 299.841C60.8699 302.878 60.899 305.954 60.8296 309.007C60.7752 311.386 61.7756 312.138 64.0248 312.151C69.5289 312.181 70.5698 311.218 70.5746 305.589C70.5779 301.988 70.5353 298.386 70.5946 294.786C70.6495 291.497 71.9973 290.32 75.5387 290.289C79.2713 290.258 80.8006 291.467 80.8372 294.752C80.8991 300.424 80.9637 306.1 80.8027 311.767C80.5981 318.979 77.1272 322.896 70.0793 323.394C63.9526 323.826 57.7846 323.746 51.6353 323.731C42.0071 323.707 32.3703 323.764 22.7539 323.367C16.6822 323.116 13.3367 320.215 12.6254 314.25C12.0035 309.033 12.0202 303.615 12.6701 298.402C13.404 292.516 16.9595 289.666 22.8998 289.322C27.4326 289.058 31.9928 289.269 36.5406 289.269C36.5406 289.261 36.5412 289.252 36.5412 289.244Z" fill="white"/>
<path fill-rule="evenodd" clip-rule="evenodd" d="M46.5796 122.287C40.4309 122.287 34.2822 122.268 28.134 122.293C23.7143 122.311 22.4893 123.606 22.4877 128.13C22.4866 132.683 23.6998 133.993 28.0969 134.001C40.3937 134.022 52.6911 134.024 64.9879 134C69.2176 133.991 70.5535 132.579 70.5745 128.302C70.5965 123.752 69.3102 122.32 65.0246 122.296C58.8764 122.261 52.7277 122.287 46.5796 122.287ZM46.5736 110.849C53.4444 110.849 60.3157 110.807 67.1854 110.876C69.0442 110.895 70.9476 111.049 72.7472 111.489C77.6057 112.676 80.1763 116.168 80.5602 120.949C80.9415 125.683 81.0992 130.522 80.5651 135.224C79.7962 141.993 75.9548 145.288 68.9117 145.37C53.9242 145.546 38.9302 145.576 23.9432 145.355C16.3869 145.244 12.573 141.1 12.2413 133.476C12.0965 130.15 12.0927 126.81 12.2047 123.484C12.4933 114.887 16.5625 110.928 25.1596 110.861C32.2974 110.805 39.4358 110.85 46.5736 110.849Z" fill="white"/>
<path fill-rule="evenodd" clip-rule="evenodd" d="M46.4649 335.224C56.1971 335.223 65.9292 335.212 75.6619 335.228C79.604 335.235 80.8365 336.551 80.8602 340.654C80.8877 345.411 79.8678 346.728 75.7928 346.738C59.5425 346.778 43.2918 346.755 27.0421 346.76C22.6014 346.761 22.4447 346.877 22.4969 351.23C22.5858 358.576 21.182 358.334 29.5373 358.325C44.6266 358.307 59.7186 358.482 74.8047 358.244C81.1618 358.143 81.662 361.8 80.4101 367.409C79.9292 369.562 77.8545 369.87 75.845 369.867C61.4697 369.844 47.0944 369.856 32.7196 369.856C27.5407 369.856 22.3618 369.874 17.1834 369.848C13.6166 369.83 12.1956 368.539 12.1725 365.068C12.117 356.687 12.1159 348.306 12.1768 339.926C12.2015 336.572 13.6182 335.243 17.0003 335.234C26.8224 335.206 36.6434 335.224 46.4649 335.224Z" fill="white"/>
<path fill-rule="evenodd" clip-rule="evenodd" d="M40.7322 469.877C49.57 469.875 58.4078 469.835 67.2445 469.906C69.1899 469.922 71.1865 470.118 73.0636 470.607C77.6863 471.808 80.4981 475.475 80.7442 481.109C81.007 487.133 80.9063 493.179 80.8142 499.213C80.769 502.175 78.9603 503.441 75.435 503.364C72.1342 503.291 70.6556 502.009 70.6023 498.953C70.5312 494.9 70.6018 490.844 70.5673 486.79C70.5345 482.796 69.1797 481.379 65.278 481.326C61.4398 481.273 57.6001 481.361 53.7625 481.296C51.5284 481.259 50.4358 482.185 50.5032 484.496C50.5554 486.296 50.5667 488.104 50.4628 489.9C50.2926 492.855 48.7192 494.147 45.4443 494.17C42.0272 494.195 40.3402 492.864 40.1685 489.835C40.0565 487.86 40.1152 485.872 40.1394 483.891C40.1604 482.194 39.2725 481.351 37.6931 481.345C30.1951 481.317 22.6938 481.223 15.2 481.404C11.9358 481.483 10.9176 483.282 11 487.603C11.0716 491.342 12.2288 492.855 15.5128 492.989C19.0775 493.134 22.6528 493.012 26.2234 493.043C29.7008 493.073 30.9161 494.272 31.0189 497.684C31.1945 503.488 30.2511 504.473 24.5127 504.473C20.674 504.472 16.8331 504.55 12.9971 504.445C5.52761 504.241 1.72715 501.003 0.877457 493.559C0.411688 489.475 0.364842 485.255 0.804765 481.171C1.65392 473.285 5.52546 469.969 13.4166 469.898C22.5209 469.816 31.6268 469.879 40.7322 469.877Z" fill="white"/>
<path fill-rule="evenodd" clip-rule="evenodd" d="M46.4808 457.373C37.0163 457.373 27.5517 457.373 18.0866 457.373C16.0017 457.374 13.4182 457.484 12.8334 455.166C12.233 452.786 12.2998 449.97 13.0133 447.639C13.3331 446.592 15.9199 445.764 17.5153 445.693C22.8623 445.455 28.2275 445.655 33.5825 445.554C34.5867 445.535 35.5796 444.904 36.5774 444.554C35.7584 443.661 35.1026 442.334 34.0924 441.947C28.5204 439.807 22.9064 437.755 17.2203 435.951C11.9266 434.271 11.6795 431.214 12.3773 426.147C12.6853 423.908 14.5651 423.287 17.2897 424.211C23.7017 426.386 30.1417 428.488 36.4843 430.855C39.8437 432.109 42.9226 432.138 46.3203 430.903C55.948 427.403 65.664 424.149 75.3585 420.837C79.2004 419.524 80.8282 420.782 80.8605 424.962C80.8976 429.863 80.0092 431.061 75.4463 432.602C66.9229 435.482 58.4131 438.405 49.9049 441.332C49.2393 441.561 48.4763 441.827 48.0407 442.327C47.5696 442.866 47.0876 443.797 47.2476 444.377C47.3924 444.905 48.3821 445.504 49.0218 445.531C52.0528 445.656 55.0908 445.6 58.1266 445.601C63.6626 445.603 69.1985 445.595 74.7349 445.603C79.6037 445.611 80.8648 446.844 80.861 451.552C80.8562 456.165 79.5703 457.369 74.6068 457.372C65.2316 457.377 55.8559 457.373 46.4808 457.373Z" fill="white"/>
<path fill-rule="evenodd" clip-rule="evenodd" d="M58.7344 41.6382C60.5157 41.6382 62.2969 41.6301 64.0781 41.6398C70.9914 41.6766 70.6953 42.3164 70.5348 34.5119C70.4745 31.5793 69.0524 30.2798 66.1787 30.2381C62.5279 30.184 58.8707 30.3431 55.2242 30.1942C46.5022 29.8381 47.0294 31.5604 47.0611 39.0266C47.0692 40.8301 47.8672 41.6598 49.6495 41.6436C52.6773 41.616 55.7061 41.636 58.7344 41.6382ZM46.5927 53.0735C36.783 53.0746 26.9738 53.087 17.1641 53.0686C13.2377 53.061 12.1694 51.8551 12.1484 47.5602C12.1268 43.0763 13.2743 41.6723 17.1178 41.6479C22.5574 41.6122 27.9991 41.5624 33.437 41.6718C35.8757 41.721 36.7474 40.7224 36.7873 38.3262C36.8498 34.5671 36.8955 30.7712 37.4464 27.0668C38.1523 22.3145 41.3911 19.2997 45.9444 19.0734C54.4612 18.6491 63.04 18.5289 71.5412 19.0848C77.4767 19.4734 80.6068 23.8165 80.7947 30.3669C80.9697 36.4821 80.8938 42.606 80.8361 48.7261C80.8076 51.742 79.3952 53.0524 76.2894 53.0616C66.3903 53.0903 56.4917 53.0724 46.5927 53.0735Z" fill="white"/>
<path fill-rule="evenodd" clip-rule="evenodd" d="M46.3093 414.19C39.3454 414.19 32.3815 414.219 25.4176 414.183C16.5071 414.137 12.4428 410.186 12.1935 401.258C12.0982 397.839 12.0971 394.406 12.278 390.991C12.6474 384.031 16.5426 380.021 23.4355 379.647C27.6199 379.421 31.8263 379.516 36.0209 379.594C38.7159 379.645 40.0158 381.091 40.1299 383.862C40.1714 384.851 40.1714 385.845 40.1289 386.834C40.0104 389.639 38.8274 390.913 35.9827 391.04C33.3092 391.16 30.6272 391.058 27.9494 391.105C23.5491 391.182 22.4926 392.303 22.4878 396.807C22.4829 401.405 23.5093 402.622 27.8094 402.638C40.3082 402.685 52.808 402.687 65.3073 402.635C69.2941 402.619 70.5363 401.252 70.5681 397.201C70.5983 393.236 70.5374 389.271 70.5945 385.307C70.6413 381.985 72.1689 380.661 75.7524 380.675C79.275 380.688 80.8161 382.063 80.8441 385.42C80.8904 390.916 80.9399 396.415 80.8209 401.909C80.6508 409.745 76.3426 414.051 68.5397 414.157C61.131 414.258 53.7196 414.179 46.3093 414.179V414.19Z" fill="white"/>
<path fill-rule="evenodd" clip-rule="evenodd" d="M50.8331 175.452C42.6275 175.453 34.4213 175.44 26.2163 175.46C22.8654 175.468 22.5079 175.851 22.4885 179.131C22.4799 180.662 22.4917 182.192 22.4831 183.722C22.4799 184.261 22.6306 184.911 22.3926 185.322C20.4552 188.668 17.26 186.582 14.6533 187.005C12.8748 187.294 12.1479 186.029 12.1511 184.309C12.1608 179.358 12.1484 174.407 12.1479 169.456C12.1468 164.775 12.1931 160.094 12.1323 155.414C12.1037 153.226 13.0013 152.376 15.1843 152.41C23.245 152.533 22.4777 151.533 22.4863 159.5C22.4912 163.879 22.4906 163.883 26.7902 163.883C42.7551 163.885 58.721 163.995 74.6848 163.83C81.1329 163.764 81.5744 167.115 80.4905 172.903C80.0689 175.157 77.9366 175.428 75.9846 175.435C70.0088 175.457 64.0335 175.448 58.0571 175.45C55.6491 175.452 53.2411 175.451 50.8331 175.452Z" fill="white"/>
<path fill-rule="evenodd" clip-rule="evenodd" d="M46.5638 0.031846C56.1996 0.0323877 65.8354 0.0204792 75.4717 0.0377998C79.4741 0.0442953 80.8197 1.39313 80.8601 5.32108C80.9112 10.2742 79.7783 11.7205 75.4846 11.7286C56.2125 11.7654 36.9405 11.7616 17.6684 11.7334C13.316 11.727 12.1303 10.3668 12.1491 5.74327C12.1664 1.35145 13.4065 0.0432129 17.6555 0.0367174C27.2918 0.0221033 36.9275 0.031846 46.5638 0.031846Z" fill="white"/>
</svg>
