<svg width="22" height="31" viewBox="0 0 22 31" fill="none" xmlns="http://www.w3.org/2000/svg">
<path fill-rule="evenodd" clip-rule="evenodd" d="M20.1255 19.5082C18.9901 17.4343 16.3902 16.7286 14.3623 17.9569L13.5925 18.4199C13.5925 18.4199 12.582 16.7388 11.7838 14.8769C10.9857 13.015 10.3912 10.9522 10.3912 10.9522L11.2632 10.4214C13.2438 9.22186 13.9242 6.63158 12.8151 4.58432L11.4713 2.16007C10.3391 0.091985 7.74734 -0.618325 5.71836 0.588609L2.77603 2.37647C-0.541053 4.39754 0.0334781 11.0991 4.4676 19.1674C8.95002 27.2964 13.5658 31.6223 16.9844 29.5518C17.0117 29.5333 17.037 29.5161 17.061 29.4997C17.1407 29.4455 17.2064 29.4008 17.2843 29.3502C17.3651 29.3107 17.3925 29.2975 17.4298 29.2803L17.579 29.201L19.9151 27.785C21.8997 26.5615 22.5769 23.9768 21.4623 21.9197L20.1255 19.5082ZM15.9137 20.5251C16.4806 20.1817 17.1763 20.3705 17.4965 20.9553L18.833 23.3663C19.1815 24.0161 18.9622 24.8477 18.3492 25.2256L16.0908 26.5945C16.0558 26.6112 16.0175 26.6298 15.9663 26.6548C15.8856 26.6943 15.8582 26.7074 15.8208 26.7247L15.6281 26.8136L15.4677 26.9524C15.4536 26.9646 15.4308 26.9813 15.3524 27.0356C14.3171 27.6594 10.7296 24.3088 7.09707 17.7211C5.39718 14.628 4.93803 12.3169 4.45107 9.86577C4.39497 9.58338 4.3385 9.29913 4.27972 9.01162C3.79544 6.64285 3.97683 5.15831 4.33657 4.93913L7.26528 3.15947C7.82013 2.82949 8.52175 3.02178 8.84228 3.60726L10.1829 6.02571C10.5277 6.66219 10.31 7.49095 9.70514 7.85729L7.74435 9.05072L6.67408 9.70214L7.12439 10.871C7.12439 10.871 7.97754 13.7912 9.1552 16.3248C10.3329 18.8583 11.9782 21.3131 11.9782 21.3131L12.7903 22.4038L15.9137 20.5251Z" fill="white"/>
</svg>
