<svg width="26" height="26" viewBox="0 0 26 26" fill="none" xmlns="http://www.w3.org/2000/svg">
	<path fill-rule="evenodd" clip-rule="evenodd" d="M8.41575 0H17.5824C22.2248 0 26 3.77321 26 8.41575V17.5824C26 22.2248 22.2268 26 17.5843 26H8.41758C3.77524 26 0 22.2268 0 17.5843V8.41758C0 3.77524 3.77321 0 8.41575 0ZM23.9956 8.1764C23.9985 8.25583 24 8.33562 24 8.41575V17.5824C24 21.1208 21.1217 24 17.5843 24H8.41758C4.87925 24 2 21.1217 2 17.5843V8.41758C2 4.87925 4.87833 2 8.41575 2H17.5824C18.6042 2 19.5711 2.24005 20.4295 2.66669C22.0088 3.4516 23.221 4.86809 23.7333 6.58333C23.885 7.09105 23.9753 7.62496 23.9956 8.1764ZM21.9476 7.7362C22.1897 7.4153 22.3333 7.01599 22.3333 6.58333C22.3333 5.52533 21.4747 4.66667 20.4167 4.66667C20.2694 4.66667 20.1259 4.68331 19.9882 4.71482C19.1362 4.90962 18.5 5.67263 18.5 6.58333C18.5 7.64133 19.3587 8.5 20.4167 8.5C21.042 8.5 21.5977 8.20001 21.9476 7.7362ZM20.4503 6.50745C20.4376 6.50207 20.4249 6.5 20.4167 6.5C20.4084 6.5 20.3957 6.50207 20.383 6.50745C20.3717 6.51226 20.3634 6.5183 20.3575 6.5242C20.3516 6.53011 20.3456 6.53832 20.3408 6.54969C20.3354 6.5624 20.3333 6.57507 20.3333 6.58333C20.3333 6.5916 20.3354 6.60427 20.3408 6.61698C20.3456 6.62835 20.3516 6.63656 20.3575 6.64246C20.3634 6.64837 20.3717 6.65441 20.383 6.65922C20.3957 6.6646 20.4084 6.66667 20.4167 6.66667C20.4249 6.66667 20.4376 6.6646 20.4503 6.65922C20.4617 6.65441 20.4699 6.64837 20.4758 6.64246C20.4817 6.63656 20.4877 6.62835 20.4926 6.61698C20.4979 6.60427 20.5 6.5916 20.5 6.58333C20.5 6.57507 20.4979 6.5624 20.4926 6.54969C20.4877 6.53832 20.4817 6.53011 20.4758 6.5242C20.4699 6.5183 20.4617 6.51226 20.4503 6.50745ZM13 18.5C9.96675 18.5 7.5 16.0332 7.5 13C7.5 9.96675 9.96675 7.5 13 7.5C16.0332 7.5 18.5 9.96675 18.5 13C18.5 16.0332 16.0332 18.5 13 18.5ZM16.6667 13C16.6667 15.025 15.025 16.6667 13 16.6667C10.975 16.6667 9.33333 15.025 9.33333 13C9.33333 10.975 10.975 9.33333 13 9.33333C15.025 9.33333 16.6667 10.975 16.6667 13Z" fill="white" />
</svg>