<svg width="20" height="20" viewBox="0 0 20 20" fill="none" xmlns="http://www.w3.org/2000/svg">
<path fill-rule="evenodd" clip-rule="evenodd" d="M15.4139 3.28748C15.4139 3.80465 15.0726 4.23433 14.6346 4.23433H14.1932C13.7553 4.23433 13.4139 3.80462 13.4139 3.28748V0.935131C13.4139 0.419495 13.7553 0 14.1932 0H14.6346C15.0726 0 15.4139 0.419495 15.4139 0.935131V3.28748ZM5.36366 4.23433C5.79419 4.23433 6.14066 3.80465 6.14066 3.28748V0.93556C6.14066 0.419531 5.79416 3.57138e-05 5.36366 3.57138e-05H4.92976C4.49924 3.57138e-05 4.14065 0.419531 4.14065 0.93556V3.28791C4.14065 3.80465 4.49924 4.23433 4.92976 4.23433H5.36366ZM17.3827 1.48445V4.28755C17.3827 5.2044 16.6796 5.9375 15.7968 5.9375H13.2968C12.414 5.9375 11.7109 5.20465 11.7109 4.28755V1.48445H8.14838V4.28755C8.14838 5.2044 7.43242 5.9375 6.54989 5.9375H4.04989C3.16793 5.9375 2.43747 5.20465 2.43747 4.28755V1.48445H1.20006C0.539925 1.48445 0 2.06062 0 2.74657V18.7528C0 19.4386 0.539889 20 1.20006 20H18.7999C19.4601 20 20 19.4386 20 18.7528V2.74657C20 2.06062 19.4601 1.48445 18.7999 1.48445H17.3827ZM6.24996 15.7028C6.24996 16.0965 6.09357 16.474 5.81524 16.7525C5.53679 17.0308 5.15928 17.1872 4.76557 17.1872H4.21872C3.82504 17.1872 3.44751 17.0308 3.16905 16.7525C2.89073 16.474 2.73434 16.0965 2.73434 15.7028C2.73434 15.3091 2.89073 14.9316 3.16905 14.6532C3.44751 14.3749 3.82501 14.2185 4.21872 14.2185H4.76557C5.15925 14.2185 5.53678 14.3749 5.81524 14.6532C6.09356 14.9316 6.24996 15.3091 6.24996 15.7028ZM5.81524 11.7915C6.09357 11.513 6.24996 11.1355 6.24996 10.7418C6.24996 10.3481 6.09356 9.97062 5.81524 9.69216C5.53678 9.41384 5.15925 9.25746 4.76557 9.25746H4.21872C3.82501 9.25746 3.44751 9.41385 3.16905 9.69216C2.89073 9.97062 2.73434 10.3481 2.73434 10.7418C2.73434 11.1355 2.89073 11.513 3.16905 11.7915C3.44751 12.0698 3.82504 12.2262 4.21872 12.2262H4.76557C5.15928 12.2262 5.53679 12.0698 5.81524 11.7915ZM11.7578 15.7028C11.7578 16.0965 11.6014 16.474 11.3231 16.7525C11.0446 17.0308 10.6671 17.1872 10.2734 17.1872H9.72654C9.33286 17.1872 8.95533 17.0308 8.67687 16.7525C8.39855 16.474 8.24216 16.0965 8.24216 15.7028C8.24216 15.3091 8.39854 14.9316 8.67687 14.6532C8.95533 14.3749 9.33283 14.2185 9.72654 14.2185H10.2734C10.6671 14.2185 11.0446 14.3749 11.3231 14.6532C11.6014 14.9316 11.7578 15.3091 11.7578 15.7028ZM11.3231 11.7915C11.6014 11.513 11.7578 11.1355 11.7578 10.7418C11.7578 10.3481 11.6014 9.97062 11.3231 9.69216C11.0446 9.41384 10.6671 9.25746 10.2734 9.25746H9.72654C9.33283 9.25746 8.95533 9.41385 8.67687 9.69216C8.39854 9.97062 8.24216 10.3481 8.24216 10.7418C8.24216 11.1355 8.39855 11.513 8.67687 11.7915C8.95533 12.0698 9.33286 12.2262 9.72654 12.2262H10.2734C10.6671 12.2262 11.0446 12.0698 11.3231 11.7915ZM17.3827 15.7028C17.3827 16.0965 17.2263 16.474 16.948 16.7525C16.6696 17.0308 16.2921 17.1872 15.8984 17.1872H15.3515C14.9578 17.1872 14.5803 17.0308 14.3018 16.7525C14.0235 16.474 13.8671 16.0965 13.8671 15.7028C13.8671 15.3091 14.0235 14.9316 14.3018 14.6532C14.5803 14.3749 14.9578 14.2185 15.3515 14.2185H15.8984C16.292 14.2185 16.6696 14.3749 16.948 14.6532C17.2263 14.9316 17.3827 15.3091 17.3827 15.7028ZM16.948 11.7915C17.2263 11.513 17.3827 11.1355 17.3827 10.7418C17.3827 10.3481 17.2263 9.97062 16.948 9.69216C16.6696 9.41384 16.292 9.25746 15.8984 9.25746H15.3515C14.9578 9.25746 14.5803 9.41385 14.3018 9.69216C14.0235 9.97062 13.8671 10.3481 13.8671 10.7418C13.8671 11.1355 14.0235 11.513 14.3018 11.7915C14.5803 12.0698 14.9578 12.2262 15.3515 12.2262H15.8984C16.2921 12.2262 16.6696 12.0698 16.948 11.7915Z" fill="#5E7DA3"/>
</svg>
