<svg width="18" height="20" viewBox="0 0 18 20" fill="none" xmlns="http://www.w3.org/2000/svg">
<path fill-rule="evenodd" clip-rule="evenodd" d="M0 5.16604C0 1.82795 4.64939 0 8.96915 0C13.3183 0 17.9997 1.82817 18 5.16604C18 6.83854 17.2934 8.29665 16.2898 9.52791C17.2572 10.7393 17.7776 12.1649 17.7776 13.6585C17.7776 15.6381 16.8647 17.4989 15.207 18.8982C14.3366 19.6326 11.6684 20 9.00021 20C6.33195 20 3.66353 19.6327 2.79344 18.8982C1.13548 17.4988 0.222377 15.638 0.222377 13.6585C0.222377 12.1702 0.738876 10.7489 1.69971 9.54033C0.701681 8.30992 0 6.84904 0 5.16604ZM14.646 7.98627C15.2408 7.14424 15.6294 6.19929 15.6294 5.16604C15.6294 3.31031 12.1978 2.309 8.96937 2.309C4.63717 2.309 2.37054 3.74634 2.37054 5.16604C2.37054 6.20559 2.75535 7.15192 3.3446 7.99342C4.9252 6.86476 6.90602 6.24851 9.00005 6.24851C11.0897 6.24851 13.0668 6.86213 14.646 7.98627Z" fill="#5E7DA3"/>
</svg>
