<svg width="27" height="42" viewBox="0 0 27 42" fill="none" xmlns="http://www.w3.org/2000/svg">
<path fill-rule="evenodd" clip-rule="evenodd" d="M10.5037 3.46657H21.7481C24.6441 3.46657 27 5.79925 27 8.66658C27 10.0033 26.474 11.2112 25.6339 12.1333C26.4741 13.0553 27 14.2632 27 15.5999C27 16.9367 26.474 18.1446 25.6339 19.0666C26.4741 19.9886 27 21.1965 27 22.5333C27 25.4006 24.6441 27.7333 21.7481 27.7333H10.5037V28.2314L12.2986 30.3785C12.6972 30.7082 12.9277 31.1953 12.9277 31.7098V40.2667C12.9277 41.2239 12.1446 42 11.1771 42H4.17459C3.20705 42 2.42397 41.2239 2.42397 40.2667V35.7685L0.629134 33.6214C0.230552 33.2918 0 32.8047 0 32.2901V3.46667C0 1.55495 1.57126 0 3.50125 0H7.00249C8.91318 0 10.4723 1.52401 10.5033 3.40943L10.5037 3.46657ZM23.4988 8.66658C23.4988 7.71093 22.7141 6.93325 21.7481 6.93325H10.5037V10.3999H21.7481C22.7141 10.3999 23.4988 9.62224 23.4988 8.66658ZM21.7481 13.8666C22.7141 13.8666 23.4988 14.6443 23.4988 15.5999C23.4988 16.5556 22.7141 17.3333 21.7481 17.3333H10.5037V13.8666H21.7481ZM21.7481 24.2666C22.7141 24.2666 23.4988 23.4889 23.4988 22.5333C23.4988 21.5776 22.7141 20.7999 21.7481 20.7999H10.5037V24.2666H21.7481ZM5.29608 33.6259L3.50125 31.4788V3.46426L7.00249 3.46697V29.0436C7.00249 29.5586 7.23305 30.0457 7.63163 30.3749L9.42646 32.522V38.5337H5.92521V34.9572C5.92521 34.4423 5.69466 33.9552 5.29608 33.6259Z" fill="#F3850C"/>
</svg>
