<svg width="31" height="40" viewBox="0 0 31 40" fill="none" xmlns="http://www.w3.org/2000/svg">
<path fill-rule="evenodd" clip-rule="evenodd" d="M4.64978 0H26.3496C28.9845 0 30.9994 1.99999 30.9994 4.61547L31 35.3845C31 38 28.985 40 26.3499 40H4.65006C2.01498 40 0 38 0 35.3845V4.61547C0 1.99999 2.01498 0 4.64978 0ZM3.09968 7.69209V35.384L3.09976 35.384C3.09976 36.3072 3.71986 36.9225 4.64978 36.9225H21.6994C22.6293 36.9225 23.2494 36.307 23.2494 35.384V9.23058C23.2494 8.3076 22.6293 7.69209 21.6994 7.69209H3.09968ZM27.8997 35.384C27.8997 36.307 27.2796 36.9225 26.3497 36.9225H26.0397L26.0403 36.9206C26.195 36.4598 26.3497 35.9987 26.3497 35.384V9.23065C26.3497 6.61517 24.3347 4.61518 21.6997 4.61518L3.09997 4.61546C3.09997 3.69247 3.7201 3.07697 4.64999 3.07697H26.3499C27.2798 3.07697 27.8999 3.69248 27.8999 4.61546L27.8997 35.384ZM13.1746 10.7692C9.29977 10.7692 6.19973 13.8462 6.19973 17.6922C6.19973 21.5384 9.29977 24.6154 13.1746 24.6154C17.0497 24.6154 20.1494 21.5384 20.1494 17.6924C20.1497 13.8462 17.0497 10.7692 13.1746 10.7692ZM13.1746 21.5384C11.0047 21.5384 9.29977 19.8462 9.29977 17.6922C9.29977 15.5385 11.0047 13.8462 13.1746 13.8462C15.3445 13.8462 17.0497 15.5384 17.0497 17.6924C17.0497 19.8461 15.3448 21.5384 13.1746 21.5384ZM18.5999 27.6919H7.74996C6.82005 27.6919 6.19994 28.3075 6.19994 29.2304C6.19994 30.1534 6.82007 30.7689 7.74996 30.7689H18.5999C19.5298 30.7689 20.1499 30.1534 20.1499 29.2304C20.1499 28.3075 19.5298 27.6919 18.5999 27.6919ZM7.74996 32.3076H18.5999C19.5298 32.3076 20.1499 32.9228 20.1499 33.8461C20.1499 34.7691 19.5298 35.3846 18.5999 35.3846H7.74996C6.82007 35.3846 6.19994 34.7691 6.19994 33.8461C6.19994 32.9231 6.82005 32.3076 7.74996 32.3076Z" fill="#F3850C"/>
</svg>
