<svg width="22" height="22" viewBox="0 0 22 22" fill="none" xmlns="http://www.w3.org/2000/svg">
<path fill-rule="evenodd" clip-rule="evenodd" d="M20.5632 12.5284C21.1544 12.3563 21.9988 12.098 21.9988 11.7965L22 10.4617C22 10.2031 21.9576 9.60044 21.9155 9.42837C21.8309 9.1701 21.0287 8.99803 20.5221 8.91184C20.4375 8.39537 20.3109 7.92177 20.1842 7.49113L20.2078 7.46473C20.6248 6.99693 21.1098 6.45299 20.9441 6.19951C20.7751 5.94127 20.3951 5.2953 20.2685 5.03704C20.1418 4.82169 19.8464 4.34812 19.6352 4.1328C19.4662 3.96072 18.8329 4.17604 18.3684 4.34812L18.2599 4.22508C17.9304 3.85105 17.66 3.54406 17.3549 3.27183C17.4816 2.6262 17.5661 2.10938 17.3128 1.9373C17.0595 1.76493 16.426 1.37754 16.1727 1.24841L16.1677 1.24587C15.9125 1.11593 15.4109 0.86045 15.1592 0.774822C14.9481 0.688603 14.5681 1.11927 14.2303 1.50666C14.1036 1.46372 13.9346 1.42047 13.7658 1.37753C13.3858 1.2484 13.0059 1.16221 12.5835 1.11927L12.5594 1.0503C12.3592 0.477655 12.1922 0 11.9078 0H10.599C10.3035 0 9.75449 0 9.50119 0.0861879C9.24789 0.129393 9.12124 0.732132 9.03671 1.24866C8.48771 1.37779 7.9387 1.55017 7.4321 1.72224C6.96763 1.29191 6.41859 0.818327 6.16529 0.990403C5.95477 1.08242 5.57253 1.28378 5.27855 1.43865L5.27851 1.43867L5.2785 1.43868L5.27848 1.43869L5.27838 1.43874C5.15989 1.50116 5.05576 1.55602 4.983 1.59311C4.72938 1.72224 4.30732 2.06669 4.09613 2.28201C3.93899 2.40206 4.07398 2.85675 4.1955 3.2661L4.1955 3.2661L4.22279 3.3583C4.05372 3.48743 3.92707 3.61656 3.80042 3.74569L3.80042 3.74569C3.50468 4.09015 3.25138 4.39135 2.99808 4.7358C2.40693 4.60667 1.90004 4.52048 1.73127 4.77875C1.56221 5.03698 1.18226 5.68296 1.05561 5.94122L1.05312 5.9463L1.05311 5.94631C0.925657 6.20649 0.675101 6.71796 0.591121 6.97454C0.552108 7.21214 0.977086 7.59483 1.34109 7.92262L1.43554 8.00785C1.351 8.26615 1.26677 8.5244 1.18223 8.82591C1.098 9.12744 1.05558 9.42864 1.01346 9.73015C0.464485 9.90222 0 10.0743 0 10.3758V11.7103C0 12.0115 0 12.5713 0.084532 12.8296C0.169056 13.0449 0.886813 13.217 1.39342 13.3032C1.52007 13.8196 1.68913 14.3365 1.8579 14.7239C1.43551 15.1542 0.886791 15.8001 1.05556 16.0584C1.22462 16.3166 1.60457 16.9626 1.73122 17.2209C1.85786 17.4362 2.15329 17.9098 2.36447 18.1251C2.50645 18.2699 3.12696 18.049 3.62199 17.8728C3.71532 17.8396 3.80419 17.808 3.88455 17.7807C4.22242 18.1251 4.60236 18.4693 4.98231 18.7708C4.85566 19.3738 4.72901 20.0194 4.98231 20.1486C5.23559 20.3209 5.86915 20.7083 6.12245 20.8375L6.12747 20.84C6.38266 20.97 6.88427 21.2254 7.13592 21.3111C7.34704 21.3543 7.81155 20.8375 8.14938 20.4501C8.27603 20.4933 8.40268 20.5363 8.52933 20.5363C8.82991 20.6042 9.13048 20.6455 9.38936 20.681L9.38988 20.6811C9.45805 20.6905 9.52333 20.6994 9.58495 20.7084C9.75372 21.3111 10.007 21.9138 10.3027 21.9138C10.4773 21.9138 10.7307 21.9368 10.9756 21.9591H10.9756H10.9757L10.9757 21.9591C11.2049 21.9799 11.4266 22 11.5695 22C11.865 22 12.4985 21.9141 12.7518 21.8279C13.0051 21.7417 13.1739 20.9666 13.2584 20.4501C13.5963 20.3639 13.9338 20.278 14.3562 20.1919C14.4407 20.1919 14.525 20.1919 14.6095 20.1489C14.707 20.2483 14.8001 20.3546 14.8917 20.4593L14.8918 20.4593C15.1969 20.808 15.4867 21.139 15.8763 21.139C16.0663 21.1112 16.3783 20.888 16.6443 20.6978L16.6443 20.6977L16.6445 20.6976C16.7923 20.5918 16.9259 20.4963 17.0164 20.4501C17.2697 20.321 17.7342 20.0198 17.9454 19.8045C18.1329 19.6132 17.9207 18.9805 17.7526 18.4795L17.7525 18.479C17.7313 18.4161 17.7109 18.3552 17.6921 18.2975C17.9875 17.996 18.2832 17.6516 18.5365 17.2642C18.6285 17.2829 18.7231 17.3035 18.8182 17.3242C19.3781 17.4459 19.9545 17.5711 20.0987 17.3504C20.2678 17.0922 20.6477 16.4462 20.7744 16.1879L20.7768 16.1829C20.9043 15.9228 21.1549 15.4112 21.2389 15.1546C21.2741 14.9748 20.837 14.5838 20.4459 14.2341L20.4457 14.2339L20.4457 14.2339C20.3692 14.1655 20.2945 14.0987 20.2254 14.0353L20.2256 14.0348L20.2256 14.0348C20.3522 13.5613 20.4787 13.0879 20.5632 12.5284ZM12.6256 1.11985H12.7102C12.8368 0.689211 12.4569 0.560087 12.6256 1.11985ZM11.1052 6.58718C11.5275 6.71626 11.823 7.36195 11.6542 7.83552C11.4853 8.3091 11.1054 8.61061 10.5561 8.39529C10.0074 8.18026 9.71168 7.79259 9.92286 7.14694C10.1762 6.45805 10.7252 6.45805 11.1052 6.58718ZM8.57185 9.34212C8.61396 8.73941 8.27613 8.43788 7.7695 8.39498C7.2629 8.35204 6.75604 8.82562 6.71389 9.25594C6.62936 9.64333 6.79842 10.2031 7.51623 10.246C8.19189 10.2893 8.5297 9.94485 8.57185 9.34212ZM9.88073 14.7239C9.88073 14.078 10.1762 13.6906 10.8518 13.6906C11.5699 13.6906 11.7387 14.2071 11.7387 14.6377C11.7387 15.0683 11.2742 15.5848 10.7676 15.5848C10.2607 15.5848 9.88073 15.3266 9.88073 14.7239ZM13.9765 10.0743C14.4831 10.0743 14.9476 9.55777 14.9476 9.12716C14.9476 8.69656 14.7364 8.18003 14.0607 8.18003C13.3851 8.18003 13.0896 8.56742 13.0896 9.21335C13.0896 9.81605 13.4696 10.0743 13.9765 10.0743ZM13.892 13.9491C13.3854 13.9062 13.0475 13.6047 13.0897 13.002C13.1318 12.3992 13.4696 12.0548 14.1453 12.098C14.8631 12.1839 14.9897 12.7008 14.9476 13.0881C14.9055 13.5185 14.3986 13.992 13.892 13.9491ZM7.8116 12.1839C7.305 12.1839 6.84051 12.7004 6.84051 13.1311C6.84051 13.5617 7.05169 14.0782 7.72738 14.0782C8.40304 14.0782 8.69847 13.6908 8.69847 13.0449C8.69847 12.4422 8.31851 12.1839 7.8116 12.1839ZM14.2296 6.15684C12.794 5.2526 11.4005 4.9085 10.894 4.9085C9.41597 4.9085 8.31828 5.46826 7.26267 6.24302C6.29377 6.95414 5.85833 7.77435 5.63031 8.20385L5.63028 8.20389C5.60989 8.24231 5.59115 8.27761 5.57383 8.30942C5.36265 8.69682 5.06723 9.7731 5.06723 10.7202C5.06723 11.6124 5.47941 13.0014 5.63307 13.5193L5.63308 13.5193L5.65836 13.6047C5.82713 14.0353 6.88272 15.6711 8.57193 16.36C9.95231 16.9231 11.1637 16.7382 11.8829 16.6285C12.0437 16.6039 12.1798 16.5832 12.2878 16.5753C12.8789 16.5753 14.6102 15.9726 15.8345 13.9921C17.0589 12.0115 16.5523 9.60073 16.0878 8.48146C15.623 7.36221 14.9898 6.63041 14.2296 6.15684ZM9.20484 11.0647C9.20484 10.1175 9.83836 9.42861 10.8095 9.42861C11.6963 9.42861 12.4141 10.0745 12.4141 11.0647C12.4141 11.9689 11.8229 12.7007 10.8095 12.7007C9.71145 12.7007 9.20484 11.9689 9.20484 11.0647Z" fill="#5E7DA3"/>
</svg>
