<svg width="22" height="17" viewBox="0 0 22 17" fill="none" xmlns="http://www.w3.org/2000/svg">
<path d="M3.80081 10.7845C3.80081 10.8279 3.80081 10.8649 3.80715 10.902V11.6929C3.80715 14.3435 5.99304 16.5 8.6798 16.5C11.3666 16.5 13.5522 14.3435 13.5522 11.6929V8.05352C13.5522 7.3924 14.097 6.84866 14.7735 6.84866H16.1514L15.5252 7.46649C15.2183 7.76926 15.068 8.16468 15.068 8.56013C15.068 8.95557 15.2183 9.35101 15.5252 9.65377C16.139 10.2593 17.1285 10.2593 17.7423 9.65377L21.0428 6.39761C21.3373 6.10712 21.5 5.71795 21.5 5.30397C21.5 4.89625 21.3373 4.50079 21.0428 4.21033L17.7423 0.95418C17.1285 0.348607 16.139 0.348607 15.5252 0.95418C14.9114 1.55975 14.9114 2.53594 15.5252 3.14146L16.1577 3.76552L14.7798 3.76552C12.3812 3.76552 10.4271 5.69335 10.4271 8.05976V11.6991C10.4271 12.6445 9.64419 13.4169 8.6859 13.4169C7.72761 13.4169 6.94473 12.6445 6.94473 11.6991V10.4695C6.94473 10.4262 6.94473 10.3891 6.9384 10.352V6.23686C6.9384 3.58623 4.75251 1.42973 2.06574 1.42973C1.2014 1.42973 0.5 2.1217 0.5 2.97442C0.5 3.82714 1.2014 4.51911 2.06574 4.51911C3.01789 4.51308 3.80076 5.28544 3.80076 6.23079L3.80081 10.7845Z" fill="#5E7DA3"/>
</svg>
