<svg width="20" height="16" viewBox="0 0 20 16" fill="none" xmlns="http://www.w3.org/2000/svg">
<path fill-rule="evenodd" clip-rule="evenodd" d="M10.8333 10.3269V5.67313C10.8333 4.27788 11.9526 3.14681 13.3333 3.14681H20V2.52632C20 1.13107 18.8807 0 17.5 0H2.5C1.11929 0 0 1.13107 0 2.52632V13.4737C0 14.8689 1.11929 16 2.5 16H17.5C18.8807 16 20 14.8689 20 13.4737V12.8532H13.3333C11.9526 12.8532 10.8333 11.7221 10.8333 10.3269ZM19.1667 4.83103H13.3333C12.8731 4.83103 12.5 5.20805 12.5 5.67313V10.3269C12.5 10.792 12.8731 11.169 13.3333 11.169H19.1667C19.6269 11.169 20 10.792 20 10.3269V5.67313C20 5.20805 19.6269 4.83103 19.1667 4.83103ZM15.4167 9.26316C14.7263 9.26316 14.1667 8.69762 14.1667 8C14.1667 7.30238 14.7263 6.73684 15.4167 6.73684C16.107 6.73684 16.6667 7.30238 16.6667 8C16.6667 8.69762 16.107 9.26316 15.4167 9.26316Z" fill="#5E7DA3"/>
</svg>
