<svg width="53" height="35" viewBox="0 0 53 35" fill="none" xmlns="http://www.w3.org/2000/svg">
<path fill-rule="evenodd" clip-rule="evenodd" d="M11.1516 31.3443V26.6949L5 35H1.95254C1.13738 35 0.664696 34.0771 1.14108 33.4156L24.6108 0.827485C24.9752 0.308993 25.5687 0.00033953 26.2026 0H26.767C27.4008 0.000339009 27.9944 0.308993 28.3587 0.827485L51.8572 33.4151C52.3341 34.0765 51.8615 35 51.046 35H48L41.8186 26.6949V31.3443C41.8186 31.8604 41.6135 32.3558 41.2485 32.7209C40.8831 33.0862 40.388 33.2913 39.8716 33.2913H13.0986C12.5821 33.2913 12.0871 33.0862 11.7217 32.7209C11.3567 32.3559 11.1516 31.8604 11.1516 31.3443ZM24.5382 7.69067L15.0459 21.165L15.0457 29.3971H20.4442V24.4604C20.4506 23.2044 20.8486 21.9813 21.582 20.9613C22.3158 19.9417 23.349 19.1756 24.5382 18.7702V7.69067ZM28.6324 29.3874H24.3387V24.4602C24.3387 23.6935 24.7478 22.9848 25.412 22.6011C26.0762 22.2178 26.8946 22.2178 27.5587 22.6011C28.2228 22.9848 28.632 23.6934 28.632 24.4602L28.6324 29.3874ZM32.5262 29.3874H37.9247L37.9244 21.1648L28.4322 7.6905V18.77C29.6213 19.1754 30.6546 19.9415 31.3883 20.9611C32.1218 21.9811 32.5197 23.2042 32.5262 24.4602V29.3874Z" fill="#F3850C"/>
</svg>
