<svg width="29" height="38" viewBox="0 0 29 38" fill="none" xmlns="http://www.w3.org/2000/svg">
<path fill-rule="evenodd" clip-rule="evenodd" d="M27.1876 26.2186C27.1876 24.2956 26.4236 22.4516 25.0642 21.0919C23.7044 19.7325 21.8605 18.9686 19.9375 18.9686H16.7657V3.62499H17.6719C18.3195 3.62499 18.9178 3.27953 19.2415 2.7185C19.5654 2.15779 19.5654 1.46683 19.2415 0.906168C18.9178 0.345451 18.3194 0 17.6719 0H16.3124C15.4713 0 14.6644 0.33409 14.0695 0.928905C13.4747 1.52376 13.1406 2.33035 13.1406 3.17179H4.53124C3.81027 3.17179 3.1187 3.45816 2.60885 3.96798C2.09871 4.47781 1.81234 5.1694 1.81234 5.89068V27.5782C1.1647 27.5782 0.566407 27.9236 0.242746 28.4846C-0.0809153 29.0454 -0.0809153 29.7363 0.242746 30.297C0.566407 30.8576 1.16478 31.2032 1.81234 31.2032V35.2814C1.81234 36.0024 2.09871 36.694 2.60885 37.2038C3.11868 37.7136 3.81028 38 4.53124 38H24.4688C25.1897 38 25.8813 37.7136 26.3911 37.2038C26.9013 36.694 27.1877 36.0024 27.1877 35.2814V31.2032C27.8353 31.2032 28.4336 30.8577 28.7573 30.297C29.0809 29.7363 29.0809 29.0453 28.7573 28.4846C28.4336 27.9236 27.8352 27.5782 27.1877 27.5782L27.1876 26.2186ZM9.06257 34.3746H5.43749V31.2028H9.06257V34.3746ZM12.6877 34.3746H16.3127V31.2028H12.6877V34.3746ZM23.5629 34.3746H19.9375V31.2028H23.5626L23.5629 34.3746ZM5.43789 27.5778H23.5629L23.563 26.2185C23.563 25.257 23.1812 24.335 22.5013 23.6551C21.8213 22.9753 20.8994 22.5934 19.9379 22.5934H14.9537C14.4729 22.5934 14.0117 22.4025 13.672 22.0624C13.3319 21.7227 13.1409 21.2615 13.1409 20.7807V6.79654H5.43789V27.5778Z" fill="#F3850C"/>
</svg>
