<svg width="20" height="17" viewBox="0 0 20 17" fill="none" xmlns="http://www.w3.org/2000/svg">
<path d="M1.96228 1.72506e-07C1.76572 -0.000184511 0 0.740576 0 0.998655L0 15.9785C0 16.3847 0.172641 16.6891 0 16.9771C0.733027 17.0183 2.05946 17.0183 2.33964 16.8537C2.61983 16.6891 2.79248 16.3847 2.79248 16.0553V9.06473H10.9435V9.98657C10.9435 10.231 11.0389 10.4656 11.2087 10.6384C11.3785 10.8113 11.609 10.9084 11.8492 10.9084H19.0945C19.3092 10.9084 19.517 10.8306 19.6806 10.6893C19.8443 10.5477 19.9533 10.3516 19.988 10.1359C20.0228 9.9203 19.9812 9.6991 19.8706 9.51184L17.4336 6.37604L19.8708 3.24024C19.9812 3.05299 20.0228 2.83179 19.988 2.61613C19.9533 2.40046 19.8443 2.20439 19.6806 2.06281C19.517 1.92145 19.3092 1.84367 19.0945 1.84367H10.9435V0.921835C10.9435 0.677386 10.8481 0.442808 10.6783 0.269966C10.5085 0.0971247 10.278 1.72506e-07 10.0378 1.72506e-07H1.96228Z" fill="#5E7DA3"/>
</svg>
