<svg width="40" height="40" viewBox="0 0 40 40" fill="none" xmlns="http://www.w3.org/2000/svg">
<path fill-rule="evenodd" clip-rule="evenodd" d="M30.5 0C25.2706 0 21 4.25317 21 9.48566C21 14.7182 25.2689 18.9996 30.5 18.9996C35.7311 18.9996 40 14.718 40 9.48566C40 4.25334 35.7295 0 30.5 0ZM30.766 3.10605C34.1716 3.10605 36.904 5.82438 36.904 9.23131C36.904 10.6986 36.3978 12.0509 35.5485 13.1058L26.904 4.4615C27.9566 3.61524 29.299 3.10605 30.7658 3.10605H30.766ZM33.8065 15.2531L24.7803 6.21518L24.7803 6.21587C24.2911 7.14435 24.0028 8.19932 24.0028 9.33025C24.0028 13.0346 26.9715 16.0179 30.6682 16.0179C31.8056 16.0179 32.8721 15.7522 33.8065 15.2531ZM8.21439 7.17469C6.80749 7.237 5.45613 7.78169 4.39558 8.84314L1.72938 11.5127C-0.856177 14.1006 -0.406335 18.3838 2.17365 20.9672L19.0594 37.8748C21.6226 40.4411 25.585 40.7958 28.0578 38.3197L30.724 35.6501C33.2684 33.1027 32.9075 28.8267 30.2797 26.1956L13.394 9.28881C12.0848 7.97804 10.4435 7.26226 8.82558 7.17544C8.62345 7.16459 8.41543 7.16645 8.21454 7.17544L8.21439 7.17469ZM8.88326 10.3904C8.77666 10.3836 8.67415 10.3858 8.56931 10.3904L8.56957 10.391C7.83531 10.4222 7.14346 10.7258 6.56812 11.2916L4.05646 13.7751C2.74222 15.0671 2.92069 17.4962 4.47498 19.0252L11.9574 26.3857L19.1784 19.2825L11.4866 11.7031C10.6335 10.8639 9.73573 10.4452 8.88326 10.3904ZM8.05456 12.0008C7.75322 12.0117 7.46428 12.1242 7.23519 12.3208C6.23844 13.164 5.56979 13.9737 5.22162 14.8929C4.87377 15.8121 4.95748 16.8324 5.31897 17.6043C5.89368 18.8313 6.87942 19.6391 7.83172 20.4195C8.07737 20.6208 8.3208 20.8203 8.55437 21.0247V21.0244C8.9143 21.3375 9.41342 21.4345 9.86389 21.2789C10.3144 21.1236 10.6479 20.7392 10.7387 20.2711C10.8296 19.8027 10.6637 19.3212 10.3041 19.0084L10.2197 18.9346C9.01299 17.8793 7.97129 16.9682 7.73527 16.4641C7.61437 16.2062 7.59762 16.129 7.70737 15.8385C7.81743 15.548 8.16496 15.0349 8.95705 14.3647V14.3644C9.2463 14.1257 9.42178 13.7763 9.44037 13.4018C9.45928 13.027 9.31978 12.6618 9.05594 12.3952C8.79243 12.1285 8.42877 11.9856 8.05459 12.0008L8.05456 12.0008ZM27.6158 28.2534L21.5912 22.3235L14.8315 28.9751L21.0521 35.0851C22.6052 36.6105 24.3924 36.7117 25.6565 35.47L28.0076 33.1606C29.2086 31.9811 29.1121 29.723 27.6158 28.2534Z" fill="#F3850C"/>
</svg>
