<svg width="51" height="37" viewBox="0 0 51 37" fill="none" xmlns="http://www.w3.org/2000/svg">
<path fill-rule="evenodd" clip-rule="evenodd" d="M14.7929 6.70343L17.1185 5.11519C17.3999 4.37455 20.6636 0 24.9929 0C29.6802 0 32.6693 4.39653 32.9552 5.1406L35.2072 6.70343C39.0351 8.10587 41.0636 11.559 41.0636 11.559C41.1707 11.7312 50.9488 32.7481 50.9488 32.7481C51.187 33.7553 50.5709 34.784 49.5792 35.0342L41.0749 36.9419C40.1129 37.1819 39.1213 36.6101 38.8329 35.6501L34.9983 25.0525V35.1039C34.9945 36.1407 34.1536 36.9933 33.1305 36.9972H16.8694C15.8464 36.9932 15.005 36.1406 15.0017 35.1039V25.0525L11.1671 35.6501C10.8782 36.6174 9.87695 37.1909 8.91086 36.9419L1.42076 35.0342C0.429158 34.7839 -0.186998 33.7552 0.0511809 32.7481C0.0511809 32.7481 8.82764 11.7303 8.94024 11.559C8.94024 11.559 10.9649 8.10587 14.7929 6.70343ZM29.4496 6.63348L29.4538 6.60711C29.4136 6.40978 28.8585 3.8043 24.9929 3.8043C21.1535 3.8043 20.6749 6.34371 20.6317 6.57299L20.6309 6.57735L20.6348 6.60023C20.6958 6.96145 21.2747 10.3932 25.0767 10.3932C28.8659 10.3932 29.391 7.01052 29.4496 6.63348ZM17.5652 8.99746C17.5882 9.04163 17.62 9.10866 17.6608 9.19481C18.1315 10.1884 19.8072 13.7257 23.1249 14.0825V33.1967H18.7523V18.4911C18.7444 17.4543 17.9005 16.6055 16.8775 16.6055C16.0571 16.6055 15.3279 17.151 15.0855 17.9456L8.10859 32.8185L4.13498 31.8084L12.2329 13.4804L12.2383 13.4725C12.3851 13.2586 13.8779 11.0833 16.0675 10.281L17.5652 8.99746ZM37.7633 13.4748C37.6231 13.2717 36.1142 11.086 33.9183 10.2816L32.5231 9.03086C32.5019 9.0721 32.4726 9.13412 32.4351 9.21368C31.9772 10.185 30.2865 13.7716 26.8756 14.1049V33.1974H31.2481V18.4918C31.2494 17.4503 32.0953 16.5938 33.123 16.5938C33.9476 16.5938 34.6801 17.1457 34.9183 17.9462L41.9995 32.7481L46.4995 31.4167L37.7676 13.481L37.7633 13.4748Z" fill="#F3850C"/>
</svg>
