<svg width="24" height="24" viewBox="0 0 24 24" fill="none" xmlns="http://www.w3.org/2000/svg">
<path fill-rule="evenodd" clip-rule="evenodd" d="M24 13.5041V6.00709C24 5.5197 23.775 5.10737 23.3999 4.80742L17.3998 0.309263C16.8749 -0.103088 16.1249 -0.103088 15.5999 0.309263L9.59982 4.80742C9.22471 5.10734 8.99976 5.51971 8.99976 6.00709V13.5041C8.99976 14.3288 9.67462 15.0034 10.4996 15.0034H22.4996C23.3251 15.0037 23.9999 14.3288 23.9999 13.5041H24ZM21 12.0049H17.9999L18.0002 7.5067H15.0001V12.0049H12.0001V6.75706L16.5 3.38352L20.9999 6.75706L21 12.0049ZM6.0001 12.0048V9.00591C2.70025 9.00591 0.000261561 11.7049 0 15.0034C0 18.3022 2.70005 21.0012 6.0001 21.0012L13.5001 21.0014C14.3251 21.0014 14.9999 21.6761 14.9999 22.5007V24H18V22.5007C18 20.0266 15.9751 18.0026 13.5001 18.0026H6.0001C4.35004 18.0026 3.00005 16.6531 3.00005 15.0037C3.00005 13.3543 4.35004 12.0048 6.0001 12.0048Z" fill="#5E7DA3"/>
</svg>
