<svg width="40" height="35" viewBox="0 0 40 35" fill="none" xmlns="http://www.w3.org/2000/svg">
<path fill-rule="evenodd" clip-rule="evenodd" d="M20.0584 0H20.3834L20.3866 0.00328814L20.6522 0.00919583L20.9416 0.0197508C30.4744 0.435976 38.4571 7.56084 39.89 17.0387L40 17.7665L39.8334 17.7943L39.8221 17.8305C39.6384 18.3968 39.1673 18.8514 38.5477 18.988L23.7872 22.2426L24.1941 22.3465C25.3373 22.6614 26.2232 23.1173 26.931 23.8462C27.9041 24.8482 28.4089 26.2763 28.4089 28.1962L28.4086 32.6349C28.3933 33.5802 27.6222 34.3416 26.6734 34.3416H5.96032L5.96035 34.1702L5.91182 34.1462C5.74009 34.0575 5.5821 33.9393 5.44544 33.794C1.95135 30.0794 0 25.179 0 20.0584C0 8.9809 8.9809 0 20.0584 0ZM25.2617 4.30185C23.6005 3.75411 21.8501 3.47064 20.0587 3.47064C11.0042 3.47064 3.64447 10.7251 3.47454 19.739L3.47198 20.1813L3.4803 20.6037C3.59775 24.2568 4.89287 27.7075 7.18458 30.5202L7.4776 30.8698H24.9385L24.9383 28.1512L24.932 27.9325C24.8849 27.0133 24.5817 26.4598 24.0303 26.0914C23.5745 25.7869 23.0477 25.6205 21.9719 25.4151L20.848 25.2071C20.1701 25.0744 19.7478 24.9633 19.3263 24.7952L19.088 24.6942L18.8631 24.5854C18.3523 24.3202 17.9393 23.9749 17.6321 23.5327L17.5044 23.3327L17.4251 23.3274L17.2017 23.3054C14.8346 23.0178 12.975 21.0581 12.8676 18.6267L12.8627 18.4042L12.8634 18.3225L12.8723 18.0942C13.0176 15.7485 14.8009 13.846 17.0922 13.5169L17.3326 13.4884L17.344 13.4662L17.864 13.4666L18.1165 13.4761C18.368 13.4921 18.6163 13.527 18.8599 13.5803L19.1247 13.6461L25.8003 4.48981L25.2617 4.30185ZM17.8004 16.937C18.6109 16.937 19.2676 17.5939 19.2676 18.4042C19.2676 19.2145 18.6109 19.8714 17.8004 19.8714C16.99 19.8714 16.3333 19.2145 16.3333 18.4042C16.3333 17.5941 16.9904 16.937 17.8004 16.937ZM28.9475 6.04877L21.9223 15.6844L22.088 15.9534C22.4627 16.6078 22.685 17.3445 22.7298 18.1141L22.7382 18.4042V18.4691L22.728 18.7227L22.7101 18.9334L36.139 15.9721L36.001 15.4614C34.9241 11.7175 32.5504 8.46983 29.3245 6.29551L28.9475 6.04877Z" fill="#F3850C"/>
</svg>
