<svg width="40" height="36" viewBox="0 0 40 36" fill="none" xmlns="http://www.w3.org/2000/svg">
<path fill-rule="evenodd" clip-rule="evenodd" d="M16 0C12.6862 0 9.99989 2.68629 9.99989 6H7.99997V4.00011C7.99997 2.89551 7.10467 1.99989 6.00006 1.99989C4.89544 1.99989 3.9998 2.89551 3.9998 4.00011V6C3.9998 6.11317 4.00918 6.224 4.02726 6.33181C1.68251 7.14776 0 9.37732 0 12V30C0 33.3137 2.68632 36 6.00009 36H33.9999C37.314 36 40 33.3137 40 30V12C40 8.68629 37.314 6.00001 33.9999 6.00001H30.0001C30.0001 2.68629 27.3138 8.57143e-06 24 8.57143e-06L16 0ZM14.0001 6C14.0001 4.8954 14.8954 4.00011 16 4.00011H24.0003C25.1049 4.00011 26.0002 4.8954 26.0002 6V7.99988C26.0002 9.10448 26.8955 10.0001 28.0001 10.0001H34.0002C35.1048 10.0001 36.0005 10.8954 36.0005 12V30C36.0005 31.1046 35.1048 31.9999 34.0002 31.9999H6.0004C4.89579 31.9999 4.00014 31.1046 4.00014 30V12C4.00014 10.8954 4.89579 10.0001 6.0004 10.0001H12.0005C13.1051 10.0001 14.0004 9.10448 14.0004 7.99988L14.0001 6ZM34.0002 13.9997C34.0002 15.1043 33.1049 15.9999 32.0003 15.9999C30.8957 15.9999 30.0004 15.1043 30.0004 13.9997C30.0004 12.8951 30.8957 11.9998 32.0003 11.9998C33.1049 11.9998 34.0002 12.8951 34.0002 13.9997ZM12.0003 19.9999C12.0003 15.5819 15.5819 12 20.0003 12C24.4187 12 28.0003 15.5819 28.0003 19.9999C28.0003 24.4182 24.4187 28.0001 20.0003 28.0001C15.5819 28.0001 12.0003 24.4182 12.0003 19.9999ZM20.0003 16.0001C17.7912 16.0001 16.0001 17.7908 16.0001 19.9999C16.0001 22.209 17.7912 24 20.0003 24C22.2095 24 24.0005 22.209 24.0005 19.9999C24.0005 17.7908 22.2095 16.0001 20.0003 16.0001Z" fill="#F3850C"/>
</svg>
