<svg width="22" height="22" viewBox="0 0 22 22" fill="none" xmlns="http://www.w3.org/2000/svg">
<path fill-rule="evenodd" clip-rule="evenodd" d="M6.41575 0H15.5824C19.1208 0 22 2.87833 22 6.41575V15.5824C22 19.1208 19.1217 22 15.5843 22H6.41758C2.87925 22 0 19.1217 0 15.5843V6.41758C0 2.87925 2.87833 0 6.41575 0ZM5.5 11C5.5 14.0332 7.96675 16.5 11 16.5C14.0332 16.5 16.5 14.0332 16.5 11C16.5 7.96675 14.0332 5.5 11 5.5C7.96675 5.5 5.5 7.96675 5.5 11ZM18.4167 6.5C17.3587 6.5 16.5 5.64133 16.5 4.58333C16.5 3.52533 17.3587 2.66667 18.4167 2.66667C19.4747 2.66667 20.3333 3.52533 20.3333 4.58333C20.3333 5.64133 19.4747 6.5 18.4167 6.5ZM11 14.6667C13.025 14.6667 14.6667 13.025 14.6667 11C14.6667 8.97496 13.025 7.33333 11 7.33333C8.97496 7.33333 7.33333 8.97496 7.33333 11C7.33333 13.025 8.97496 14.6667 11 14.6667Z" fill="#ABB6CB"/>
</svg>
