<svg width="485" height="284" viewBox="0 0 485 284" fill="none" xmlns="http://www.w3.org/2000/svg">
<path fill-rule="evenodd" clip-rule="evenodd" d="M34.0346 73.7103C34.0268 78.0376 32.8794 79.1437 28.5416 79.1555C24.0386 79.1673 22.6883 77.9549 22.6831 73.6526C22.6684 60.6248 22.6691 47.5964 22.6697 34.5683C22.6701 27.8135 22.6704 21.0588 22.6687 14.3043C22.6673 10.49 22.48 10.2827 18.6045 10.284C17.9706 10.2844 17.3918 10.2801 16.8635 10.2763C14.1183 10.2563 12.7337 10.2462 12.0394 10.9335C11.3328 11.633 11.3413 13.0547 11.3583 15.9234V15.9234C11.3612 16.4121 11.3643 16.9427 11.3642 17.5189C11.3635 22.6438 11.352 27.7688 11.3405 32.8938V32.8939V32.894V32.8941V32.8941V32.8942V32.8943V32.8944V32.8945V32.8945V32.8946V32.8947V32.8948V32.8949V32.8949V32.895V32.8951V32.8952V32.8953V32.8953V32.8954V32.8955C11.3105 46.2603 11.2806 59.6251 11.4415 72.9887C11.5175 79.3011 8.55482 79.826 2.75002 78.7842C1.80045 78.6136 0.835166 77.1611 0.366276 76.0878C-0.0164119 75.2166 -0.00266064 74.1469 0.0105183 73.1216C0.0129005 72.9363 0.015264 72.7524 0.015264 72.5714C-0.0017627 50.6018 -0.000452954 28.6323 0.00478603 6.66269C0.00609578 1.02596 0.987097 0.0287756 6.57579 0.0169669C13.7558 -9.02589e-05 20.9359 -0.0132111 28.1172 0.0235273C33.0196 0.048457 34.0333 1.09944 34.0386 6.01189C34.045 13.9395 34.0437 21.8671 34.0423 29.7951V29.7954V29.7956V29.7959V29.7961V29.7963V29.7966V29.7968V29.7971V29.7973V29.7975V29.7978V29.798V29.7983V29.7985V29.7987V29.799V29.7992V29.7995V29.7997V29.7999V29.8002L34.0423 29.866C34.0417 33.1478 34.0412 36.4296 34.0412 39.7115C34.0408 43.2742 34.0418 46.8366 34.0428 50.399V50.4052V50.4054V50.4056V50.4058V50.406V50.4062V50.4064V50.4066V50.4068V50.407V50.4071V50.4073V50.4075V50.4077V50.4079V50.4081V50.4083V50.4085V50.4087V50.4089V50.4091C34.045 58.1761 34.0472 65.9426 34.0346 73.7103ZM224.776 73.0398C224.761 78.1111 223.685 79.1529 218.632 79.1542C205.162 79.1581 191.691 79.1607 178.222 79.1529C173.747 79.1489 172.552 78.0205 172.544 73.4938L172.542 72.3086C172.51 53.9054 172.478 35.5023 172.621 17.1016C172.635 15.3526 173.558 12.4844 174.708 12.1092C176.965 11.3705 179.799 11.6132 182.145 12.3007C183.069 12.5723 183.774 15.1086 183.807 16.628C183.929 22.5554 183.913 28.4843 183.896 34.413C183.891 36.4412 183.885 38.4694 183.885 40.4975C183.886 43.7546 183.886 47.0116 183.886 50.2685V50.472C183.885 54.905 183.885 59.3379 183.887 63.7713C183.888 68.8595 184.011 68.9986 188.362 69.0012C192.921 69.0052 192.98 68.9409 192.98 63.6374C192.981 58.927 192.98 54.2165 192.978 49.5061C192.976 38.7011 192.973 27.8961 192.995 17.0912C193.004 12.4464 194.31 11.2235 198.871 11.2957C203.149 11.3626 204.32 12.571 204.329 17.2355C204.339 22.9407 204.339 28.6456 204.339 34.3503C204.34 44.3604 204.34 54.3699 204.393 64.3801C204.4 65.826 204.869 68.3281 205.593 68.5118C207.706 69.0511 210.12 68.9435 212.277 68.4685C212.899 68.3321 213.368 66.0937 213.374 64.817C213.433 53.3421 213.429 41.8672 213.426 30.3917C213.424 26.948 213.423 23.5042 213.424 20.0604C213.424 19.6967 213.421 19.3329 213.419 18.969V18.9683C213.412 17.9395 213.404 16.9103 213.455 15.884C213.623 12.4923 214.904 11.3928 218.694 11.297C222.897 11.1894 224.575 12.2745 224.694 15.7541C224.827 19.6676 224.81 23.5859 224.793 27.504C224.786 29.0571 224.78 30.6103 224.782 32.1631C224.788 35.5304 224.786 38.8985 224.785 42.2661V42.2664V42.2667V42.267L224.784 43.4232L224.783 45.2918C224.783 48.0127 224.785 50.7335 224.787 53.4543V53.4545V53.4547V53.4549V53.4551V53.4553V53.4555V53.4557V53.4559V53.4561V53.4563V53.4566V53.4568V53.457V53.4572V53.4574V53.4576V53.4578V53.458V53.4582V53.4584V53.4586V53.4588V53.459C224.791 59.9867 224.795 66.5139 224.776 73.0398ZM326.302 147.076C326.302 145.157 326.311 143.239 326.32 141.32V141.317C326.342 136.676 326.364 132.034 326.257 127.396C326.18 124.037 324.619 123.05 320.468 123.122C316.59 123.19 315.183 124.227 315.162 127.579C315.088 140.401 315.088 153.225 315.192 166.048C315.202 167.29 315.919 169.422 316.667 169.595C319.075 170.15 321.791 170.492 324.097 169.865C325.187 169.569 326.184 166.897 326.252 165.262C326.435 160.866 326.404 156.461 326.374 152.055V152.053C326.363 150.394 326.351 148.735 326.351 147.076H326.302ZM284.403 118.924C284.423 113.654 288.832 110.949 293.549 113.554C294.692 114.188 295.563 116.253 295.635 117.705C295.809 121.223 295.788 124.751 295.768 128.28V128.28V128.28C295.758 129.923 295.748 131.565 295.758 133.207C295.779 136.921 296.125 137.231 299.906 137.214C303.346 137.2 303.711 136.815 303.76 133.189C303.772 132.234 303.774 131.278 303.777 130.322C303.782 128.095 303.787 125.869 303.923 123.651C304.305 117.504 307.665 113.818 313.778 113.321C318.224 112.961 322.748 112.912 327.192 113.274C333.928 113.823 337.222 117.264 337.484 124.091C337.734 130.609 337.722 137.138 337.71 143.666C337.707 145.191 337.704 146.715 337.704 148.239C337.705 149.417 337.707 150.595 337.71 151.774V151.774V151.774V151.775V151.775V151.775C337.722 157.753 337.735 163.734 337.483 169.701C337.209 176.233 334.175 179.762 327.727 180.441C322.82 180.956 317.745 180.847 312.848 180.219C307.069 179.478 304.168 175.896 303.938 170.021C303.773 165.827 303.773 161.625 303.773 157.424C303.774 155.462 303.774 153.5 303.757 151.538C303.726 147.793 300.278 145.743 297.076 147.779C296.259 148.299 295.824 149.96 295.809 151.104C295.701 158.857 295.606 166.615 295.794 174.363C295.954 180.966 293.275 181.194 287.591 180.59C285.022 180.317 284.437 178.112 284.416 175.881C284.384 172.436 284.387 168.991 284.391 165.546C284.392 164.22 284.393 162.894 284.392 161.568C284.392 158.321 284.392 155.074 284.392 151.827C284.392 150.203 284.392 148.579 284.392 146.955C284.393 144.069 284.391 141.183 284.388 138.296V138.276C284.383 131.826 284.378 125.375 284.403 118.924ZM133.291 134.376C133.527 137.924 133.762 141.472 134.05 145.017L134.066 145.213C134.296 148.04 134.41 149.454 133.759 150.161C133.107 150.868 131.687 150.867 128.847 150.866H128.832C123.897 150.863 123.885 150.863 124.227 145.846C124.871 136.437 125.521 127.028 126.19 117.622C126.201 117.461 126.211 117.297 126.22 117.132L126.22 117.131L126.22 117.131V117.131C126.267 116.28 126.317 115.39 126.701 114.714C127.116 113.983 127.746 113.374 128.376 112.764C128.646 112.503 128.917 112.241 129.171 111.969C129.427 112.231 129.739 112.485 130.05 112.738L130.05 112.738C130.727 113.287 131.402 113.836 131.51 114.479C132.097 118.009 132.372 121.595 132.646 125.173L132.664 125.411C132.893 128.398 133.092 131.387 133.291 134.376ZM146.621 179.664C147.156 179.555 147.569 178.043 147.735 177.123C147.868 176.386 147.836 175.619 147.805 174.853C147.792 174.519 147.778 174.185 147.778 173.854C147.764 173.853 147.75 173.853 147.736 173.853C147.719 173.852 147.702 173.852 147.686 173.852H147.67C147.375 169.775 147.083 165.696 146.791 161.618C146.068 151.518 145.346 141.418 144.581 131.321C144.543 130.81 144.504 130.299 144.466 129.788L144.46 129.711C144.009 123.709 143.558 117.701 142.792 111.736C142.221 107.276 140.221 103.198 135.278 102.47C131.225 101.873 126.98 102.072 122.875 102.471C119.67 102.783 117.422 105.107 116.575 108.16C115.68 111.385 115.081 114.739 114.786 118.073C114.127 125.549 113.591 133.036 113.055 140.522L113.054 140.531L113.053 140.54L113.053 140.549L113.052 140.558L113.052 140.567L113.051 140.576L113.05 140.584L113.05 140.593L113.049 140.602L113.048 140.611L113.048 140.62C112.89 142.817 112.733 145.015 112.572 147.212C112.444 148.976 112.314 150.739 112.183 152.503L112.183 152.505C111.603 160.356 111.023 168.208 110.599 176.068C110.527 177.404 111.281 179.399 112.317 180.069C116.72 182.921 121.595 180.279 121.906 175.153C121.997 173.634 122.113 172.118 122.228 170.601L122.228 170.601L122.228 170.6L122.228 170.6L122.228 170.6L122.228 170.599L122.228 170.599L122.228 170.599L122.228 170.598L122.228 170.598L122.228 170.597L122.228 170.597L122.228 170.597L122.229 170.596L122.229 170.596L122.229 170.596L122.229 170.595L122.229 170.595L122.229 170.595L122.229 170.594L122.229 170.594L122.229 170.593L122.229 170.593C122.377 168.643 122.526 166.693 122.623 164.74C122.756 162.097 123.746 160.651 126.681 161.008C127.742 161.137 128.822 161.105 129.902 161.073C130.424 161.057 130.947 161.041 131.467 161.044C135.079 161.059 135.446 161.457 135.678 165.174C135.727 165.971 135.77 166.77 135.812 167.569L135.812 167.569L135.812 167.57L135.813 167.57L135.813 167.571L135.813 167.571L135.813 167.572L135.813 167.572L135.813 167.573L135.813 167.573L135.813 167.574L135.813 167.574L135.813 167.575L135.813 167.575L135.813 167.576L135.813 167.576L135.813 167.577L135.813 167.577L135.813 167.578C135.967 170.454 136.121 173.333 136.589 176.159C136.843 177.703 138.047 180.082 139.159 180.291C141.437 180.72 143.947 180.208 146.313 179.726L146.621 179.664ZM80.1559 59.5503C80.165 56.3731 80.174 53.1958 80.174 50.0186H80.1937C80.1937 47.3716 80.1969 44.7245 80.2002 42.0775V42.0774V42.0773V42.0772V42.0771V42.077V42.0769V42.0767V42.0766V42.0765V42.0764V42.0763V42.0762V42.0761V42.076V42.0759V42.0758V42.0757V42.0756V42.0755V42.0754C80.2108 33.4879 80.2214 24.9007 80.1203 16.3151C80.1033 14.9019 79.3436 12.5113 78.4779 12.2843C76.1007 11.6637 73.2913 11.3764 71.0385 12.119C70.1636 12.4072 69.7103 14.0902 69.2866 15.6633L69.2866 15.6636L69.2865 15.6637L69.2865 15.6638L69.2865 15.664C69.1489 16.1748 69.0144 16.6741 68.8696 17.1102C68.7058 17.6024 68.7486 18.1628 68.7913 18.7237C68.8108 18.9791 68.8303 19.2346 68.8303 19.4837C68.8303 22.4828 68.8313 25.4819 68.8322 28.481C68.8361 40.7927 68.84 53.1045 68.7779 65.4173C68.7727 66.5417 68.347 68.2881 67.5716 68.6844C62.4597 71.2954 57.5678 68.2514 57.5625 62.6238C57.5564 56.1649 57.5576 49.7057 57.5588 43.2463V43.2463V43.2462V43.2461V43.2461V43.246V43.2459V43.2458V43.2458V43.2457V43.2456V43.2456V43.2455V43.2454V43.2454V43.2453V43.2452V43.2452V43.2451V43.245V43.245C57.5605 34.4929 57.5621 25.7405 57.5455 16.9882C57.5364 12.4838 56.2855 11.2871 51.8874 11.295C47.5155 11.3029 46.2267 12.5271 46.2149 17.0301C46.1756 30.8517 46.1795 44.6719 46.2123 58.4908C46.2214 61.9652 46.2398 65.4566 46.541 68.9127C47.0348 74.5638 49.7512 77.726 55.3006 78.6274C57.6781 79.0134 60.1129 79.0455 62.548 79.0776H62.5481H62.5483H62.5484H62.5485H62.5486H62.5487H62.5488H62.549H62.5491H62.5492H62.5493H62.5494H62.5495H62.5496H62.5498H62.5499H62.55H62.5501H62.5502H62.5503C63.7069 79.0929 64.8636 79.1081 66.0143 79.1614C68.6902 79.286 69.7235 81.1151 68.2723 83.3601C67.6424 84.3349 66.719 85.1983 65.7576 85.8701C64.8606 86.4984 63.9152 87.0577 62.9695 87.6172L62.9692 87.6174C62.1158 88.1223 61.2622 88.6273 60.444 89.1831C57.8153 90.9676 57.7145 93.0302 59.9437 96.6909C61.7498 99.6588 63.2076 100.142 66.0628 98.596C66.9883 98.0947 67.8936 97.5561 68.7986 97.0175L68.7988 97.0174L68.7993 97.0171C70.0331 96.283 71.2665 95.5491 72.55 94.9104C77.8296 92.2836 80.2932 88.1623 80.2133 82.2317C80.1128 74.6726 80.1343 67.1115 80.1559 59.5503ZM290.186 269.247C289.763 270.475 289.352 271.708 288.94 272.941L288.94 272.942L288.939 272.944L288.939 272.945L288.938 272.947L288.938 272.948L288.937 272.95L288.937 272.951L288.936 272.953L288.935 272.955L288.935 272.956L288.934 272.958L288.934 272.959L288.933 272.961L288.933 272.962L288.932 272.964L288.932 272.965L288.931 272.967L288.931 272.969L288.93 272.97C288.152 275.303 287.373 277.635 286.515 279.939C285.171 283.544 278.806 285.353 275.898 282.816C274.932 281.974 274.312 280.22 274.304 278.877C274.207 259.485 274.198 240.092 274.277 220.698C274.291 216.906 275.906 215.763 280.2 215.843C284.22 215.921 285.593 217.061 285.539 220.932C285.441 228.053 285.247 235.173 285.053 242.293V242.294V242.295V242.296V242.297V242.298V242.299V242.3V242.301V242.302V242.303V242.304V242.305V242.306V242.307V242.308V242.309V242.31V242.311V242.312C284.987 244.724 284.922 247.136 284.86 249.548C284.856 249.706 284.851 249.864 284.846 250.022C284.805 251.442 284.763 252.871 285.119 254.4C285.189 254.214 285.261 254.027 285.332 253.84C285.408 253.642 285.484 253.444 285.561 253.247L285.562 253.243C285.891 252.391 286.22 251.539 286.516 250.675C289.934 240.734 293.344 230.789 296.74 220.839C297.626 218.242 298.924 216.131 302.026 215.922C307.354 215.563 309.485 216.435 309.429 222.241C309.251 240.738 309.184 259.239 309.459 277.735C309.556 284.193 305.514 284.412 300.558 283.29C298.25 282.768 297.939 280.498 298.006 278.418C298.219 271.65 298.447 264.883 298.675 258.116L298.676 258.083L298.677 258.05L298.678 258.016L298.678 258.005L298.678 258.003L298.679 258L298.679 257.997L298.679 257.994L298.679 257.992L298.679 257.989L298.679 257.986L298.679 257.983L298.679 257.981L298.679 257.978L298.679 257.975L298.68 257.972C298.798 254.458 298.916 250.945 299.032 247.431C299.049 246.889 299.045 246.346 299.04 245.803C299.038 245.555 299.036 245.307 299.036 245.058C298.887 244.999 298.738 244.94 298.588 244.88L296.566 250.741C294.438 256.909 292.31 263.078 290.186 269.247ZM437.066 11.3487C432.112 10.7333 430.11 11.9076 428.47 16.6338C425.75 24.4742 423.049 32.3212 420.347 40.1678L420.346 40.1705L420.345 40.1732L420.345 40.1759L420.344 40.1785L420.343 40.1812L420.342 40.1839L420.341 40.1866L420.34 40.1885L420.34 40.1904L420.339 40.1924L420.338 40.1943L420.338 40.1962L420.337 40.1982L420.336 40.2001L420.336 40.2028L420.335 40.2055L420.334 40.2081L420.332 40.2116C419.238 43.3911 418.143 46.5706 417.048 49.7495C416.964 49.7397 416.881 49.7301 416.798 49.7206C416.716 49.7111 416.633 49.7016 416.55 49.6918C416.55 49.62 416.55 49.5482 416.549 49.4763C416.549 49.3301 416.548 49.1839 416.547 49.0376C416.543 48.5677 416.539 48.0979 416.553 47.6292C416.635 44.5305 416.725 41.4321 416.814 38.3337L416.815 38.2913L416.815 38.2888C417.02 31.1689 417.225 24.0492 417.354 16.9277C417.437 12.4548 416.09 11.2673 411.654 11.2949C407.306 11.3224 406.048 12.5427 406.042 17.0956C406.01 35.8926 406.026 54.6895 406.042 73.4865C406.042 73.6147 406.041 73.7458 406.039 73.8784C406.03 74.6645 406.02 75.5042 406.364 76.1172C406.948 77.1616 407.818 78.6141 408.773 78.7926C414.078 79.7793 417.176 79.2793 418.8 74.2409C420.821 67.9677 422.976 61.7374 425.132 55.5073L425.134 55.5021L425.136 55.4968L425.137 55.4929L425.138 55.489L425.14 55.4851L425.141 55.4811L425.142 55.4785L425.143 55.4759L425.144 55.4733L425.145 55.4707L425.146 55.4681L425.147 55.4655L425.147 55.4629L425.148 55.4603L425.149 55.4577L425.15 55.4551L425.151 55.4538L425.151 55.4524C425.908 53.2647 426.665 51.077 427.416 48.8875C428.093 46.9113 428.792 44.942 429.49 42.9731L429.491 42.9709L429.492 42.9684L429.493 42.9659L429.494 42.9633L429.495 42.9605C429.808 42.0772 430.122 41.194 430.433 40.3104C430.86 41.1501 430.883 41.8941 430.856 42.6367C430.749 45.7921 430.635 48.9473 430.521 52.1026L430.521 52.1046L430.521 52.1066L430.521 52.1086L430.521 52.1106L430.521 52.1126L430.521 52.1142L430.521 52.1158L430.521 52.1174L430.521 52.119L430.521 52.1206L430.52 52.1222L430.52 52.1238L430.52 52.1254L430.52 52.127L430.52 52.1286L430.52 52.1302L430.52 52.1318L430.52 52.1334C430.265 59.1966 430.01 66.2599 429.827 73.3251C429.706 77.9541 431.052 79.1652 435.641 79.1547C440.094 79.1442 441.159 78.0644 441.163 73.434C441.172 62.2038 441.171 50.9737 441.169 39.7428V39.7425V39.7422V39.7419V39.7416V39.7413V39.741V39.7406V39.7403V39.74V39.7397V39.7394V39.7391V39.7388V39.7385V39.7382V39.7379V39.7376V39.7372C441.169 37.145 441.168 34.5526 441.168 31.9602C441.168 30.2643 441.164 28.568 441.16 26.8717V26.8712V26.8707V26.8703V26.8698V26.8693V26.8689V26.8684V26.868V26.8675V26.867V26.8666V26.8661V26.8656V26.8652V26.8647V26.8642V26.8638V26.8633V26.8536C441.152 23.1857 441.144 19.5171 441.169 15.8491C441.189 13.0386 439.76 11.6846 437.066 11.3487ZM123.367 268.607C123.464 272.538 124.925 273.63 129.478 273.55C133.317 273.484 134.563 272.346 134.582 268.595C134.625 259.844 134.624 251.091 134.584 242.338C134.565 238.705 133.41 237.564 129.774 237.36C129.177 237.326 128.578 237.334 127.978 237.342H127.977C127.479 237.349 126.98 237.356 126.483 237.339C124.235 237.265 123.252 238.241 123.301 240.56C123.372 243.761 123.36 246.965 123.348 250.168V250.169C123.342 251.641 123.337 253.112 123.339 254.583C123.339 255.992 123.332 257.401 123.324 258.81C123.305 262.077 123.287 265.343 123.367 268.607ZM112.303 223.61C112.362 218.414 114.882 214.519 119.316 211.897C125.051 208.506 130.813 205.157 136.619 201.886C139.668 200.167 141.042 200.667 142.925 203.812C145.247 207.687 145.119 209.541 142.035 211.411C139.694 212.83 137.313 214.181 134.931 215.533L134.931 215.533L134.929 215.534C132.813 216.735 130.697 217.936 128.608 219.185C127.09 220.093 125.549 221.153 124.449 222.492C123.762 223.328 123.537 224.895 123.779 225.985C123.901 226.534 125.506 226.997 126.475 227.073C127.872 227.184 129.275 227.222 130.679 227.261H130.679H130.679H130.679H130.679H130.68H130.68H130.68H130.68H130.68H130.681H130.681H130.681H130.681H130.681H130.682H130.682H130.682C132.565 227.312 134.446 227.364 136.307 227.59C142.112 228.294 145.654 231.807 145.777 237.656C146.024 249.477 146.008 261.309 145.795 273.132C145.69 278.836 142.636 282.476 137.017 283.116C131.732 283.718 126.273 283.696 120.984 283.11C115.565 282.507 112.571 279.123 112.381 273.674C112.162 267.46 112.209 261.236 112.256 255.012V255.012V255.012V255.012V255.011V255.011V255.011V255.01V255.01V255.01V255.01V255.009V255.009V255.009V255.009V255.008V255.008V255.008V255.007V255.007V255.007V255.007V255.006V255.006V255.006V255.006V255.005V255.005V255.005V255.004V255.004V255.004V255.004V255.003V255.003C112.276 252.387 112.296 249.771 112.296 247.156C112.29 247.154 112.286 247.154 112.281 247.154C112.281 244.804 112.275 242.454 112.269 240.104V240.104V240.104V240.104V240.103V240.103V240.103V240.103V240.102V240.102V240.102V240.102V240.102V240.101V240.101V240.101V240.101V240.1C112.256 234.603 112.242 229.106 112.303 223.61ZM379.495 21.5961C381.474 21.1605 383.341 21.7024 383.166 24.48C383.105 25.4319 383.12 26.3882 383.136 27.3449V27.3452V27.3455V27.3458V27.3461V27.3464V27.3467V27.347V27.3473V27.3476V27.3479V27.3482V27.3485V27.3488V27.3491V27.3494V27.3497L383.136 27.355C383.143 27.7862 383.15 28.2175 383.15 28.6485C383.146 29.4042 383.15 30.0786 383.153 30.6803V30.6809V30.6814V30.6819V30.6824V30.6828V30.6833V30.6837V30.6841V30.6844V30.6848V30.6851V30.6854V30.6857V30.686V30.6862C383.167 33.2361 383.174 34.4803 382.555 35.0805C381.966 35.6526 380.809 35.6398 378.55 35.6148H378.549H378.549H378.549H378.548C377.847 35.6071 377.04 35.5982 376.112 35.6052C372.182 35.6341 371.91 35.3415 371.886 31.3921C371.883 30.6985 371.854 30.0003 371.826 29.3019C371.758 27.601 371.689 25.8987 371.972 24.257C372.562 20.8067 374.709 21.1438 376.838 21.4779C377.771 21.6245 378.701 21.7705 379.495 21.5961ZM379.863 45.8513C381.932 45.3553 383.256 46.3906 383.175 48.8101C383.106 50.8165 383.122 52.8255 383.138 54.8344C383.145 55.7038 383.152 56.5731 383.152 57.4423C383.152 57.8873 383.153 58.3323 383.154 58.7774V58.7777C383.158 61.0122 383.162 63.2473 383.148 65.4814C383.147 65.6551 383.157 65.842 383.168 66.0317C383.2 66.5975 383.233 67.1876 382.966 67.5217C381.308 69.586 379.197 69.3016 377.095 69.0185C376.176 68.8948 375.259 68.7713 374.383 68.8443C373.634 68.906 372.054 67.2186 372.021 66.2923C371.991 65.4645 371.958 64.6354 371.925 63.8055C371.718 58.6748 371.511 53.516 372.063 48.4506C372.44 45.0026 374.698 45.364 376.95 45.7243C377.983 45.8897 379.015 46.0548 379.863 45.8513ZM394.525 55.4748V55.474V55.4732C394.521 54.6647 394.517 53.8563 394.515 53.0481C394.497 47.3851 394.325 41.7878 385.715 40.9887C386.272 40.7783 386.673 40.6134 386.978 40.4875L386.979 40.4873L386.979 40.4872C387.452 40.2921 387.699 40.1903 387.956 40.1568C391.834 39.6386 393.873 37.1128 394.157 33.5623C394.507 29.2259 394.663 24.7844 394.112 20.4874C393.409 15.012 390.078 12.1228 384.401 11.7042C379.868 11.3694 375.31 11.3468 370.756 11.3243C369.726 11.3192 368.695 11.3141 367.665 11.3054C361.361 11.2516 360.528 12.1057 360.527 18.2739C360.522 35.478 360.523 52.6833 360.527 69.8887C360.527 70.1904 360.527 70.4922 360.526 70.794V70.7955C360.523 72.1838 360.521 73.5728 360.599 74.9573C360.756 77.6747 362.2 79.1495 364.996 79.1495C366.761 79.1491 368.526 79.1618 370.292 79.1745C374.513 79.205 378.736 79.2354 382.952 79.0865C390.342 78.8293 394.228 74.792 394.444 67.3669C394.559 63.4064 394.542 59.4406 394.525 55.4768V55.4748ZM473.65 33.2037V27.5565C473.65 21.2978 473.401 21.0708 467.077 21.5406C463.618 21.799 462.542 22.8408 462.44 26.3704C462.371 28.7623 462.383 31.1583 462.396 33.5535V33.5538V33.5542V33.5545V33.5549V33.5552V33.5556V33.5559V33.5563V33.5566V33.5569V33.5573V33.5576C462.401 34.5298 462.406 35.5018 462.406 36.4734C462.404 44.3919 463.246 45.1345 471.147 44.6385C472.912 44.527 473.667 43.8434 473.648 42.118C473.625 40.0233 473.63 37.9293 473.635 35.835C473.637 34.958 473.639 34.0809 473.639 33.2037H473.65ZM451.193 43.3173C451.187 42.6306 451.18 41.9438 451.173 41.2569C451.112 34.8913 451.05 28.5213 451.295 22.1651C451.543 15.7635 454.932 12.1447 461.284 11.7078C466.829 11.3276 472.405 11.3461 477.974 11.3646C478.881 11.3676 479.788 11.3706 480.695 11.3719C483.559 11.3758 485.003 13.0054 485 15.938C484.991 23.5046 484.992 31.0711 484.992 38.6375V38.668C484.993 50.6643 484.993 62.6604 484.958 74.6565C484.949 77.9905 483.572 79.09 480.041 79.1543C475.389 79.2409 473.858 78.3316 473.735 74.7798C473.628 71.6947 473.634 68.6057 473.641 65.5166C473.647 63.1404 473.652 60.7641 473.605 58.3892C473.59 57.663 473.312 56.9411 473.034 56.2189C472.905 55.8841 472.776 55.5493 472.673 55.214C472.369 55.4715 472.029 55.7102 471.689 55.9489L471.689 55.9492C470.952 56.4668 470.215 56.9841 469.848 57.6925C467.988 61.2754 466.22 64.9054 464.453 68.5358L464.449 68.5437C463.483 70.5277 462.517 72.5119 461.536 74.4885C459.456 78.6754 456.905 79.9232 452.32 79.1123C449.556 78.6229 448.614 76.8227 449.875 74.0293C451.612 70.1891 453.402 66.3737 455.193 62.5583L455.193 62.5577C455.972 60.8969 456.752 59.236 457.527 57.5731C457.832 56.9187 458.129 56.2615 458.462 55.5259L458.47 55.5074L458.473 55.5007L458.474 55.4979C458.64 55.1327 458.814 54.7481 459.002 54.3349C453.452 52.5019 451.241 48.5748 451.193 43.3173ZM62.8757 123.124C66.8966 123.215 68.0963 124.337 68.1212 128.257C68.1508 132.673 68.1445 137.09 68.1382 141.506C68.1356 143.353 68.133 145.2 68.133 147.046C68.1326 148.924 68.1352 150.803 68.1379 152.681V152.681V152.681V152.681V152.681V152.682V152.682V152.682V152.682V152.682V152.682V152.682V152.682V152.683C68.1439 156.967 68.1499 161.252 68.1199 165.536C68.0937 169.354 66.8913 170.52 63.1298 170.603C58.5286 170.707 56.9412 169.633 56.9137 165.78C56.8194 153.157 56.8207 140.53 56.9176 127.906C56.9478 124.12 58.5234 123.025 62.8757 123.124ZM79.478 153.609C79.4676 151.384 79.4571 149.158 79.4571 146.933H79.4099C79.4099 144.623 79.4239 142.312 79.4379 140V140V140V140V139.999V139.999V139.999V139.999V139.998V139.998V139.998V139.998V139.998V139.997V139.997V139.997C79.4702 134.66 79.5026 129.324 79.3628 123.992C79.1938 117.564 75.6784 113.818 69.2423 113.295C64.7997 112.936 60.2811 112.941 55.8384 113.299C49.5385 113.808 46.1148 117.125 45.8712 123.422C45.5407 131.958 45.5357 140.508 45.5308 149.055V149.055V149.055V149.055V149.056V149.056V149.056V149.056V149.056V149.056V149.056V149.057V149.057V149.057V149.057C45.5299 150.738 45.5289 152.418 45.5254 154.099C45.515 159.655 45.515 165.227 45.8948 170.766C46.2668 176.197 49.1233 179.41 54.5496 180.204C58.7513 180.818 63.0774 180.771 67.3432 180.71C75.2187 180.6 79.275 176.57 79.4283 168.685C79.5254 163.662 79.5017 158.636 79.478 153.61V153.609ZM150.24 36.1482C150.24 35.1892 150.251 34.2297 150.262 33.2701C150.29 30.8527 150.318 28.4353 150.169 26.028C150.092 24.7789 149.418 22.6914 148.663 22.5182C146.245 21.9658 143.52 21.6142 141.207 22.2479C140.121 22.5458 139.182 25.246 139.086 26.9111C138.88 30.4737 138.918 34.0513 138.955 37.6286C138.969 38.9181 138.982 40.2075 138.984 41.4962C138.985 42.1974 138.981 42.8356 138.977 43.4164V43.4195V43.4223V43.425V43.4275V43.4299V43.432V43.4341V43.436V43.4377V43.4393V43.4408V43.4423C138.959 46.4034 138.949 47.8665 139.676 48.5865C140.386 49.2897 141.798 49.2841 144.589 49.2729C145.352 49.2699 146.217 49.2664 147.199 49.2769C149.547 49.3018 150.345 48.1971 150.279 45.9731C150.21 43.6754 150.225 41.3752 150.24 39.0751C150.247 38.0994 150.253 37.1236 150.253 36.1482H150.24ZM127.998 21.769C128.273 15.492 131.673 12.1881 138.031 11.6909C142.578 11.3366 147.202 11.3694 151.75 11.7381C157.648 12.2157 161.276 15.9565 161.444 21.9055C161.696 30.8486 161.716 39.8089 161.452 48.7508C161.255 55.3742 157.089 58.9496 149.79 59.376C147.103 59.5335 144.401 59.481 141.71 59.4246C139.944 59.3878 139.225 60.242 139.005 61.8834C138.302 67.1305 139.935 68.9936 145.347 69.0015C146.492 69.0032 147.637 68.9994 148.781 68.9957H148.782H148.782H148.782H148.782H148.782H148.782H148.783H148.783H148.783H148.783H148.783H148.784H148.784C151.131 68.9879 153.478 68.9802 155.824 69.0199C159.285 69.0789 160.499 70.4487 160.494 74.0898C160.489 77.7216 159.26 79.1531 155.796 79.1308C154.323 79.1206 152.847 79.1259 151.371 79.1311C146.56 79.1482 141.744 79.1653 136.988 78.6493C131.196 78.0182 128.24 74.6474 128.006 68.8795C127.783 63.3909 127.833 57.8913 127.883 52.3917V52.3916V52.3915V52.3914V52.3914V52.3913V52.3912V52.3912V52.3911V52.391V52.391V52.3909V52.3908V52.3903C127.905 50.0349 127.926 47.6795 127.926 45.3249C127.922 45.3236 127.918 45.3236 127.914 45.3236C127.914 42.9594 127.891 40.5942 127.867 38.2291C127.812 32.7383 127.757 27.2475 127.998 21.769ZM258.62 32.9818C258.615 33.9843 258.61 34.9868 258.61 35.9893H258.622C258.622 36.8221 258.622 37.6551 258.623 38.4882L258.623 38.6354C258.624 40.9291 258.626 43.2234 258.618 45.5176C258.617 45.7041 258.63 45.902 258.644 46.1016C258.68 46.6435 258.717 47.198 258.479 47.5711C257.071 49.7812 255.112 49.5347 253.15 49.2878C252.193 49.1674 251.236 49.0469 250.34 49.2112C248.613 49.5274 247.408 48.5919 247.403 46.7169C247.398 45.3091 247.391 43.9012 247.383 42.4932V42.4929V42.4925V42.4921V42.4918V42.4914V42.491V42.4907V42.4903V42.4899V42.4896V42.4892C247.353 36.8516 247.323 31.2131 247.488 25.5805C247.583 22.2963 249.45 21.2965 253.78 21.5274C257.315 21.7151 258.526 22.8264 258.596 26.1631C258.643 28.435 258.632 30.7082 258.62 32.9818ZM246.177 11.7157C240.063 12.1985 236.638 15.5666 236.373 21.6928C236.136 27.176 236.19 32.6715 236.243 38.1671C236.266 40.5275 236.289 42.8879 236.289 45.2474L236.295 45.2475L236.304 45.2481C236.308 45.2484 236.312 45.2487 236.316 45.2487C236.316 47.6247 236.295 50.0017 236.274 52.3787V52.3796C236.225 57.9568 236.176 63.5341 236.397 69.0998C236.613 74.5646 239.577 77.9865 244.99 78.5612C250.057 79.0992 255.186 79.1041 260.307 79.1089C261.668 79.1102 263.029 79.1115 264.387 79.1228C267.633 79.1504 268.835 77.669 268.86 74.1671C268.889 70.4867 267.689 69.0867 264.268 69.0237C261.9 68.9796 259.531 68.9874 257.162 68.9951L257.159 68.9952C255.936 68.9992 254.714 69.0032 253.492 69.0001C248.389 68.9883 246.95 67.3678 247.346 62.2586C247.494 60.3534 248.212 59.3392 250.3 59.4153C252.889 59.5111 255.493 59.5255 258.08 59.3838C265.382 58.9797 269.606 55.4213 269.811 48.828C270.091 39.8862 270.061 30.9246 269.818 21.9814C269.65 15.8894 266.039 12.1998 259.896 11.7144C255.348 11.3548 250.726 11.3562 246.177 11.7157ZM33.9974 278.412C33.983 282.577 32.8226 283.68 28.6576 283.705C24.0434 283.731 22.6904 282.592 22.6603 278.337C22.6234 273.247 22.6294 268.157 22.6355 263.067C22.6389 260.203 22.6422 257.34 22.638 254.477C22.6315 250.577 22.4075 250.322 18.6472 250.334C17.8551 250.337 17.1488 250.329 16.519 250.322C14.1245 250.295 12.8356 250.28 12.1445 250.916C11.3389 251.657 11.3458 253.281 11.3607 256.799L11.3608 256.8L11.362 257.091L11.3637 257.559C11.386 264.518 11.4069 271.479 11.348 278.437C11.3139 282.617 10.1496 283.682 5.95444 283.705C1.41879 283.727 0.0579618 282.688 0.0448643 278.593C-0.0140743 259.405 -0.0153841 240.217 0.0435546 221.029C0.056652 216.955 1.56417 215.771 5.95182 215.843C10.0775 215.912 11.3008 217.065 11.3493 221.192C11.4109 226.361 11.4161 231.532 11.3519 236.702C11.3218 239.183 12.2203 240.269 14.8804 240.204C16.064 240.174 17.0684 240.172 17.9203 240.17C20.2931 240.165 21.4841 240.162 22.0766 239.566C22.6737 238.964 22.6628 237.759 22.6409 235.339C22.6341 234.583 22.6262 233.709 22.6354 232.697C22.6503 231.06 22.6431 229.423 22.6358 227.786C22.6259 225.545 22.616 223.305 22.6629 221.066C22.7454 217.035 24.2176 215.792 28.5725 215.843C32.6956 215.892 33.9817 217.094 33.9961 221.144C34.0205 228.057 34.016 234.968 34.0115 241.879C34.0097 244.611 34.0079 247.343 34.0079 250.076C34.0079 252.774 34.0096 255.472 34.0113 258.171C34.0156 264.917 34.0199 271.665 33.9974 278.412ZM28.5177 180.759C32.8648 180.747 33.9794 179.674 33.9912 175.295C34.0108 168.546 34.0071 161.798 34.0033 155.05C34.0018 152.351 34.0003 149.652 34.0003 146.953C34.0007 144.4 34.002 141.846 34.0033 139.293V139.293V139.293V139.293V139.293V139.293V139.293V139.292V139.292V139.292V139.292C34.0068 132.398 34.0104 125.505 33.9951 118.61C33.9846 114.089 32.8739 112.937 28.3763 112.908C22.6509 112.871 16.9246 112.881 11.1989 112.89H11.1986H11.1983H11.198H11.1977H11.1974H11.1971H11.1968H11.1965H11.1962H11.1959C9.73955 112.892 8.28325 112.895 6.827 112.896C0.938374 112.903 0.00845333 113.807 0.00583383 119.592C-0.0033344 137.792 -0.00202465 155.99 0.0150021 174.189C0.0152175 174.384 0.0124208 174.582 0.00960217 174.782C-0.00471475 175.797 -0.019596 176.851 0.356846 177.712C0.821806 178.781 1.79364 180.225 2.7419 180.391C8.79948 181.457 11.5002 180.791 11.4216 174.558C11.2865 164.019 11.3131 153.477 11.3397 142.936C11.3505 138.659 11.3613 134.382 11.3613 130.106C11.3613 129.61 11.359 129.15 11.3568 128.722C11.3424 125.935 11.3352 124.525 12.0365 123.816C12.7542 123.091 14.214 123.1 17.1679 123.117H17.168C17.5219 123.119 17.8971 123.121 18.2951 123.123C22.4628 123.136 22.6291 123.308 22.6317 127.523C22.6334 132.664 22.6322 137.805 22.6311 142.946C22.6286 153.716 22.6261 164.486 22.6501 175.257C22.6592 179.597 23.9899 180.769 28.5177 180.759ZM191.316 174.913C191.305 180.214 186.697 182.958 182.1 180.099C180.874 179.336 180.065 176.987 180.051 175.358C179.942 163.605 179.947 151.85 179.952 140.095C179.953 135.652 179.955 131.208 179.951 126.764C179.947 123.686 179.097 122.963 176.297 123.119C174.149 123.24 173.722 124.62 173.558 126.315C173.339 128.582 173.124 130.85 172.909 133.117L172.908 133.121L172.908 133.125L172.907 133.13L172.907 133.134L172.906 133.138L172.906 133.143L172.906 133.147L172.905 133.151L172.905 133.155C172.474 137.695 172.043 142.234 171.582 146.769C171.431 148.254 171.284 149.739 171.136 151.224L171.135 151.237C170.588 156.759 170.04 162.283 169.303 167.78C168.403 174.484 163.797 178.371 158.002 180.935C156.975 181.387 154.74 180.931 154.083 180.097C150.648 175.73 149.784 172.885 154.758 170.132C157.222 168.769 158.267 166.381 158.525 163.433C159.713 149.833 161.035 136.246 162.356 122.658C162.495 121.227 162.635 119.795 162.774 118.364C163.216 113.807 164.213 112.934 168.819 112.904C174.303 112.867 179.786 112.871 185.269 112.903C190.121 112.929 191.309 114.109 191.317 118.866C191.328 125.53 191.326 132.195 191.324 138.859V138.882C191.323 141.551 191.322 144.221 191.322 146.89C191.322 149.56 191.323 152.23 191.324 154.9C191.327 161.571 191.33 168.243 191.316 174.913ZM250.665 153.776C250.743 152.571 251.641 151.049 252.64 150.343C254.498 149.031 256.487 147.903 258.674 146.662L258.674 146.662C259.586 146.145 260.532 145.608 261.517 145.031C261.517 147.282 261.523 149.467 261.529 151.607C261.544 156.783 261.559 161.688 261.48 166.593C261.435 169.438 259.967 170.502 256.697 170.602C252.371 170.736 250.623 169.858 250.486 166.838C250.291 162.493 250.385 158.119 250.665 153.776ZM272.916 153.358C272.907 151.214 272.898 149.07 272.898 146.925H272.812C272.812 144.615 272.826 142.305 272.84 139.995V139.992C272.873 134.654 272.906 129.316 272.763 123.983C272.59 117.51 269.124 113.811 262.651 113.293C257.809 112.903 252.929 112.913 248.062 112.924H248.062H248.062H248.062H248.062H248.061H248.061H248.061H248.061L247.52 112.925C247.19 112.926 246.861 112.926 246.532 112.927C242.575 112.933 241.156 114.417 241.163 118.065C241.17 121.72 242.529 123.023 246.574 123.104C248.416 123.142 250.259 123.151 252.102 123.16C253.945 123.169 255.788 123.179 257.63 123.216C259.471 123.253 260.897 123.943 261.388 125.942C262.376 129.971 261.222 132.967 257.659 135.081C255.909 136.119 254.139 137.123 252.368 138.127L252.368 138.127L252.367 138.127L252.367 138.128L252.367 138.128L252.366 138.128L252.366 138.128L252.365 138.129L252.365 138.129L252.364 138.129C250.331 139.282 248.299 140.434 246.299 141.638C242.568 143.881 239.539 146.928 239.325 151.443C239.015 157.976 239.005 164.547 239.34 171.078C239.602 176.149 242.618 179.38 247.679 180.157C251.285 180.712 254.993 180.72 258.668 180.729H258.669C258.97 180.73 259.272 180.73 259.573 180.731C268.778 180.76 272.725 176.93 272.876 167.785C272.955 162.979 272.935 158.171 272.916 153.363V153.358ZM58.6364 253.299C57.6908 253.949 56.7831 255.347 56.7216 256.453C56.4662 260.994 56.3509 265.563 56.5749 270.102C56.7124 272.871 58.5395 273.667 62.7477 273.555C65.2925 273.488 67.4405 272.771 67.4851 269.81C67.5561 264.856 67.5426 259.901 67.5285 254.691V254.691V254.691V254.69V254.69V254.69V254.69V254.689C67.5226 252.506 67.5165 250.277 67.5165 247.985C66.5425 248.557 65.6076 249.091 64.706 249.606L64.7038 249.607C62.5135 250.859 60.5195 251.999 58.6364 253.299ZM78.9165 249.755C78.9165 251.927 78.9261 254.099 78.9357 256.271C78.9572 261.152 78.9787 266.033 78.8916 270.912C78.7319 279.86 74.7489 283.69 65.7156 283.68C65.1934 283.679 64.6701 283.681 64.1463 283.682C60.7854 283.692 57.4009 283.701 54.1125 283.188C48.4348 282.301 45.5979 279.038 45.277 273.253C45.0288 268.781 45.0463 264.295 45.0638 259.812V259.811V259.811V259.81V259.81C45.068 258.733 45.0722 257.656 45.0727 256.58C45.0766 251.08 47.8808 247.2 52.4701 244.481C54.2725 243.414 56.0938 242.378 57.9153 241.342L57.9163 241.341C59.982 240.166 62.0478 238.991 64.0863 237.77C67.2663 235.866 68.7725 231.78 67.1694 228.484C66.6272 227.366 64.7948 226.354 63.4668 226.235C61.1315 226.028 58.7777 226.043 56.4225 226.059H56.4213C55.0861 226.068 53.7506 226.077 52.4177 226.045C48.2802 225.947 46.7033 224.015 47.2285 219.937C47.5363 217.542 48.7727 215.958 51.2455 215.967C52.3951 215.971 53.5458 215.969 54.6969 215.968H54.6973H54.6977H54.698H54.6984H54.6988H54.6992H54.6996H54.7002H54.7003H54.7004H54.7006H54.7007H54.7008H54.7009C59.824 215.961 64.956 215.955 70.0391 216.418C75.3894 216.908 78.6336 220.988 78.7829 226.811C78.9184 232.153 78.8876 237.499 78.8567 242.845V242.846C78.8434 245.149 78.8301 247.452 78.8301 249.755H78.9165ZM168.723 256.101C168.765 255.17 169.579 253.972 170.393 253.428C172.375 252.109 174.437 250.911 176.72 249.585L176.72 249.584L176.721 249.584C177.626 249.058 178.567 248.512 179.551 247.929C179.551 249.398 179.552 250.806 179.553 252.171C179.555 255.349 179.556 258.296 179.547 261.242C179.545 261.889 179.546 262.535 179.546 263.182V263.183C179.548 265.413 179.549 267.643 179.448 269.868C179.319 272.653 177.39 273.442 174.947 273.549C170.723 273.737 168.719 272.958 168.587 270.337C168.345 265.605 168.511 260.842 168.723 256.101ZM177.586 283.677C186.776 283.705 190.711 279.866 190.861 270.701C190.939 265.892 190.919 261.08 190.9 256.268C190.892 254.126 190.883 251.984 190.883 249.842C190.865 249.841 190.845 249.841 190.825 249.841C190.825 247.579 190.838 245.317 190.851 243.054V243.054V243.054V243.054V243.054V243.054L190.851 243.045C190.879 237.861 190.908 232.676 190.786 227.495C190.621 220.444 187.285 216.778 180.307 216.201C175.668 215.818 170.991 215.841 166.324 215.864H166.324H166.324H166.323H166.323H166.323H166.322L165.738 215.867L165.09 215.87L164.485 215.873C160.548 215.887 159.127 217.388 159.147 221.041C159.166 224.688 160.524 225.972 164.587 226.052C166.397 226.087 168.206 226.097 170.016 226.107C171.893 226.117 173.769 226.127 175.645 226.166C177.492 226.204 178.9 226.915 179.376 228.919C180.343 232.986 179.209 235.915 175.618 238.044C173.801 239.122 171.963 240.164 170.126 241.206L170.125 241.207L170.124 241.207L170.123 241.207L170.123 241.208L170.122 241.208L170.121 241.209C168.243 242.274 166.364 243.339 164.509 244.442C160.675 246.718 157.53 249.78 157.306 254.419C156.992 260.952 156.985 267.524 157.327 274.054C157.593 279.119 160.616 282.33 165.693 283.109C169.286 283.661 172.982 283.668 176.644 283.675H176.644L177.078 283.676C177.247 283.676 177.417 283.677 177.586 283.677ZM281.241 22.034C281.537 15.4933 284.856 12.2 291.324 11.6896C295.867 11.3314 300.488 11.3694 305.034 11.7381C310.923 12.217 314.395 15.9643 314.739 21.9081C314.984 26.1684 314.918 30.4537 314.845 34.7259C314.793 37.808 313.413 38.9652 310.056 39.1148C305.741 39.3037 303.931 38.2829 303.647 35.0854C303.484 33.254 303.501 31.407 303.518 29.5593C303.526 28.6205 303.535 27.6816 303.52 26.7444C303.455 22.6717 302.275 21.5538 298.058 21.521C293.776 21.4856 292.32 22.5969 292.296 26.5083C292.214 39.0321 292.216 51.556 292.296 64.0799C292.319 67.7577 293.736 68.9569 297.523 68.9936C299.227 69.0097 300.931 69.0044 302.635 68.9991C304.82 68.9923 307.005 68.9855 309.189 69.0238C312.597 69.0842 313.796 70.4986 313.765 74.179C313.735 77.6718 312.531 79.1492 309.284 79.1229C307.923 79.1116 306.561 79.1104 305.198 79.1092C300.082 79.1047 294.959 79.1001 289.899 78.5614C284.486 77.988 281.518 74.5687 281.302 69.1143C281.08 63.5512 281.129 57.9777 281.178 52.4039C281.199 50.0283 281.22 47.6526 281.22 45.2777C281.213 45.2777 281.206 45.2775 281.198 45.2772L281.179 45.2766C281.173 45.2765 281.167 45.2763 281.16 45.2763C281.16 42.9303 281.135 40.5831 281.111 38.2358C281.054 32.831 280.997 27.4258 281.241 22.034ZM219.589 179.991C220.76 179.598 221.686 176.79 221.733 175.045C221.897 169.148 221.873 163.246 221.85 157.343C221.841 155.199 221.832 153.055 221.833 150.911L221.832 143.263C221.832 138.164 221.832 133.065 221.833 127.966C221.834 123.154 221.856 123.133 226.609 123.118C233.455 123.1 233.58 122.967 233.163 116.084C233.16 116.019 233.166 115.945 233.172 115.871C233.185 115.721 233.197 115.572 233.128 115.501C232.87 115.24 232.609 114.918 232.347 114.592C231.73 113.826 231.103 113.048 230.466 113.036C221.826 112.871 213.182 112.897 204.539 112.923L202.931 112.928L201.773 112.931C199.995 112.935 199.174 113.818 199.08 115.718L199.071 115.882C198.89 119.509 198.8 121.31 199.657 122.209C200.502 123.095 202.268 123.103 205.776 123.118H205.776L205.783 123.118C210.233 123.14 210.461 123.366 210.463 127.859C210.464 131.563 210.462 135.267 210.46 138.972C210.454 151.159 210.448 163.347 210.539 175.536C210.55 177.042 211.275 179.584 212.186 179.844C214.526 180.513 217.348 180.74 219.589 179.991ZM350.43 11.2678C353.026 11.2154 354.22 12.1456 354.246 14.8997L354.249 15.1686V15.1689C354.281 18.3114 354.297 19.895 353.513 20.6946C352.717 21.5068 351.095 21.51 347.827 21.5166L347.823 21.5166C342.871 21.5271 342.87 21.5271 342.87 26.4841C342.869 30.9184 342.858 35.3527 342.847 39.7869V39.793C342.818 50.8523 342.79 61.9112 342.933 72.9687C343.016 79.3232 339.421 80.0068 333.877 78.717C331.496 78.1611 331.497 75.9212 331.497 73.9013V73.8111C331.505 57.9191 331.504 42.0271 331.5 26.1351C331.499 21.8039 331.239 21.531 326.997 21.5205C326.509 21.5192 326.057 21.5199 325.636 21.5205C322.715 21.5248 321.35 21.5268 320.711 20.8472C320.152 20.2519 320.149 19.1337 320.142 17.0362V17.0359V17.0336C320.14 16.3344 320.138 15.5264 320.114 14.5927C320.049 12.0472 321.229 11.2613 323.527 11.2823C326.827 11.3125 330.127 11.306 333.427 11.2995C334.711 11.297 335.994 11.2945 337.277 11.2941C338.564 11.2941 339.85 11.2996 341.137 11.3052L341.137 11.3052C344.235 11.3185 347.333 11.3318 350.43 11.2678ZM94.7964 21.5167C97.6045 21.2713 98.689 22.4889 98.6445 25.3427C98.5529 31.2112 98.5702 37.0817 98.5875 42.9519V42.9529V42.9531V42.9533C98.5942 45.2278 98.6009 47.5022 98.6012 49.7764C98.6019 51.7775 98.6036 53.7784 98.6054 55.7794C98.6108 61.9234 98.6161 68.067 98.5895 74.2114C98.5803 76.3659 98.9667 78.4941 101.335 78.8798C106.597 79.7366 110.094 79.5254 110.022 72.8678C109.901 61.7864 109.925 50.703 109.949 39.62V39.6198V39.6196C109.959 35.2074 109.968 30.7952 109.969 26.3832C109.97 21.5626 110.001 21.5311 114.727 21.5167C121.599 21.4957 121.703 21.3855 121.3 14.501C121.297 14.4343 121.303 14.3585 121.309 14.2832C121.322 14.1346 121.334 13.9881 121.266 13.9184C121.009 13.6548 120.75 13.3289 120.489 13.001C119.876 12.2302 119.254 11.4479 118.621 11.4359C110.105 11.2723 101.587 11.295 93.069 11.3177C92.022 11.3205 90.9751 11.3233 89.9281 11.3257C88.1586 11.331 87.2091 12.1759 87.234 14.0982C87.2467 15.0644 87.243 15.9053 87.2399 16.637V16.6371C87.2294 19.0594 87.2241 20.2851 87.8343 20.9026C88.4593 21.5351 89.7301 21.5296 92.3025 21.5182H92.3027C92.8693 21.5157 93.4992 21.513 94.1992 21.5167C94.2594 21.5171 94.3199 21.5188 94.3806 21.5206C94.519 21.5246 94.658 21.5285 94.7964 21.5167ZM202.387 221.854C202.404 216.998 203.533 215.879 208.378 215.85C214.057 215.816 219.736 215.784 225.415 215.863C229.719 215.923 231.375 217.947 230.785 222.147C230.451 224.529 229.211 225.961 226.679 225.994C225.185 226.013 223.691 226.022 222.197 226.032C220.703 226.041 219.209 226.05 217.714 226.07C214.176 226.117 213.748 226.507 213.744 230.022C213.73 240.947 213.732 251.872 213.733 262.798C213.734 267.067 213.734 271.337 213.734 275.606C213.734 275.779 213.734 275.952 213.735 276.125C213.736 276.236 213.737 276.347 213.737 276.458V276.459C213.741 277.168 213.746 277.878 213.723 278.586C213.595 282.636 212.44 283.697 208.18 283.704C203.738 283.712 202.437 282.636 202.406 278.464C202.356 271.846 202.364 265.229 202.373 258.611C202.377 255.694 202.381 252.777 202.38 249.86C202.379 247.372 202.377 244.884 202.375 242.395V242.395C202.368 235.549 202.362 228.702 202.387 221.854ZM244.409 215.849C239.402 215.873 238.321 216.964 238.307 222.043C238.288 228.844 238.293 235.644 238.298 242.445C238.299 244.782 238.301 247.119 238.302 249.456C238.302 252.353 238.299 255.251 238.296 258.149C238.288 264.885 238.281 271.621 238.324 278.356C238.35 282.503 239.626 283.672 243.695 283.705C248.596 283.742 249.641 282.75 249.648 277.801C249.662 267.994 249.66 258.186 249.659 248.379C249.658 242.494 249.657 236.61 249.66 230.726C249.662 226.296 249.894 226.087 254.426 226.062C257.214 226.047 260.003 226.026 262.791 225.972C265.213 225.923 266.342 224.469 266.697 222.253C267.364 218.08 265.674 215.933 261.446 215.866C256.326 215.786 251.204 215.813 246.082 215.84C245.524 215.843 244.967 215.846 244.409 215.849Z" fill="white"/>
</svg>
