<svg width="157" height="90" viewBox="0 0 157 90" fill="none" xmlns="http://www.w3.org/2000/svg">
<path fill-rule="evenodd" clip-rule="evenodd" d="M151.463 49.254V38.6739C151.463 37.7199 150.992 36.8201 150.162 36.3278C134.167 26.8371 116.038 27.1084 104.553 27.2803C103.149 27.3013 101.844 27.3208 100.654 27.3208L86.3769 3.70069C86.3188 3.58452 86.2509 3.47426 86.1721 3.37088C85.1906 2.04675 83.834 0.544432 82.2785 0L43.5367 0.0225868C40.6895 0.187981 38.1289 1.81239 36.7654 4.31791L19.7379 32.651H5.5348L1.00811 34.0515L0 38.6739L10.9685 63.2542L50.6932 68.3787L58.4322 88.7192C58.9511 89.238 59.655 89.5294 60.3884 89.5294H105.161C105.895 89.5294 106.599 89.238 107.117 88.7192L117.376 65.8585H151.465C154.522 65.8585 157 63.3805 157 60.3237V54.7888C157 51.732 154.522 49.254 151.465 49.254L151.463 49.254ZM94.2826 27.1158H93.3473C90.9993 27.1227 88.7654 28.1288 87.2031 29.8831H77.9638C74.394 29.889 71.2278 32.177 70.1017 35.5646L69.8605 36.2921C69.4844 37.4223 68.4261 38.1853 67.2339 38.1853H58.5969L57.3712 34.9139V5.48455H79.4582C80.2862 5.48357 81.0708 5.85473 81.5965 6.49463L94.2826 27.1158ZM85.0452 52.0213V35.4179L77.964 35.4178C76.7718 35.4168 75.7134 36.1798 75.3374 37.31L75.0962 38.0385C73.9678 41.43 70.795 43.719 67.2203 43.719H60.6733L64.1516 52.9929C64.5561 54.0728 65.5888 54.7886 66.7417 54.7886H82.278C83.8058 54.7886 85.0452 53.5502 85.0452 52.0213ZM41.6358 6.93841C42.1192 6.04253 43.0535 5.48532 44.0715 5.48532H51.8362V32.6515H26.031L41.6358 6.93841ZM117.37 60.3231H151.46L151.463 54.7888C148.407 54.7888 145.928 52.3108 145.928 49.254V40.2262C132.976 32.993 119.431 33.0154 104.342 33.0404C103.451 33.0419 102.554 33.0434 101.652 33.0434V49.2539H129.325C130.853 49.2539 132.092 50.4932 132.092 52.0211C132.092 53.5499 130.853 54.7884 129.325 54.7884H98.8822C97.3535 54.7884 96.115 53.5501 96.115 52.0211V32.6505H93.3477C91.8189 32.6505 90.5804 33.8888 90.5804 35.4178V52.0211C90.5804 56.6068 86.863 60.3232 82.2784 60.3232H66.7421C63.2835 60.3124 60.1912 58.1681 58.9685 54.9331L56.8381 49.2536H21.3953C19.8675 49.2536 18.628 48.0153 18.628 46.4863C18.628 44.9585 19.8673 43.7191 21.3953 43.7191H54.7613L52.686 38.1853H5.53146L14.3278 58.1651L50.6897 62.8434C52.1575 62.8473 53.5633 63.4301 54.603 64.4658L61.5307 83.994H104.01L113.458 61.9455C114.498 60.9098 115.904 60.327 117.37 60.3231Z" fill="white"/>
</svg>
