<svg width="45" height="45" viewBox="0 0 45 45" fill="none" xmlns="http://www.w3.org/2000/svg">
<path fill-rule="evenodd" clip-rule="evenodd" d="M41.0066 16.3554L43.5984 14.8601L39.5416 7.8351L36.9487 9.33155C36.4949 8.82884 36.0167 8.34945 35.514 7.89691L37.0116 5.30289L29.9865 1.24622L28.49 3.83791C27.8496 3.63029 27.1953 3.45299 26.5269 3.31188V0.319092H18.4158V3.31188C17.7474 3.45301 17.0931 3.6303 16.4527 3.83791L14.9562 1.24622L7.9311 5.3017L9.42875 7.89571C8.92487 8.34942 8.44663 8.82765 7.99291 9.33036L5.39883 7.83274L1.34325 14.8577L3.935 16.3542C3.72738 16.9945 3.55008 17.6488 3.40896 18.316H0.416992V26.427H3.40896C3.55126 27.0953 3.72739 27.7496 3.935 28.39L1.34325 29.8864L5.40002 36.9102L7.99294 35.4126C8.44666 35.9164 8.92606 36.3947 9.42878 36.8484L7.93113 39.4412L14.9563 43.4967L16.4516 40.9062C17.0919 41.1138 17.7463 41.2911 18.4135 41.4322V44.4241H26.5246V41.4322C27.193 41.2911 27.8462 41.1138 28.4877 40.9062L29.983 43.4967L37.0082 39.4412L35.5105 36.8484C36.0144 36.3947 36.4926 35.9153 36.9464 35.4126L39.5393 36.9102L43.5949 29.8852L41.0031 28.3888C41.2107 27.7484 41.388 27.0953 41.5291 26.4269H44.522V18.316H41.53C41.3901 17.65 41.2139 16.9968 41.0063 16.3553L41.0066 16.3554ZM34.638 22.3726C34.638 29.0933 29.1898 34.5403 22.4701 34.5403C15.7504 34.5403 10.3034 29.0921 10.3034 22.3726C10.3034 15.6531 15.7516 10.2062 22.4701 10.2062C29.191 10.205 34.638 15.6531 34.638 22.3726ZM22.4694 29.3024C26.2965 29.3024 29.4002 26.1988 29.4002 22.3716C29.4002 18.5432 26.2965 15.4408 22.4694 15.4408C18.641 15.4408 15.5386 18.5432 15.5386 22.3716C15.5386 26.1988 18.641 29.3024 22.4694 29.3024Z" fill="white"/>
</svg>
