<svg width="481" height="298" viewBox="0 0 481 298" fill="none" xmlns="http://www.w3.org/2000/svg">
<path fill-rule="evenodd" clip-rule="evenodd" d="M318.146 224.341C318.146 213.486 318.076 202.631 318.19 191.778C318.223 188.557 316.666 187.316 313.762 187.303C311.01 187.29 308.03 186.943 307.711 191.056C307.266 196.842 306.709 202.62 306.114 208.392C304.425 224.773 302.79 241.162 300.885 257.518C300.539 260.49 301.549 261.557 304.113 261.698C307.022 261.858 309.946 261.713 312.857 261.85C316.739 262.034 318.305 260.492 318.223 256.447C318.006 245.748 318.149 235.044 318.146 224.341ZM335.903 217.282C335.903 229.975 335.969 242.669 335.86 255.362C335.829 258.949 336.387 261.361 340.64 262.299C342.337 262.674 344.555 265.546 344.66 267.386C345.107 275.313 344.986 283.282 344.814 291.23C344.721 295.525 342.375 297.219 337.35 297.284C331.708 297.357 329.497 295.937 329.101 291.602C328.839 288.717 328.934 285.795 328.967 282.891C329.003 279.566 327.772 277.8 324.089 277.848C314.262 277.978 304.432 277.958 294.603 277.857C291.058 277.821 289.528 279.344 289.622 282.805C289.695 285.556 289.712 288.314 289.593 291.062C289.405 295.395 287.453 297.123 282.81 297.28C276.806 297.483 274.104 296.078 273.945 291.775C273.647 283.681 273.648 275.56 274.013 267.472C274.087 265.824 275.989 263.576 277.621 262.807C282.374 260.562 284.391 256.842 284.857 251.981C286.416 235.712 287.954 219.441 289.451 203.165C290.192 195.105 290.714 187.022 291.541 178.97C292.165 172.885 294.034 171.352 300.173 171.335C309.541 171.311 318.909 171.283 328.277 171.348C333.871 171.387 335.815 173.212 335.857 178.743C335.951 191.588 335.886 204.435 335.886 217.282H335.903Z" fill="white"/>
<path fill-rule="evenodd" clip-rule="evenodd" d="M91.0228 70.8172C91.0228 81.5229 91.1788 92.2314 90.9425 102.933C90.8538 106.945 92.2701 108.602 96.2021 108.311C97.2712 108.232 98.3513 108.317 99.426 108.302C106.964 108.193 108.643 106.546 108.65 99.09C108.668 80.2784 108.675 61.4668 108.645 42.6552C108.635 35.7947 106.77 33.9316 99.9633 33.7451C98.7354 33.7119 97.502 33.807 96.2787 33.7294C92.3541 33.4792 90.8741 35.1678 90.9535 39.1598C91.1613 49.7086 91.0237 60.2638 91.0228 70.8172ZM72.8454 84.3775C72.8436 65.2631 72.8297 46.1487 72.8509 27.0351C72.8583 19.7186 74.7962 17.7235 82.1257 17.826C92.0817 17.9645 102.109 17.6321 111.97 18.7187C121.032 19.7177 126.023 25.5755 126.127 34.5742C126.41 58.8836 126.459 83.2014 126.116 107.509C125.97 118.001 119.04 123.797 107.545 124.306C103.56 124.482 99.558 124.461 95.5706 124.33C92.1823 124.219 90.8917 125.694 90.9895 128.999C91.1299 133.734 91.1326 138.481 90.984 143.217C90.7957 149.161 88.4488 151.028 81.6308 151C75.3473 150.973 72.8999 148.917 72.8768 143.096C72.7992 123.524 72.8473 103.951 72.8454 84.3775Z" fill="white"/>
<path fill-rule="evenodd" clip-rule="evenodd" d="M463.087 217.321C459.374 228.061 455.645 238.795 451.954 249.541C449.427 256.899 447 264.291 444.435 271.635C442.343 277.625 432.269 280.571 427.461 276.375C426.078 275.167 425.191 272.655 425.182 270.736C425.043 239.993 425.051 209.25 425.113 178.507C425.125 172.974 427.511 171.279 434.409 171.329C440.56 171.374 442.743 173.097 442.687 178.494C442.5 196.612 442.167 214.729 441.892 232.716C444.503 225.165 447.232 217.302 449.939 209.434C453.461 199.193 456.879 188.916 460.507 178.714C462.959 171.816 469.136 169.181 476.062 171.779C479.782 173.175 480.292 176.293 480.3 179.636C480.325 189.883 480.311 200.13 480.311 210.378C480.311 229.65 480.108 248.925 480.398 268.193C480.538 277.511 475.976 279.344 466.586 277.148C464.88 276.749 462.738 273.367 462.735 271.358C462.703 256.077 463.139 240.795 463.469 225.513C463.527 222.836 463.776 220.163 463.937 217.489C463.653 217.433 463.371 217.377 463.087 217.321Z" fill="white"/>
<path fill-rule="evenodd" clip-rule="evenodd" d="M17.8546 85.5383C17.8546 89.8183 17.8546 94.0975 17.8546 98.3766C17.8564 108.726 18.1721 109.023 28.3701 108.275C33.8162 107.875 35.6931 105.972 35.7383 100.471C35.8076 92.0636 35.7587 83.6577 35.7587 75.2508C35.7587 63.8757 34.5335 62.8306 23.0477 63.0024C18.9624 63.0624 17.6819 64.7519 17.8093 68.574C17.9995 74.2232 17.8583 79.8835 17.8546 85.5383ZM0.00678348 62.3884C0.00586025 44.8019 -0.00614167 27.2154 0.0113996 9.62983C0.0206318 1.57192 1.56242 0.0439858 9.71264 0.0273678C20.9224 0.00244071 32.1322 -0.0271025 43.342 0.0439858C49.9292 0.0846077 51.6464 1.85351 51.6326 8.15636C51.6197 14.2219 49.7298 15.9622 43.0641 15.9807C36.4612 16.0001 29.8546 16.1026 23.2554 15.9401C19.6031 15.8505 17.7992 17.156 17.8426 20.9366C17.9256 28.1229 17.897 35.3112 17.8573 42.4985C17.8398 45.7575 19.3299 47.2023 22.635 47.1469C27.085 47.0712 31.5506 47.025 35.9885 47.3085C46.1514 47.9575 52.2899 52.5838 52.8669 62.5924C53.7523 77.9734 53.7698 93.4817 52.8605 108.861C52.2585 119.066 45.9224 123.819 35.0653 124.245C25.7121 124.611 16.3331 124.453 6.9679 124.306C1.88832 124.226 0.0344802 121.772 0.0215551 115.604C-0.0162971 97.8661 0.0077067 80.1273 0.00678348 62.3884Z" fill="white"/>
<path fill-rule="evenodd" clip-rule="evenodd" d="M179.786 70.6953C179.786 60.9147 179.827 51.134 179.771 41.3534C179.738 35.6515 177.67 33.8457 171.365 33.7432C164.765 33.6352 162.24 35.5528 162.22 41.1678C162.147 61.0347 162.154 80.9025 162.213 100.768C162.229 106.54 164.497 108.335 171.176 108.293C177.84 108.25 179.75 106.566 179.776 100.496C179.819 90.5631 179.787 80.6292 179.786 70.6953ZM144.55 70.8467C144.55 59.5206 144.435 48.1917 144.58 36.8665C144.737 24.5488 151.011 18.1287 163.332 17.8979C170.061 17.7724 176.884 17.7567 183.52 18.6993C191.98 19.8995 196.198 24.583 197.184 33.0204C197.821 38.4701 197.832 44.0086 197.857 49.5082C197.937 66.1918 197.887 82.8754 197.884 99.5608C197.884 101.091 197.925 102.625 197.831 104.15C196.93 118.721 190.953 124.377 176.226 124.324C170.409 124.301 164.523 124.342 158.795 123.505C149.626 122.166 144.841 116.513 144.662 107.12C144.432 95.0333 144.607 82.9382 144.607 70.8467H144.55Z" fill="white"/>
<path fill-rule="evenodd" clip-rule="evenodd" d="M106.946 224.548C106.946 214.614 106.991 204.68 106.928 194.747C106.892 189.138 104.745 187.333 98.3891 187.271C91.8166 187.208 89.3941 189.119 89.3756 194.831C89.311 214.699 89.3101 234.567 89.3766 254.433C89.396 260.116 91.7428 261.9 98.4722 261.82C104.923 261.744 106.898 260.065 106.931 254.348C106.987 244.416 106.946 234.482 106.946 224.548ZM71.7088 224.368C71.7088 213.041 71.5953 201.714 71.7402 190.388C71.8981 178.074 78.176 171.655 90.4992 171.426C97.2286 171.302 104.051 171.288 110.687 172.23C119.142 173.43 123.36 178.117 124.346 186.557C124.982 192.006 124.992 197.544 125.018 203.044C125.096 219.728 125.047 236.413 125.044 253.097C125.044 254.626 125.085 256.162 124.99 257.688C124.086 272.256 118.111 277.906 103.378 277.852C97.5619 277.831 91.6763 277.87 85.9477 277.033C76.7856 275.694 72.0006 270.036 71.8224 260.642C71.5925 248.554 71.7661 236.459 71.7661 224.368H71.7088Z" fill="white"/>
<path fill-rule="evenodd" clip-rule="evenodd" d="M53.4873 225.086C53.4863 239.929 53.5048 254.772 53.478 269.615C53.466 276.082 51.5559 277.872 44.8486 277.889C37.7601 277.91 35.8352 276.175 35.8287 269.511C35.8029 244.415 35.8204 219.32 35.814 194.224C35.813 187.871 35.273 187.305 29.14 187.269C16.0274 187.192 18.2589 187.028 18.2118 198.032C18.113 221.292 18.0197 244.553 18.257 267.81C18.3604 277.845 13.7 278.976 4.69946 277.45C0.643733 276.762 0.000244937 273.117 0.00209139 269.53C0.00855396 256.064 0.00301461 242.599 0.00301461 229.133C0.00301461 213.065 -0.00621763 196.997 0.00763073 180.93C0.0150165 173.223 1.86239 171.34 9.38944 171.332C21.0682 171.32 32.7461 171.317 44.4249 171.333C51.8864 171.343 53.479 172.967 53.4845 180.557C53.4956 195.4 53.4873 210.243 53.4873 225.086Z" fill="white"/>
<path fill-rule="evenodd" clip-rule="evenodd" d="M160.508 210.198C160.508 212.944 160.493 215.69 160.511 218.435C160.599 232.427 158.655 230.783 174.004 230.876C177.113 230.895 178.514 229.354 178.518 226.412C178.533 215.735 178.682 205.054 178.434 194.382C178.307 188.887 175.529 187.08 168.919 187.273C163.04 187.445 160.7 189.392 160.548 194.639C160.399 199.822 160.516 205.012 160.508 210.198ZM142.866 224.694C142.864 213.679 142.807 202.663 142.878 191.648C142.967 177.943 149.474 171.407 163.297 171.386C169.721 171.376 176.216 171.403 182.549 172.31C190.2 173.408 195.082 178.141 195.374 185.741C195.96 200.982 196.17 216.284 195.438 231.509C194.975 241.138 188.714 246.04 178.939 246.569C174.343 246.816 169.723 246.715 165.117 246.665C162.035 246.632 160.721 248.11 160.49 251.082C159.849 259.341 162.077 261.788 170.553 261.832C175.931 261.859 181.312 261.725 186.684 261.888C192.684 262.07 194.585 264.217 194.478 270.191C194.38 275.679 192.211 277.834 186.504 277.874C178.515 277.93 170.524 278.003 162.538 277.854C149.52 277.611 143.04 271.141 142.894 258.199C142.768 247.031 142.868 235.863 142.866 224.694Z" fill="white"/>
<path fill-rule="evenodd" clip-rule="evenodd" d="M215.698 70.9184C215.698 56.0794 215.706 41.2395 215.693 26.3987C215.69 23.2754 215.55 19.4385 219.168 18.7784C223.005 18.0786 227.229 18.5789 231.083 19.444C232.193 19.6933 233.186 22.9984 233.24 24.9298C233.476 33.3376 233.52 41.7611 233.278 50.168C233.149 54.6586 235.07 56.096 239.298 56.0729C252.715 55.9982 251.347 56.757 251.383 44.3064C251.401 37.7275 251.303 31.1468 251.46 24.5725C251.577 19.6988 253.598 17.965 258.735 17.8034C265.936 17.5763 268.417 19.0544 269.047 24.0389C269.199 25.2446 269.127 26.4817 269.127 27.705C269.131 56.6204 268.968 85.5367 269.219 114.448C269.305 124.497 264.553 125.22 256.005 124.019C252.036 123.46 251.364 120.171 251.377 116.672C251.42 104.128 251.396 91.582 251.38 79.0372C251.373 72.3041 251.025 71.9515 244.454 71.957C232.702 71.9681 233.3 70.6442 233.34 83.1206C233.376 93.9824 233.362 104.845 233.341 115.708C233.328 122.683 231.632 124.353 224.673 124.361C217.534 124.369 215.709 122.577 215.703 115.438C215.688 100.598 215.698 85.7583 215.698 70.9184Z" fill="white"/>
<path fill-rule="evenodd" clip-rule="evenodd" d="M355.744 224.37C355.742 209.376 355.717 194.381 355.755 179.386C355.77 172.943 357.597 171.322 364.519 171.329C371.241 171.336 373.35 173.213 373.395 179.477C373.455 187.891 373.309 196.309 373.506 204.72C373.541 206.238 374.8 207.727 375.494 209.23C376.718 208.047 378.531 207.084 379.071 205.647C382.453 196.652 385.765 187.618 388.68 178.465C391.114 170.818 397.499 170.336 403.999 171.928C407.152 172.702 408.002 175.174 406.84 178.468C403.038 189.261 399.143 200.037 395.907 211.001C394.857 214.558 394.773 218.974 395.88 222.488C400.872 238.343 406.483 254.006 411.796 269.761C413.674 275.331 411.834 277.734 405.832 277.889C397.994 278.091 396.212 276.951 393.664 269.589C389.224 256.756 384.882 243.89 380.493 231.04C380.149 230.031 380.018 228.764 379.322 228.104C378.221 227.06 376.727 226.428 375.398 225.623C374.738 226.867 373.545 228.096 373.508 229.358C373.314 235.932 373.413 242.514 373.411 249.094C373.41 256.132 373.483 263.171 373.385 270.208C373.302 276.158 371.04 277.938 364.04 277.889C357.695 277.845 355.781 276.165 355.762 270.273C355.712 254.972 355.745 239.671 355.744 224.37Z" fill="white"/>
<path fill-rule="evenodd" clip-rule="evenodd" d="M304.993 89.8738V99.0479C304.993 108.742 304.993 108.742 314.618 108.292C320.716 108.008 322.527 106.221 322.611 100.171C322.683 94.9737 322.628 89.776 322.627 84.5773C322.627 72.46 321.65 71.6245 309.474 71.8904C306.018 71.9651 304.849 73.3057 304.958 76.5739C305.107 81.0035 304.994 85.4405 304.993 89.8738ZM286.815 71.0096C286.814 56.3359 286.798 41.6621 286.822 26.9893C286.834 19.875 288.848 17.8208 295.675 17.8005C302.938 17.7783 304.946 19.7291 304.982 27.0124C305.023 34.9614 305.138 42.9131 304.934 50.8556C304.835 54.6611 306.369 56.0857 310.042 56.0589C314.641 56.0257 319.256 56.0737 323.841 56.4107C333.722 57.1382 339.813 63.0431 340.119 72.8754C340.477 84.3271 340.476 95.8065 340.13 107.259C339.815 117.7 333.525 123.678 322.235 124.211C312.74 124.66 303.205 124.452 293.692 124.298C288.833 124.219 286.849 121.658 286.832 115.947C286.784 100.968 286.815 85.9889 286.815 71.0096Z" fill="white"/>
<path fill-rule="evenodd" clip-rule="evenodd" d="M250.053 233.685C251.57 234.164 252.097 234.402 252.65 234.493C259.411 235.611 261.787 237.94 262.703 244.389C264.693 258.398 261.698 264.542 249.362 271.615C243.777 274.818 238.172 277.986 232.545 281.114C227.33 284.012 224.967 283.363 221.966 278.342C218.195 272.03 218.576 269.328 223.956 266.106C228.425 263.431 233.099 261.091 237.509 258.325C239.807 256.884 242.124 255.146 243.744 253.021C247.441 248.173 244.778 242.249 238.76 241.393C237.551 241.22 236.304 241.321 235.076 241.286C229.177 241.118 227.518 239.384 227.536 233.414C227.554 227.621 229.478 225.602 235.118 225.46C244.156 225.233 245.213 224.179 245.218 215.362C245.222 208.474 245.277 201.585 245.194 194.698C245.127 189.195 242.838 187.31 236.506 187.271C230.042 187.232 227.761 189.013 227.61 194.454C227.494 198.583 227.658 202.721 227.551 206.851C227.393 212.979 225.392 214.78 218.959 214.83C211.79 214.886 209.87 213.422 209.755 207.131C209.641 201.015 209.661 194.88 210.045 188.778C210.698 178.362 214.933 173.115 225.277 171.913C232.965 171.02 240.951 171.253 248.646 172.224C257.663 173.362 262.246 178.615 262.648 187.717C263.127 198.559 263.048 209.448 262.654 220.298C262.378 227.877 259.979 230.061 250.053 233.685Z" fill="white"/>
</svg>
