<svg width="201" height="102" viewBox="0 0 201 102" fill="none" xmlns="http://www.w3.org/2000/svg">
<path fill-rule="evenodd" clip-rule="evenodd" d="M6.62065 23.2197C6.62065 27.9283 6.60789 32.6368 6.62599 37.3453C6.63587 39.8606 7.1863 40.3462 9.8706 40.3438C12.4521 40.3413 13.1757 39.7252 13.1806 37.3214C13.2008 27.9047 13.2016 18.4873 13.1798 9.07024C13.1745 6.75274 12.3052 6.00281 9.84674 6.00488C7.32618 6.00735 6.63463 6.64702 6.62558 9.0942C6.60831 13.8023 6.62065 18.5112 6.62065 23.2197ZM0.0137744 23.0248C0.0137744 17.7663 -0.0240731 12.5073 0.0257047 7.2487C0.0672547 2.83875 1.77862 0.689725 6.06034 0.199547C8.68334 -0.101084 11.4104 -0.0556594 14.0293 0.292875C17.7964 0.794203 19.6884 2.84577 19.7299 6.61233C19.8513 17.6746 19.8521 28.7401 19.7311 39.8024C19.69 43.5789 17.7598 45.7238 14.0561 46.1516C11.2306 46.4782 8.30075 46.458 5.47781 46.1078C1.84486 45.6564 0.102634 43.4888 0.0512106 39.8251C-0.0277756 34.2258 0.0302299 28.6249 0.0302299 23.0248H0.0137744Z" fill="white"/>
<path fill-rule="evenodd" clip-rule="evenodd" d="M67.6446 79.3978C65.9299 84.3979 64.1486 89.5941 62.366 94.7899C61.9682 95.9495 61.4696 97.0847 61.1821 98.2707C60.377 101.586 58.297 101.543 55.6205 101.241C54.1424 101.073 53.7142 99.8705 53.7166 98.5065C53.722 95.4312 53.7171 92.3564 53.7171 89.2811C53.7166 81.2169 53.7101 73.1531 53.7203 65.0893C53.7245 61.9884 56.3129 60.3771 58.996 61.9562C59.6896 62.3642 60.2569 63.6068 60.2573 64.4658C60.2589 69.7223 60.0763 74.9788 59.966 80.2353C59.9422 81.3755 59.9623 82.5165 60.2359 83.7458C61.4692 80.1857 62.71 76.6285 63.9343 73.0652C64.9306 70.1658 65.8587 67.2417 66.9073 64.3613C67.8433 61.7902 70.1688 60.8078 72.6976 61.7927C74.2276 62.389 74.2547 63.6968 74.2543 65.029C74.2514 73.0247 74.2531 81.0203 74.2531 89.016C74.2531 92.0227 74.2679 95.0298 74.2481 98.0366C74.2317 100.627 73.5192 101.326 70.9702 101.334C68.3439 101.342 67.6565 100.705 67.6499 98.1229C67.6334 91.8464 67.6446 85.5699 67.6446 79.3978Z" fill="white"/>
<path fill-rule="evenodd" clip-rule="evenodd" d="M194.337 71.836C194.337 71.2244 194.274 70.6049 194.348 70.0024C194.565 68.2453 193.9 67.5887 192.067 67.649C187.39 67.8039 187.754 67.0614 187.745 71.8818C187.744 72.3579 187.788 72.8382 187.737 73.3086C187.533 75.2119 188.253 76.0002 190.279 75.9453C194.713 75.8255 194.335 76.2608 194.337 71.836ZM194.337 88.7246C194.337 87.8388 194.351 86.9522 194.334 86.0668C194.256 81.7985 195.337 81.7143 189.834 81.7498C188.225 81.7601 187.68 82.5059 187.727 84.0351C187.797 86.3501 187.733 88.6693 187.747 90.9864C187.777 95.6817 187.153 95.2576 192.202 95.3253C193.748 95.3459 194.483 94.8797 194.36 93.2213C194.249 91.7301 194.336 90.224 194.337 88.7246ZM196.41 78.8269C200.217 79.3724 200.929 82.0166 200.95 85.1071C200.97 88.2493 201.036 91.396 200.901 94.5332C200.711 98.9692 198.506 101.151 194.073 101.3C190.654 101.414 187.227 101.333 183.804 101.33C182.03 101.328 181.153 100.386 181.151 98.6562C181.14 87.2458 181.143 75.8358 181.145 64.4255C181.145 62.6076 182.015 61.6038 183.884 61.6C187.239 61.5934 190.598 61.5084 193.948 61.6347C198.507 61.8065 200.681 64.0055 200.917 68.5179C200.999 70.0842 200.986 71.6617 200.905 73.228C200.72 76.7898 199.872 77.7999 196.41 78.8269Z" fill="white"/>
<path fill-rule="evenodd" clip-rule="evenodd" d="M123.775 16.7533C123.78 12.1687 124.05 12.76 119.694 12.7245C119.353 12.7216 118.913 12.5932 118.692 12.7559C118.139 13.1623 117.314 13.6648 117.26 14.1963C117.082 15.9456 117.112 17.7312 117.251 19.4879C117.29 19.9917 117.886 20.7478 118.363 20.8742C122.463 21.9623 123.775 20.9262 123.775 16.7533ZM123.775 33.6093V31.156C123.775 26.6506 123.359 26.2967 118.857 26.7989C117.714 26.9269 117.147 27.3944 117.173 28.6159C117.224 31.0684 117.15 33.5239 117.193 35.9768C117.278 40.6944 116.206 40.3376 121.743 40.343C121.811 40.343 121.88 40.3368 121.948 40.3409C123.242 40.4161 123.821 39.8247 123.784 38.5169C123.738 36.8824 123.773 35.2455 123.775 33.6093ZM125.667 23.7442C129.577 25.2866 130.325 26.3682 130.366 30.4011C130.397 33.3355 130.434 36.2729 130.351 39.2053C130.22 43.9014 127.884 46.2437 123.214 46.3548C119.932 46.432 116.648 46.3569 113.365 46.3792C111.516 46.392 110.556 45.5537 110.556 43.6751C110.56 32.2086 110.558 20.7412 110.564 9.2747C110.564 7.49899 111.528 6.64748 113.254 6.64252C116.674 6.63137 120.099 6.53556 123.512 6.69042C127.791 6.8841 129.923 8.93649 130.302 13.1177C130.467 14.9446 130.454 16.8107 130.293 18.6389C130.004 21.9272 129.127 22.8539 125.667 23.7442Z" fill="white"/>
<path fill-rule="evenodd" clip-rule="evenodd" d="M161.369 81.4216C161.369 85.0391 161.352 88.6566 161.375 92.2736C161.39 94.76 161.992 95.2985 164.62 95.3035C167.216 95.3084 167.934 94.7159 167.944 92.2997C167.976 85.0647 167.979 77.8297 167.942 70.5947C167.93 68.2396 167.189 67.6702 164.54 67.6838C161.999 67.6974 161.396 68.2153 161.377 70.5691C161.347 74.1862 161.369 77.8037 161.369 81.4216ZM174.556 81.5525C174.556 85.5846 174.585 89.6171 174.549 93.6484C174.501 98.9206 172.128 101.302 166.872 101.319C164.62 101.326 162.336 101.383 160.123 101.046C156.739 100.53 154.932 98.667 154.876 95.251C154.727 86.0975 154.731 76.939 154.867 67.785C154.918 64.3347 156.806 62.3158 160.26 61.8793C162.953 61.539 165.74 61.4895 168.441 61.7558C172.568 62.1622 174.447 64.4689 174.532 68.8413C174.614 73.077 174.55 77.3156 174.55 81.5525H174.556Z" fill="white"/>
<path fill-rule="evenodd" clip-rule="evenodd" d="M87.4551 76.3066H87.449C87.449 77.263 87.4416 78.2194 87.4502 79.1754C87.4975 84.3435 86.7788 83.6394 92.2967 83.727C93.6687 83.7484 94.0719 83.1513 94.0562 81.8736C94.0085 78.0492 94.0669 74.2232 94.0254 70.398C94.0024 68.2684 93.361 67.7245 91.1041 67.6845C88.3306 67.6353 87.5572 68.161 87.4716 70.3645C87.3947 72.3422 87.4551 74.3256 87.4551 76.3066ZM100.634 75.7086C100.634 78.098 100.723 80.4914 100.615 82.8759C100.414 87.3188 98.3046 89.4385 93.8584 89.7569C92.4963 89.8548 91.1218 89.83 89.7548 89.7912C88.4741 89.7549 87.4732 89.8486 87.4259 91.55C87.3597 93.9278 87.9208 95.1365 89.6347 95.2253C92.0919 95.3525 94.5602 95.2422 97.0207 95.3248C99.5096 95.4086 100.801 97.1786 99.9267 99.4829C99.6441 100.227 98.6671 101.198 97.9805 101.221C94.1591 101.344 90.3028 101.471 86.5106 101.086C82.8114 100.711 81.0001 98.6128 80.9293 94.6872C80.7701 85.8822 80.7627 77.0705 80.9342 68.2655C81.0136 64.2057 82.9953 62.1727 86.9212 61.7581C89.4878 61.4868 92.1322 61.4889 94.6976 61.768C98.5461 62.1872 100.381 64.2681 100.583 68.1325C100.715 70.6515 100.608 73.1825 100.608 75.7082C100.617 75.7082 100.626 75.7082 100.634 75.7086Z" fill="white"/>
<path fill-rule="evenodd" clip-rule="evenodd" d="M46.5571 81.5061C46.5579 86.9013 46.574 92.297 46.5522 97.6923C46.539 100.943 44.3286 102.48 41.4041 101.053C40.6232 100.672 39.9889 99.2545 39.9305 98.2741C39.7437 95.1435 39.8581 91.9947 39.8577 88.8534C39.8572 82.5703 39.8585 76.2867 39.856 70.0036C39.8556 68.8292 40.0062 67.6857 38.1701 67.6432C36.3617 67.6006 36.2189 68.6607 36.0885 69.9731C35.302 77.9109 34.5586 85.8537 33.6622 93.7799C33.2142 97.7406 30.3921 99.9247 27.0635 101.523C25.5883 102.231 24.7844 101.202 24.1316 100.071C23.366 98.7449 22.3536 97.0291 24.018 96.0785C27.1664 94.2813 27.4642 91.4389 27.7345 88.4107C28.438 80.5303 29.1797 72.6531 29.8869 64.7727C30.116 62.2198 30.7384 61.6082 33.373 61.5954C36.6579 61.5797 39.9428 61.576 43.2277 61.5975C45.7705 61.6144 46.5275 62.3346 46.5447 64.9102C46.5818 70.4422 46.5563 75.9741 46.5571 81.5061Z" fill="white"/>
<path fill-rule="evenodd" clip-rule="evenodd" d="M107.049 81.3548C107.049 75.8909 107.036 70.4263 107.055 64.9625C107.064 62.3154 107.766 61.6081 110.26 61.5928C112.888 61.5763 113.657 62.3212 113.68 65.0005C113.704 67.8693 113.77 70.7418 113.656 73.6056C113.584 75.4367 114.313 75.964 116.067 75.9405C120.274 75.8839 120.275 75.9521 120.276 71.6866C120.276 69.2279 120.238 66.7683 120.293 64.3104C120.338 62.2708 121.187 61.6002 123.517 61.5924C125.884 61.5841 126.842 62.2357 126.849 64.2146C126.89 75.7576 126.892 87.3009 126.845 98.8438C126.837 100.764 125.871 101.357 123.416 101.334C121.167 101.312 120.322 100.686 120.3 98.7546C120.246 94.0424 120.281 89.3289 120.274 84.6159C120.271 81.9135 120.121 81.7731 117.329 81.7607C113.686 81.745 113.686 81.745 113.686 85.303C113.686 89.5375 113.704 93.7727 113.679 98.0072C113.662 100.677 112.924 101.355 110.211 101.334C107.696 101.314 107.063 100.663 107.054 97.9523C107.037 92.4199 107.049 86.8871 107.049 81.3548Z" fill="white"/>
<path fill-rule="evenodd" clip-rule="evenodd" d="M8.37348 76.0132C8.81407 75.1597 9.3497 74.3403 9.67799 73.4455C10.7797 70.442 11.7794 67.4015 12.8728 64.3943C13.7733 61.917 15.718 60.9507 18.2369 61.6862C20.1309 62.2391 19.8483 63.6196 19.3892 64.9919C18.2221 68.4784 17.122 71.9927 15.8023 75.4219C14.9664 77.5948 15.0104 79.5684 15.8076 81.7463C17.7033 86.9239 19.4423 92.1602 21.1721 97.3961C21.6123 98.7291 22.612 100.353 20.4288 101.194C18.3294 102.003 15.8393 101.197 15.1375 99.3725C14.0634 96.578 13.1645 93.7158 12.1981 90.88C11.3638 88.4316 10.602 85.9555 9.6677 83.5459C9.4147 82.8935 8.65034 82.4388 8.12089 81.8929C7.82716 82.5577 7.28989 83.2185 7.27919 83.8875C7.20514 88.5989 7.2508 93.3115 7.23435 98.0238C7.22489 100.639 6.44983 101.355 3.7499 101.334C1.24702 101.315 0.634469 100.716 0.632412 98.1613C0.62295 87.0296 0.62295 75.898 0.632823 64.7664C0.634469 62.2688 1.31161 61.6122 3.78364 61.5928C6.36468 61.5726 7.20884 62.3205 7.23188 64.7594C7.2615 67.9003 7.22406 71.0425 7.2578 74.1834C7.26356 74.7438 7.4746 75.3017 7.59143 75.8613C7.85184 75.9121 8.11266 75.9624 8.37348 76.0132Z" fill="white"/>
<path fill-rule="evenodd" clip-rule="evenodd" d="M143.563 33.5734C143.563 34.7995 143.562 36.0252 143.563 37.2512C143.565 40.3802 143.576 40.3922 146.784 40.3434C147.194 40.3372 147.602 40.312 148.011 40.2926C149.437 40.2257 150.113 39.4056 150.128 38.0548C150.16 35.1266 150.142 32.1975 150.14 29.2688C150.138 27.8846 149.388 27.1119 148.064 26.9249C147.26 26.8117 146.434 26.8357 145.619 26.8039C144.182 26.7489 143.473 27.3543 143.547 28.8744C143.623 30.4375 143.564 32.0067 143.563 33.5734ZM136.96 26.4595C136.96 20.9911 136.951 15.5232 136.964 10.0548C136.97 7.34828 137.711 6.61777 140.346 6.63305C142.851 6.64709 143.546 7.36067 143.559 9.99285C143.574 12.9323 143.602 15.8721 143.548 18.8103C143.519 20.3935 144.172 21.046 145.761 20.9659C147.264 20.8899 148.777 20.9069 150.28 20.9837C154.185 21.1823 156.482 23.2206 156.654 27.0748C156.848 31.4385 156.847 35.824 156.655 40.1886C156.483 44.0753 154.191 46.1504 150.09 46.3251C146.603 46.4733 143.104 46.4077 139.612 46.3556C137.662 46.3267 136.976 45.4913 136.967 43.2742C136.946 37.6691 136.96 32.0645 136.96 26.4595Z" fill="white"/>
<path fill-rule="evenodd" clip-rule="evenodd" d="M80.1936 33.5011C80.1936 35.2033 80.1936 36.9055 80.1936 38.6077C80.1936 38.6758 80.1668 38.7712 80.2014 38.8084C80.6774 39.32 81.0813 39.9845 81.67 40.2797C82.1621 40.5267 82.8734 40.3524 83.4871 40.3417C86.1624 40.2954 86.7461 39.7313 86.7758 37.1045C86.798 35.1298 86.7815 33.155 86.7807 31.1807C86.7791 27.2642 85.7699 26.3879 81.8486 26.7976C80.7025 26.9173 80.1269 27.3679 80.1771 28.5993C80.2434 30.2309 80.1936 31.867 80.1936 33.5011ZM73.5559 26.3892C73.5546 20.922 73.541 15.4549 73.5608 9.98822C73.5702 7.35356 74.2811 6.6441 76.7824 6.63295C79.4029 6.62098 80.1631 7.36719 80.1853 10.0617C80.2088 12.8632 80.28 15.6692 80.1603 18.4662C80.0813 20.3125 80.6617 21.1471 82.6014 20.9712C83.8915 20.8539 85.2026 20.9245 86.5026 20.9666C90.5001 21.0963 92.8466 22.8216 93.1605 26.7476C93.5237 31.2922 93.5295 35.909 93.1778 40.4548C92.8643 44.4997 90.454 46.268 86.1727 46.3572C82.9552 46.4237 79.7357 46.3944 76.517 46.3659C74.2807 46.3461 73.5814 45.6696 73.5682 43.4054C73.5345 37.7335 73.5571 32.0615 73.5559 26.3892Z" fill="white"/>
<path fill-rule="evenodd" clip-rule="evenodd" d="M62.3364 29.8626C64.5011 30.3004 66.4355 31.0152 66.6354 33.5342C66.8999 36.8767 67.3668 40.4157 63.9758 42.6168C61.0027 44.5469 57.8803 46.2549 54.7726 47.9678C52.9934 48.9486 52.1961 47.6098 51.4285 46.3185C50.5391 44.8219 50.119 43.3593 51.9094 42.2484C53.7656 41.0971 55.79 40.1956 57.5581 38.9303C58.5928 38.1899 59.685 37.0712 60.0178 35.9124C60.6168 33.8274 59.5089 32.9024 56.9427 32.8392C54.4538 32.7781 53.6228 32.0889 53.5471 30.022C53.4661 27.8135 54.365 26.9125 56.7847 26.7754C59.945 26.5966 60.1281 26.4095 60.1347 23.2715C60.14 20.6083 60.1038 17.9443 60.1429 15.2808C60.1696 13.4423 59.2699 12.7337 57.4956 12.7097C54.6735 12.6713 53.7207 13.1627 53.5965 15.142C53.4895 16.8426 53.534 18.5555 53.5681 20.2622C53.6076 22.2465 52.4516 22.8593 50.7061 22.9188C48.2596 23.0018 47.0727 22.4175 47.0155 20.6723C46.9242 17.8832 46.8399 15.0512 47.2188 12.3009C47.7042 8.77837 49.3329 7.20212 52.8617 6.85069C55.6937 6.56947 58.6158 6.60127 61.4375 6.96178C64.8561 7.39827 66.5905 9.54233 66.6885 12.9719C66.7954 16.7245 66.786 20.4832 66.7094 24.2374C66.6383 27.7446 65.769 28.7543 62.3364 29.8626Z" fill="white"/>
<path fill-rule="evenodd" clip-rule="evenodd" d="M34.3868 6.63249C36.9867 6.6329 39.5888 6.68948 42.1863 6.61225C43.8059 6.56394 44.4419 7.27298 44.3637 8.81083C44.3325 9.42407 44.3448 10.0402 44.3596 10.6543C44.395 12.1029 43.7298 12.7025 42.2472 12.7463C37.7182 12.8797 37.7198 12.9214 37.7194 17.5424C37.719 26.0092 37.733 34.4764 37.7087 42.9432C37.7009 45.6419 37.0044 46.3435 34.5452 46.3737C31.7194 46.4088 31.0385 45.7778 31.0319 42.9028C31.0109 33.7529 31.0262 24.6035 31.0212 15.4532C31.02 12.7302 31.0105 12.7302 28.3053 12.724C27.6894 12.7223 27.0719 12.6918 26.4585 12.7285C24.9389 12.8194 24.3452 12.0472 24.3954 10.6183C24.4144 10.0728 24.4366 9.52276 24.3897 8.98055C24.2362 7.21021 25.0063 6.52966 26.793 6.60523C29.3201 6.71136 31.8551 6.63208 34.3868 6.63249Z" fill="white"/>
<path fill-rule="evenodd" clip-rule="evenodd" d="M137.46 84.0383C137.457 79.3277 137.421 74.6163 137.477 69.9057C137.496 68.2663 136.947 67.4478 135.211 67.6745C134.74 67.7357 134.254 67.684 133.775 67.6836C130.923 67.6774 130.817 67.5688 130.813 64.6587C130.809 61.6173 130.831 61.593 133.898 61.5921C138.687 61.5901 143.48 61.695 148.264 61.5479C150.641 61.4748 150.757 62.7368 150.718 64.5047C150.652 67.4821 150.581 67.6452 148.295 67.6832C144.099 67.753 144.099 67.753 144.099 71.9854C144.099 80.5195 144.035 89.0545 144.127 97.5882C144.169 101.521 142.306 101.623 139.209 101.212C137.705 101.013 137.456 99.7005 137.459 98.3761C137.468 93.5966 137.462 88.8175 137.46 84.0383Z" fill="white"/>
<path fill-rule="evenodd" clip-rule="evenodd" d="M160.789 26.5042C160.789 20.9706 160.778 15.437 160.793 9.90343C160.8 7.34063 161.542 6.62911 164.101 6.63283C166.643 6.63613 167.374 7.34765 167.377 9.93441C167.386 21.0016 167.387 32.0688 167.376 43.1356C167.374 45.7162 166.671 46.3769 164.071 46.3736C161.491 46.3707 160.799 45.7009 160.793 43.1046C160.779 37.5715 160.789 32.0374 160.789 26.5042Z" fill="white"/>
<path fill-rule="evenodd" clip-rule="evenodd" d="M97.3388 26.2711C97.3393 20.875 97.3228 15.4781 97.3463 10.082C97.3582 7.31848 98.0711 6.62059 100.7 6.63297C103.254 6.64578 103.989 7.39859 103.992 10.1745C104.007 21.0352 104.005 31.8968 103.994 42.7579C103.991 45.7006 103.327 46.3816 100.607 46.3746C97.9234 46.3671 97.3495 45.7353 97.3421 42.6654C97.329 37.2008 97.3384 31.7357 97.3388 26.2711Z" fill="white"/>
</svg>
