<svg width="1097" height="353" viewBox="0 0 1097 353" fill="none" xmlns="http://www.w3.org/2000/svg">
<path fill-rule="evenodd" clip-rule="evenodd" d="M753.215 80.8053C758.54 83.3084 760.879 87.7422 761.66 93.0832C762.06 95.8142 761.988 98.6014 761.988 101.359C762.004 173.539 762.007 245.72 761.977 317.898C761.976 321.069 761.699 324.232 761.428 327.382C761.34 328.414 761.009 329.473 760.544 330.388C754.292 342.699 742.721 338.439 732.6 337.648L732.294 337.625C724.129 337.044 719.577 331.811 718.627 323.624C718.26 320.459 718.394 317.255 718.367 314.071L718.328 309.198C718.035 269.401 718.397 229.658 722.563 190.226C722.683 189.084 722.468 187.891 721.377 186.421C720.505 188.615 719.551 190.777 718.771 193.006C709.02 220.883 699.273 248.762 689.536 276.644L674.938 318.472C670.69 330.656 665.319 334.441 652.238 334.149L651.839 334.139C630.905 333.547 627.076 329.887 627.002 309.667L627 309.049C627 237.931 627 166.812 627.006 95.6947C627.007 92.936 627.059 90.1772 627.193 87.4288C627.255 86.1708 627.445 84.8934 627.798 83.6995C630.223 75.4859 636.349 73.1054 651.856 74.2826L652.611 74.3446C663.294 75.2906 668.042 78.681 669.767 86.8313C670.382 89.7392 670.596 92.7565 670.623 95.7098L670.665 100.685C670.982 142.139 670.512 183.531 666.144 224.596C666.079 225.204 666.246 225.846 666.304 226.472L667.506 226.848C672.792 211.964 678.136 197.104 683.349 182.192C693.349 153.597 703.247 124.963 713.241 96.3665C719.282 79.0754 735.901 72.6664 753.215 80.8053ZM233.424 55.2588C255.595 58.8002 267.245 73.4661 268.112 95.8342C268.903 116.243 268.998 136.647 269 157.044L268.991 178.207C268.973 187.069 268.777 196.035 267.203 204.608C263.45 225.033 252.045 235.148 231.196 236.377C218.783 237.108 206.176 236.085 193.654 235.747L193.088 235.734C184.374 235.567 182.615 237.279 182.482 246.212L182.478 246.499C182.23 268.952 185.226 272.151 207.513 273.255C220.9 273.916 234.29 274.468 247.675 275.294C259.262 276.01 264.246 281.368 264.543 292.978C264.603 295.316 264.599 297.659 264.464 299.983C263.934 309.07 259.335 314.041 250.211 314C238.545 313.946 226.847 313.214 215.162 312.6C203.902 312.009 192.623 311.58 181.39 310.404C155.604 307.702 140.302 292.146 139.565 266.205C138.732 236.865 139.373 207.556 139.373 178.235L139.025 178.216C139.025 152.93 138.937 127.637 139.09 102.358C139.127 96.2284 139.426 90.0169 140.531 84.0589C144.158 64.5039 153.936 53.5884 173.796 52.4796C193.494 51.3794 213.762 52.1177 233.424 55.2588ZM924.024 89.2925C930.409 92.2925 932.657 97.3226 930.329 104.831C927.794 113.017 924.795 121.04 921.995 129.133C915.371 148.284 908.875 167.484 902.053 186.557C899.392 194.002 899.436 201.191 902.051 208.911C915.461 248.465 928.64 288.087 941.934 327.674C947.026 342.842 942.931 348.542 927.127 347.96L926.644 347.94C924.514 347.847 922.38 347.756 920.256 347.539C908.582 346.345 903.423 342.373 899.569 331.027C889.801 302.272 880.174 273.474 870.489 244.693C868.362 238.37 866.498 231.953 863.998 225.763C862.85 222.918 860.923 219.896 858.523 218.059C854.401 214.903 849.893 216.864 848.916 221.806C848.474 224.047 848.572 226.439 848.571 228.769C848.552 260.401 848.617 292.038 848.479 323.664C848.462 327.629 848.207 331.922 846.676 335.4C842.126 345.732 832.291 343.087 823.641 342.82L822.811 342.795C815.623 342.53 808.972 340.607 806.35 332.6C805.242 329.214 805.069 325.453 805.06 321.89C804.973 285.157 805.006 248.43 805.007 211.702L805 156.926C805 138.668 805.002 120.41 805.018 102.152C805.03 86.8846 809.578 82.5074 824.865 83.0429L825.332 83.0606C827.035 83.1302 828.742 83.1898 830.443 83.3374C843.472 84.4651 848.422 89.6305 848.511 102.801C848.654 123.613 848.55 144.415 848.567 165.221C848.57 167.342 848.215 169.617 848.899 171.552C849.605 173.544 851.086 176.171 852.766 176.752C854.522 177.357 857.559 176.485 858.876 175.131C860.712 173.245 861.888 170.559 862.839 167.974L862.98 167.587C870.581 146.575 878.057 125.514 885.565 104.465C891.411 88.0683 907.712 81.6347 924.024 89.2925ZM1063.08 96.2491C1081.32 98.578 1091.76 111.683 1095.13 129.533C1096.39 136.229 1096.83 143.121 1096.89 149.891C1097.08 175.191 1096.96 200.478 1096.96 225.77C1096.96 251.062 1097.03 276.358 1096.92 301.644C1096.89 307.15 1096.68 312.713 1095.83 318.102C1092.4 339.915 1082.05 351.334 1060.01 352.572C1041.21 353.629 1021.86 352.737 1003.07 349.803C980.092 346.214 968.174 332.224 966.906 308.731C965.667 285.791 965.75 262.758 966.843 239.918C967.785 220.182 980.255 207.707 996.947 199.059C1011.24 191.652 1025.61 184.361 1039.77 176.729C1052.19 170.039 1057.45 153.082 1051.01 140.014C1049.66 137.259 1046.46 134.762 1043.56 133.423C1040.54 132.029 1036.86 131.9 1033.47 131.702C1019.35 130.882 1005.23 130.38 991.112 129.493C981.156 128.868 975.991 124.048 974.948 114.246C974.505 110.07 974.904 105.762 975.519 101.63C976.512 94.9611 980.839 90.6747 987.537 91.0194C1012.73 92.3124 1038.01 93.049 1063.08 96.2491ZM35.388 1.17489C53.6377 2.06581 71.8885 2.95337 90.139 3.84924L117.514 5.20076C129.412 5.79201 130.906 7.16368 130.97 18.7425L130.973 19.4642C130.977 24.7734 131.049 30.086 130.942 35.3873L130.927 35.9302C130.681 42.6801 128.401 44.6329 121.204 44.3853C113.72 44.1263 106.233 43.6357 98.748 43.3332L98.1706 43.3129C89.6507 43.0625 87.4308 45.2188 87.3757 53.829L87.3747 54.1184C87.3573 73.8637 87.3535 93.6094 87.3538 113.355L87.358 172.592C87.3567 210.809 87.376 249.029 87.3464 287.245C87.3348 302.129 82.7634 306.483 67.9327 305.959L66.7269 305.913C47.3538 305.069 43.6803 300.856 43.6803 280.784L43.6798 167.086L43.6764 53.3897C43.6752 42.1499 42.1436 40.5798 30.7023 39.9915C23.6447 39.6294 16.5859 39.3861 9.52961 38.8987C2.78427 38.4341 0.310977 35.8932 0.125962 29.126C-0.0539135 22.5407 -0.0243624 15.9541 0.10926 9.38156C0.25573 2.22515 2.56071 -0.140667 9.7249 0.00639929C18.2729 0.186044 26.8337 0.757364 35.388 1.17489ZM416.652 65.3315C423.081 67.5246 424.464 73.4636 421.535 81.129C414.598 99.2752 407.409 117.313 400.322 135.397C395.293 148.23 390.393 161.122 385.193 173.881C382.025 181.647 382.092 189.275 385.166 197.391C398.467 232.509 411.594 267.685 424.744 302.853C430.194 317.433 425.882 323.514 410.575 322.966C408.013 322.874 405.445 322.758 402.89 322.482C391.157 321.215 385.094 316.007 381.844 304.507C377.207 288.096 372.573 271.685 367.929 255.276L360.956 230.665C360.396 228.695 359.6 226.783 358.409 223.413L347.404 260.591C344.325 270.974 341.274 281.207 338.182 291.425C336.313 297.599 334.331 303.811 331.577 309.583C328.892 315.208 323.738 318.062 317.209 318.035L314.108 318.027C310.659 318.016 307.205 317.969 303.772 317.616C291.772 316.386 287.351 309.602 291.549 298.557C299.045 278.836 306.793 259.22 314.455 239.568C319.994 225.361 325.279 211.035 331.219 197.012C335.219 187.566 334.942 178.55 331.101 168.699C319.414 138.727 308.222 108.584 296.843 78.5033C291.24 63.6881 295.61 57.4771 311.224 58.0343C330.812 58.7327 335.848 62.8299 341.053 81.8865C346.643 102.358 352.371 122.798 358.04 143.249L359.324 143.225L361.548 135.112C362.289 132.408 363.035 129.705 363.798 127.007C368.305 111.084 373.042 95.2325 377.304 79.2334C382.545 59.5653 400.2 59.7196 416.652 65.3315ZM583.996 96.8075C583.634 161.992 583.823 227.206 583.837 292.411L583.836 308.712C583.834 311.682 583.834 314.693 583.37 317.59C582.029 325.932 577.84 329.701 569.37 329.957C564.702 330.097 559.963 329.893 555.292 329.347C545.517 328.201 540.782 322.94 540.237 313.067C540.12 310.94 540.169 308.81 540.168 306.683L540.164 216.569C540.128 201.785 539.409 200.715 525.412 199.957L522.5 199.809C517.586 199.568 512.672 199.287 507.758 199.099L507.187 199.081C498.959 198.863 496.748 201.079 496.735 209.57C496.688 241.484 496.732 273.401 496.681 305.313C496.676 308.484 496.571 311.718 495.945 314.782C494.523 321.754 490.471 325.303 483.277 325.595C478.192 325.8 473.021 325.607 467.927 325.015C458.498 323.919 453.788 318.706 453.117 309.179C452.953 306.84 453.009 304.495 453.009 302.156C453.004 266.198 453.006 230.24 453.006 194.283L453.002 121.517C453.003 109.39 453.006 97.2621 453.012 85.1348C453.02 68.6349 457.413 64.3791 473.905 65.0701L476.119 65.1704C477.259 65.2245 478.399 65.2902 479.535 65.4109C491.505 66.6732 496.535 71.8604 496.643 83.8784C496.811 102.797 496.715 121.705 496.716 140.619L496.722 147.711C496.74 157.629 498.397 159.379 508.21 159.948C513.507 160.256 518.806 160.518 524.105 160.756L528.08 160.931C538.159 161.366 540.094 159.7 540.151 149.996L540.152 149.699C540.183 134.382 540.165 119.062 540.172 103.743L540.194 87.2401C540.203 84.8652 540.26 82.4662 540.741 80.1973C542.044 74.0479 545.823 69.9882 552.306 69.5937C579.709 67.9272 584.041 73.472 584 96.1161L583.996 96.8075ZM1052.59 217C1042.99 222.035 1034.26 226.97 1025.26 231.295L1023.91 231.939C1014.36 236.446 1010.12 243.927 1010.1 254.394C1010.09 268.17 1009.9 281.94 1010.08 295.725C1010.23 307.249 1015.35 312.523 1026.83 313.595C1028.24 313.726 1029.65 313.794 1031.06 313.852L1033.18 313.94C1047.99 314.598 1052.94 309.935 1052.97 295.018C1053 280.775 1053 266.53 1053 252.285L1052.97 223.795C1052.97 221.947 1052.77 220.091 1052.59 217ZM199.351 91.0079C187.223 90.7772 182.192 95.5967 182.067 107.967C181.937 120.721 182.037 133.489 182.031 146.249C182.031 157.238 181.991 168.225 182.023 179.215L182.053 185.81C182.105 194.352 184.032 196.348 192.619 196.906C198.418 197.283 204.218 197.553 210.017 197.809L212.916 197.936C223.054 198.381 224.921 196.693 224.975 186.425L224.976 186.112C225.018 163.144 224.992 140.172 224.991 117.201L224.986 115.914C224.827 95.2436 220.659 91.4162 199.351 91.0079Z" fill="#263D58"/>
</svg>
