<svg width="19" height="16" viewBox="0 0 19 16" fill="none" xmlns="http://www.w3.org/2000/svg">
<path fill-rule="evenodd" clip-rule="evenodd" d="M0.886987 6.60685L17.7172 0.10553C18.4859 -0.243876 19.2278 0.290561 18.9344 1.46879L16.0683 14.9954C15.8683 15.9566 15.2881 16.1866 14.4847 15.7427L10.1185 12.5118L10.0402 12.5881C9.04663 13.5556 8.17062 14.4086 8.01988 14.5563C8.01449 14.5616 8.00912 14.5668 8.00378 14.5721C7.76792 14.803 7.5732 14.9937 7.14613 14.9937C6.7028 14.9937 6.66582 14.8624 6.57674 14.546C6.55211 14.4585 6.52349 14.3568 6.48119 14.2399L4.87512 9.30834L0.677612 7.99622C-0.254891 7.71009 -0.261704 7.06843 0.886987 6.60685ZM14.9951 3.02866L5.53387 9.00688L7.12819 13.9021L7.44363 10.5326L15.5449 3.21213C15.9005 2.89602 15.4674 2.74179 14.9951 3.02866Z" fill="#ABB6CB"/>
</svg>
