<svg width="735" height="109" viewBox="0 0 735 109" fill="none" xmlns="http://www.w3.org/2000/svg">
<path fill-rule="evenodd" clip-rule="evenodd" d="M12.2715 27.3937C12.2715 28.475 12.2682 29.5563 12.265 30.6376C12.256 33.5932 12.247 36.5487 12.305 39.5031C12.3233 40.4462 12.7026 42.1723 13.0179 42.196C13.4544 42.2292 13.8941 42.2668 14.3356 42.3046C16.9059 42.5244 19.5348 42.7493 21.9301 42.141C23.1061 41.8434 24.2273 38.9727 24.3179 37.2176C24.535 32.9996 24.4975 28.7682 24.4601 24.5367C24.4461 22.9625 24.4322 21.3883 24.4314 19.8148C24.4283 12.4427 22.7816 11.0065 15.3722 11.6223C13.1916 11.8032 12.1953 12.6449 12.2471 14.9059C12.3158 17.8815 12.3003 20.8595 12.2847 23.8372V23.8373V23.8374V23.8375V23.8376V23.8377C12.2786 25.0231 12.2724 26.2085 12.2715 27.3937ZM0.0202426 43.465C0.0200289 40.0273 0.0184371 36.5897 0.0168452 33.1521C0.0127618 24.3339 0.00867841 15.5158 0.0278591 6.69817C0.0385224 1.69846 0.982216 0.807942 6.08228 0.795733C7.3894 0.792311 8.69663 0.786548 10.0039 0.780784C14.5263 0.760847 19.0493 0.740907 23.5699 0.817862C31.7105 0.95598 36.4092 5.3872 36.5943 13.4782C36.8045 22.6962 36.8015 31.9257 36.5966 41.1445C36.4184 49.1835 31.773 53.5827 23.6301 53.9024C21.2256 53.997 18.805 54.0733 16.4096 53.9047C13.3333 53.688 12.123 54.7754 12.2083 57.9933C12.3671 63.9791 12.3253 69.9711 12.2835 75.9621C12.2742 77.2999 12.2649 78.6377 12.2578 79.9754C12.2281 85.5787 7.19811 88.6097 2.35853 85.6337C1.04315 84.8255 0.146678 82.3394 0.120781 80.6072C-0.0219923 71.2135 -0.00596575 61.8166 0.0100604 52.42C0.0151515 49.4349 0.0202426 46.4499 0.0202426 43.465ZM587.567 64.9553L587.566 65.0259C587.545 73.1635 587.523 81.3013 587.625 89.4372C587.702 95.6364 585.2 100.084 579.749 103.002C577.298 104.312 574.875 105.692 572.542 107.2C569.746 109.007 567.68 108.613 565.896 105.734C563.26 101.479 563.199 99.239 566.135 97.1382C566.961 96.5465 567.839 96.0147 568.715 95.4837L568.716 95.4834C570.122 94.6314 571.525 93.7814 572.708 92.6894C573.562 91.9011 574.05 90.7184 574.537 89.5355L574.537 89.535C574.756 89.005 574.974 88.475 575.226 87.9804C574.746 87.8205 574.269 87.6344 573.792 87.4484L573.791 87.4481C572.738 87.0369 571.684 86.6257 570.596 86.4955C569.125 86.3192 567.638 86.2593 566.151 86.1994C564.35 86.1267 562.549 86.0541 560.78 85.7744C554.576 84.793 551.082 80.7128 551.027 74.1977C550.931 62.9559 550.937 51.7142 550.943 40.4725C550.946 36.0481 550.948 31.6238 550.944 27.1994C550.943 26.3425 550.939 25.4854 550.935 24.6284C550.925 22.4528 550.915 20.2774 550.96 18.1035C551.04 14.2614 552.335 13.0649 556.346 12.9603C561.259 12.8321 562.971 14.0286 563.146 17.9791C563.24 20.1013 563.22 22.2288 563.199 24.3562C563.191 25.2626 563.182 26.1691 563.182 27.0751C563.183 30.4599 563.178 33.8448 563.174 37.2296C563.159 47.8685 563.145 58.507 563.284 69.1438C563.309 71.0164 564.303 74.116 565.508 74.4808C568.193 75.292 571.288 74.9698 574.185 74.6681L574.373 74.6486C574.821 74.6021 575.301 72.2396 575.306 70.9469C575.351 58.5357 575.35 46.1246 575.349 33.7131C575.349 29.0685 575.349 24.4239 575.351 19.7792C575.354 13.741 578.636 11.3502 584.423 13.1786C587.067 14.0134 587.612 16.0745 587.603 18.5606C587.575 27.3497 587.579 36.1387 587.582 44.9281C587.583 48.2675 587.585 51.6071 587.584 54.9466C587.584 58.2827 587.575 61.619 587.567 64.9553ZM611.983 49.33V68.2766C611.983 75.648 612.562 76.131 620.076 75.2115C622.574 74.9062 624.092 73.6166 624.098 71.0626C624.138 56.7892 624.133 42.5157 624.106 28.2423C624.101 25.644 622.615 24.3261 620.058 24.2056C619.459 24.177 618.858 24.1777 618.258 24.1784C617.464 24.1793 616.669 24.1802 615.88 24.1132C612.9 23.8599 611.872 25.1655 611.935 28.1095C612.045 33.1811 612.023 38.255 612.001 43.3293C611.992 45.3296 611.983 47.3298 611.983 49.33ZM599.741 49.0683L599.741 48.2889C599.738 38.6561 599.735 29.0235 599.747 19.3913C599.754 14.1214 600.915 12.9814 606.244 12.9623C607.262 12.9586 608.281 12.9537 609.299 12.9489C613.729 12.9278 618.159 12.9067 622.588 12.9799C631.906 13.1355 636.323 17.5233 636.363 26.7695C636.427 41.9266 636.418 57.0845 636.368 72.2423C636.337 81.6496 632.325 85.8229 622.88 86.3899C620.607 86.5265 618.308 86.5845 616.043 86.4028C612.804 86.1434 611.758 87.5818 611.945 90.6364C612.105 93.2283 612.046 95.8374 611.987 98.4405C611.98 98.7436 611.973 99.0465 611.967 99.3493C611.88 103.35 610.313 104.695 605.893 104.695C601.505 104.695 599.786 103.31 599.769 99.3478C599.726 89.6505 599.732 79.9529 599.739 70.2555C599.742 66.311 599.744 62.3665 599.744 58.4222C599.743 55.3042 599.742 52.1863 599.741 49.0683ZM217.479 54.5034C218.63 51.1479 219.782 47.7923 220.93 44.4356L220.933 44.4361C221.096 44.4649 221.26 44.4938 221.424 44.5234C221.424 44.844 221.426 45.1648 221.428 45.4855V45.4869C221.434 46.1694 221.439 46.8519 221.421 47.5337L221.305 51.8422L221.304 51.8734C221.045 61.5369 220.786 71.2011 220.507 80.8636C220.405 84.4219 222.047 86.2449 225.653 86.4456C230.922 86.7394 232.823 85.0568 232.831 79.674C232.858 59.7097 232.847 39.7454 232.836 19.7811V19.7576C232.834 16.7579 232.711 13.7666 228.852 13.0394C223.758 12.081 220.806 13.4347 219.315 17.5965C217.943 21.4262 216.631 25.2766 215.318 29.1269C214.597 31.2407 213.876 33.3545 213.146 35.4648C211.607 39.9111 210.059 44.3542 208.501 48.8259C207.764 50.9419 207.024 53.0644 206.283 55.1966C206.359 51.733 206.438 48.2902 206.518 44.8623L206.518 44.8492L206.519 44.8374L206.519 44.8271L206.519 44.8176L206.519 44.809L206.519 44.8015L206.52 44.7952L206.52 44.789C206.72 36.125 206.919 27.5557 207.05 18.9861C207.122 14.2924 205.62 12.9631 200.869 12.9593C195.997 12.9547 194.85 14.0642 194.846 18.9998C194.83 39.3512 194.832 59.7026 194.844 80.0532C194.847 85.2277 196.287 86.5303 201.388 86.4593C205.277 86.4059 207.322 84.3906 208.504 80.8629C211.451 72.0663 214.463 63.291 217.474 54.5157L217.475 54.5136L217.478 54.5055L217.479 54.5034ZM415.77 44.3268C414.622 47.6789 413.472 51.0297 412.321 54.3806L412.317 54.3934C409.309 63.1524 406.302 71.911 403.352 80.6892C402.244 83.9872 400.502 86.2162 396.744 86.4497C391.358 86.7854 389.637 85.2692 389.635 79.8567C389.626 59.6319 389.624 39.4065 389.637 19.1817C389.64 14.15 390.761 12.9893 395.478 12.9596C400.451 12.9275 401.923 14.2423 401.845 19.184C401.711 27.6724 401.513 36.16 401.313 44.7141L401.313 44.7246C401.232 48.2117 401.15 51.7098 401.073 55.2236C401.793 53.1588 402.512 51.0999 403.229 49.0448L403.235 49.0284C404.797 44.5558 406.353 40.1011 407.898 35.6429C408.669 33.4166 409.43 31.1869 410.191 28.9572L410.193 28.9533L410.194 28.949L410.195 28.9468C411.468 25.2166 412.742 21.4864 414.062 17.7723C415.591 13.4724 418.238 12.1805 423.463 13.0176C427.593 13.6791 427.626 16.8375 427.628 19.9547L427.63 23.4849C427.641 42.2796 427.652 61.075 427.619 79.8704C427.611 84.9197 425.885 86.5527 421.009 86.436C416.756 86.3345 415.267 85.0342 415.341 80.6678C415.473 72.9386 415.704 65.2104 415.935 57.4821V57.4809V57.4796V57.4783V57.4771V57.4758V57.4746V57.4733V57.472V57.4708V57.4695V57.4683C416.036 54.0913 416.137 50.7143 416.23 47.3372C416.248 46.6769 416.243 46.0156 416.238 45.3544V45.352C416.236 45.0458 416.233 44.7396 416.233 44.4336C416.079 44.3978 415.924 44.3627 415.77 44.3268ZM722.188 30.8652C722.198 31.2222 722.207 31.5791 722.207 31.9349C722.207 39.1048 718.835 41.5589 711.911 39.2399C711.106 38.9705 710.289 37.7274 710.117 36.8156C709.888 35.6056 709.934 34.3404 709.98 33.0802L709.981 33.0777C709.995 32.6903 710.009 32.3035 710.015 31.9189C710.034 30.7191 710.018 29.7058 710.005 28.8496V28.8482V28.8469V28.8457V28.8445V28.8435V28.8425V28.8416V28.8408V28.84V28.8394C709.972 26.6998 709.954 25.5435 710.521 24.911C711.187 24.1674 712.661 24.1476 715.868 24.1044C716.498 24.0959 717.195 24.0865 717.965 24.0706C721.364 24.0011 722.561 25.338 722.226 28.5361C722.145 29.3056 722.167 30.0855 722.188 30.8652ZM722.208 58.3856V62.9175C722.207 63.743 722.202 64.5686 722.197 65.3943V65.4002C722.184 67.4674 722.171 69.5348 722.222 71.6007C722.281 74.0616 721.407 75.3115 718.71 75.2749C717.641 75.2607 716.701 75.2601 715.876 75.2596C712.742 75.2576 711.259 75.2566 710.569 74.5165C709.949 73.8519 709.968 72.5915 710.003 70.1994V70.1985C710.017 69.3136 710.032 68.2737 710.019 67.0519C709.999 65.28 710.011 63.5074 710.024 61.7351C710.042 59.1011 710.06 56.4675 709.974 53.8369C709.88 51.0158 711.07 50.139 713.789 50.0962L714.027 50.0924C718.078 50.0263 720.123 49.9929 721.155 50.9988C722.208 52.0242 722.208 54.1294 722.208 58.3804V58.3856ZM734.365 56.2078C734.373 49.2881 732.648 47.1317 725.725 44.7554C732.435 42.6409 734.075 40.5425 734.377 33.9899C734.493 31.4709 734.476 28.939 734.402 26.4178C734.14 17.6271 729.752 13.2028 720.93 12.9952C716.293 12.8858 711.652 12.9161 707.013 12.9464L707.012 12.9464C705.954 12.9533 704.895 12.9602 703.837 12.9654C698.961 12.9899 697.757 14.1314 697.74 18.9785C697.708 28.0575 697.713 37.1372 697.718 46.2169C697.72 49.6344 697.722 53.052 697.722 56.4695C697.722 58.9017 697.727 61.3338 697.731 63.7659C697.74 69.4132 697.749 75.0602 697.708 80.7065C697.686 83.755 698.679 86.2778 701.96 86.2885C709.789 86.3144 717.65 86.2595 725.435 85.5574C729.934 85.1522 733.224 81.9213 733.642 77.3406C734.282 70.3301 734.358 63.2556 734.365 56.2078ZM673.127 49.8465C673.127 47.8393 673.133 45.8321 673.14 43.8248C673.156 39.1341 673.171 34.4434 673.102 29.7545C673.031 25.041 671.937 24.126 667.068 24.1299C662.384 24.1329 660.958 25.2821 660.929 29.7759C660.841 43.0444 660.839 56.3136 660.932 69.5813C660.964 74.0026 662.504 75.2449 667.096 75.2449C671.869 75.2441 673.031 74.2491 673.102 69.5592C673.171 64.9585 673.156 60.3563 673.14 55.7543C673.133 53.7849 673.127 51.8156 673.127 49.8465ZM648.573 49.4596C648.573 47.2639 648.568 45.068 648.562 42.872C648.55 37.9887 648.537 33.1051 648.586 28.223C648.696 17.3323 653.037 12.9866 663.85 12.9835C664.273 12.9834 664.696 12.9822 665.12 12.9811C668.626 12.9719 672.159 12.9626 675.594 13.4902C681.422 14.3868 684.813 17.8505 685.001 23.6896C685.373 35.244 685.422 46.8096 685.47 58.3729V58.3739V58.3749V58.3758V58.3768V58.3777V58.3787V58.3797V58.3806V58.3816C685.478 60.081 685.485 61.7804 685.493 63.4797C685.514 67.7675 685.376 72.0743 684.975 76.3407C684.52 81.1878 681.181 85.1337 676.348 85.5892C670.476 86.1417 664.481 86.1974 658.606 85.6976C653.129 85.2329 649.61 81.8524 649.296 76.3323C649.002 71.1731 648.872 63.0065 648.776 57.029V57.0283C648.707 52.6592 648.656 49.4599 648.573 49.4596ZM145.723 40.7115C145.726 43.6661 145.729 46.6206 145.729 49.5752C145.729 52.2507 145.726 54.9262 145.724 57.6018C145.718 65.0404 145.712 72.4792 145.753 79.9176C145.753 80.0041 145.754 80.0907 145.754 80.1774C145.763 82.467 145.771 84.8197 148.569 85.9483C153.888 88.0941 158.007 85.5217 158.115 79.8627C158.144 78.2945 158.137 76.7252 158.13 75.1556C158.127 74.4492 158.124 73.7427 158.125 73.0362C158.125 69.1158 158.129 65.1955 158.133 61.2752C158.145 50.2773 158.157 39.2795 158.08 28.2822C158.058 25.2199 159.016 23.7373 162.215 24.115C162.725 24.1746 163.244 24.1581 163.762 24.1417L163.763 24.1417C164.007 24.1339 164.252 24.1262 164.496 24.1264C170.355 24.1318 170.359 24.1318 170.361 30.0304C170.363 34.9936 170.362 39.9569 170.361 44.9201C170.358 56.898 170.355 68.8758 170.394 80.8532C170.409 85.102 171.885 86.3901 176.229 86.4366C180.659 86.484 182.614 84.9517 182.629 80.8265C182.703 60.0928 182.699 39.3583 182.636 18.6246C182.623 14.375 181.09 12.9976 176.789 12.9725C169.469 12.9291 162.149 12.9429 154.828 12.9566L152.441 12.961C146.897 12.9709 145.765 14.0515 145.741 19.612C145.71 26.6449 145.716 33.6782 145.723 40.7115ZM340.536 40.6987L340.536 40.6626C340.553 33.6488 340.571 26.635 340.49 19.6227C340.415 13.0633 343.312 12.0102 349.804 13.457C351.168 13.7607 352.624 16.8726 352.768 18.7841C353.171 24.1898 353.036 29.6481 352.874 35.0774C352.777 38.3098 353.878 39.5407 357.258 39.4911L357.69 39.4849C361.381 39.4323 363.246 39.4058 364.188 38.4602C365.151 37.4948 365.152 35.5716 365.156 31.6849V31.6786C365.158 29.4963 365.166 27.3141 365.174 25.132L365.174 25.1055V25.1051V25.1048V25.1044V25.1041V25.1037V25.1034C365.183 22.6186 365.192 20.134 365.192 17.6494C365.193 14.7466 366.61 13.0961 369.524 13.006C369.821 12.9968 370.122 12.9829 370.423 12.9689C373.292 12.8358 376.239 12.6992 377.202 16.5979C377.411 17.4441 377.451 18.3476 377.451 19.2252L377.452 21.1461C377.465 40.7283 377.479 60.3111 377.449 79.894C377.442 85.0112 375.55 86.706 370.439 86.4336C366.596 86.2283 365.228 84.9464 365.192 81.0333C365.112 72.3128 365.05 63.5892 365.205 54.871C365.269 51.267 364.017 49.9644 360.317 50.0674L359.809 50.0812C352.923 50.267 352.918 50.2671 352.917 57.5029C352.916 59.7678 352.92 62.0328 352.925 64.2979C352.934 69.49 352.943 74.6823 352.898 79.8741C352.848 85.5248 348.668 88.0964 343.354 85.9452C340.563 84.8158 340.555 82.4666 340.546 80.1802C340.546 80.0908 340.546 80.0015 340.545 79.9123C340.504 72.475 340.51 65.0377 340.516 57.6004L340.517 57.4905C340.519 54.8528 340.521 52.2152 340.521 49.5775C340.521 46.618 340.528 43.6584 340.536 40.6987ZM464.263 36.5326C464.256 37.6155 464.248 38.6984 464.248 39.7811C464.25 40.8445 464.242 41.9082 464.235 42.9718C464.219 45.3191 464.204 47.6663 464.28 50.011C464.366 52.6612 463.486 53.9844 460.591 53.9401C459.547 53.9239 458.629 53.9217 457.824 53.9198C454.8 53.9126 453.349 53.9091 452.664 53.1833C452.032 52.5143 452.049 51.2316 452.083 48.7669C452.095 47.9324 452.108 46.9623 452.099 45.8347C452.053 40.2771 452.04 34.7181 452.114 29.1621C452.169 25.1399 453.372 24.1669 457.923 24.1288C462.635 24.0906 464.113 25.2093 464.227 29.172C464.297 31.6231 464.28 34.0765 464.263 36.53V36.5326ZM439.858 42.4973C439.865 44.9195 439.872 47.3416 439.872 49.7638H439.905C439.905 52.2404 439.894 54.7173 439.883 57.1941V57.1979C439.857 62.935 439.831 68.6722 439.944 74.4067C440.07 80.8372 443.549 85.0754 449.903 85.753C455.193 86.3173 460.547 86.349 465.889 86.3807C467.006 86.3873 468.122 86.394 469.236 86.4054C473.681 86.4505 475.079 84.9976 475.103 80.9029C475.13 76.5113 473.863 75.3087 469.04 75.2561C467.522 75.2397 466.004 75.2493 464.485 75.2589C461.692 75.2766 458.898 75.2943 456.113 75.15C452.884 74.9829 452.056 73.0462 452.034 68.3471C452.019 65.1635 453.839 64.9621 456.204 64.9354L456.311 64.9342C459.186 64.9018 462.073 64.8693 464.929 64.5859C472.315 63.8526 476.221 59.9196 476.402 52.5322C476.624 43.4393 476.618 34.332 476.396 25.2383C476.229 18.4393 472.521 14.1202 465.94 13.3587C461.064 12.794 456.049 12.7825 451.152 13.1938C443.785 13.8127 439.989 18.292 439.894 25.8785C439.825 31.4179 439.842 36.9575 439.858 42.4973ZM70.9703 49.3499C71.9241 48.8708 72.925 48.3681 73.965 47.7957C73.965 50.1847 73.9712 52.516 73.9772 54.8068C73.9916 60.2496 74.0053 65.4634 73.9346 70.6759C73.8866 74.2136 71.6077 75.3002 68.3486 75.2735C63.8365 75.2369 62.0261 74.2304 61.8631 70.8102L61.8515 70.5672C61.6577 66.5029 61.4609 62.3778 61.9971 58.3766C62.2751 56.3071 63.8312 54.0064 65.4901 52.6191C67.0384 51.3247 68.8926 50.3934 70.9703 49.3499ZM86.2209 56.8303C86.2141 54.5444 86.2072 52.2585 86.2072 49.9728H86.182C86.182 47.5441 86.1929 45.1152 86.2038 42.6864L86.2038 42.6814V42.6813V42.6812V42.6811V42.681C86.2285 37.1531 86.2532 31.6253 86.1501 26.0998C85.9924 17.673 81.6342 13.2991 73.192 13.0144C68.5619 12.8578 63.9233 12.9072 59.2881 12.9565H59.2881L59.2856 12.9565C58.7268 12.9625 58.168 12.9684 57.6092 12.974C53.4452 13.016 51.9798 14.4559 51.9196 18.3262C51.8595 22.1913 53.35 23.9051 57.3099 24.0822C59.5125 24.18 61.7198 24.1611 63.9274 24.1423C65.2688 24.1308 66.6103 24.1194 67.951 24.1341C73.013 24.189 74.7739 25.9128 73.8051 30.8225C73.3915 32.9187 71.8834 35.2964 70.1461 36.5334C67.8099 38.1979 65.265 39.5667 62.7176 40.937C61.2511 41.7258 59.7838 42.515 58.3549 43.3614C53.577 46.1909 49.8936 49.9735 49.6849 55.8561C49.4648 62.0379 49.4138 68.2432 49.7024 74.4189C50.02 81.2088 53.3691 84.9525 60.0755 85.8369C64.5593 86.4275 69.1925 86.6297 73.6901 86.2329C82.5741 85.4484 86.0769 81.3545 86.1881 72.3296C86.252 67.1641 86.2365 61.9972 86.2209 56.8303ZM312.976 49.3332L312.976 49.3334C310.911 50.3706 309.058 51.3016 307.505 52.5931C305.841 53.9781 304.253 56.2597 303.972 58.3231C303.439 62.2325 303.622 66.2631 303.803 70.2397L303.826 70.756C303.982 74.2066 305.769 75.2277 310.262 75.2734C313.498 75.3063 315.843 74.2837 315.897 70.7308C315.976 65.5172 315.961 60.3021 315.945 54.8519C315.938 52.5492 315.931 50.2045 315.931 47.8002C314.908 48.3629 313.921 48.8589 312.977 49.3327L312.977 49.3329L312.976 49.3332ZM328.168 50.0475C328.17 52.2169 328.178 54.3864 328.185 56.556C328.203 61.8392 328.222 67.1225 328.154 72.4043C328.038 81.3789 324.476 85.4743 315.584 86.2473C311.208 86.6273 306.701 86.4762 302.344 85.8917C295.327 84.9524 291.975 81.2667 291.665 74.344C291.389 68.1669 291.422 61.9622 291.66 55.782C291.887 49.9025 295.61 46.1436 300.386 43.3209C301.824 42.471 303.297 41.674 304.769 40.8774C307.304 39.506 309.836 38.1358 312.184 36.499C313.854 35.3353 315.328 33.1132 315.765 31.1246C316.862 26.1355 314.99 24.1859 309.844 24.1332C308.515 24.1199 307.185 24.1292 305.856 24.1386C303.763 24.1533 301.671 24.168 299.583 24.0943C295.362 23.9455 293.799 22.2576 293.889 18.2506C293.974 14.41 295.441 13.0151 299.653 12.9716C304.594 12.9213 309.537 12.8854 314.476 12.9838C323.579 13.1647 328.001 17.5142 328.14 26.553C328.222 31.9164 328.203 37.2813 328.185 42.6462V42.651C328.176 45.1166 328.167 47.5821 328.168 50.0475ZM98.9349 42.0019C98.9554 44.5605 98.9759 47.1192 98.9771 49.6773C98.9782 52.2949 98.9579 54.9131 98.9377 57.5313L98.9376 57.5339V57.5341V57.5342C98.8905 63.6224 98.8433 69.7103 99.0654 75.7884C99.268 81.3177 102.769 85.166 108.269 85.6818C115.301 86.3403 122.408 86.3571 129.481 86.3365C132.867 86.3258 134.189 84.0694 134.147 80.7172C134.106 77.3436 132.756 75.3703 129.294 75.2902C124.99 75.191 120.681 75.1658 116.376 75.2703C112.734 75.3581 110.959 73.7663 110.963 70.1157C110.97 65.3757 110.965 60.6357 110.961 55.8958C110.954 46.9983 110.946 38.1011 111.007 29.2038C111.036 25.0244 112.21 24.1682 116.776 24.1301C121.434 24.0912 122.889 25.1603 123.128 29.1748C123.296 31.972 123.244 34.7863 123.191 37.5922L123.186 37.8846C123.12 41.433 124.982 42.8225 128.347 42.9233C132.986 43.0637 135.311 41.9236 135.371 38.5134C135.466 33.1077 135.393 27.6448 134.696 22.2956C134.071 17.4974 130.867 14.0399 125.945 13.6362C119.939 13.1432 113.809 13.0494 107.831 13.6934C102.5 14.2673 99.2513 18.1353 99.0563 23.5646C98.8363 29.7038 98.8856 35.8524 98.9349 42.0015V42.0017V42.0019ZM245.093 49.3248C245.092 46.94 245.083 44.555 245.075 42.1701C245.054 36.5995 245.033 31.0291 245.119 25.461C245.229 18.3536 248.991 13.9438 256.009 13.241C260.769 12.7641 265.648 12.7755 270.415 13.212C277.42 13.8537 281.291 18.1888 281.623 25.2351C281.825 29.5191 281.776 33.8221 281.668 38.1121C281.577 41.7444 279.923 42.9325 275.472 42.9119C271.008 42.8905 269.591 41.7581 269.483 37.9412C269.444 36.5238 269.454 35.1051 269.464 33.6864C269.475 32.2004 269.486 30.7144 269.44 29.2298C269.314 25.2366 267.868 24.1027 263.193 24.1286C258.618 24.1553 257.342 25.1298 257.326 29.0971C257.291 37.7658 257.296 46.4349 257.3 55.1043C257.303 60.1988 257.306 65.2934 257.3 70.3882C257.297 73.6969 258.972 75.2353 262.218 75.2383C263.432 75.2394 264.647 75.237 265.861 75.2346C269.08 75.2283 272.298 75.2219 275.516 75.2795C278.713 75.336 280.283 76.9354 280.359 80.264C280.435 83.6078 279.626 86.3015 275.849 86.3358L275.223 86.3416C268.608 86.4022 261.953 86.4633 255.392 85.7864C248.61 85.0867 245.234 80.8363 245.125 73.9464C245.036 68.2615 245.056 62.575 245.076 56.8883C245.084 54.3672 245.093 51.846 245.093 49.3248ZM518.96 47.3762C518.97 49.82 518.981 52.2638 518.982 54.7074C518.982 57.3153 518.98 59.9233 518.978 62.5313C518.973 68.6388 518.968 74.7466 518.996 80.8544C519.014 84.9422 520.372 86.2738 524.42 86.4348C529.524 86.6378 531.209 85.0109 531.215 79.7426C531.222 72.6164 531.22 65.4904 531.218 58.3644C531.216 49.1959 531.213 40.0275 531.231 30.8588C531.237 27.3443 530.991 25.6606 531.718 24.8552C532.441 24.0544 534.126 24.1219 537.978 24.1215C543.121 24.1208 543.413 23.8201 543.422 18.854C543.423 18.5478 543.454 18.2247 543.485 17.9014C543.556 17.1573 543.627 16.4118 543.331 15.8665C542.72 14.7456 541.569 13.1187 540.623 13.1004C530.237 12.9012 519.846 12.9226 509.459 13.0614C508.568 13.0729 507.119 14.2061 506.903 15.0615C505.129 22.1017 506.74 24.0826 513.949 24.1269C513.988 24.1271 514.027 24.1286 514.065 24.1301C514.154 24.1336 514.242 24.137 514.329 24.1254C518.078 23.6202 519.121 25.4035 519.043 28.9404C518.906 35.083 518.933 41.2295 518.96 47.3762Z" fill="white"/>
</svg>
