<svg width="236" height="130" viewBox="0 0 236 130" fill="none" xmlns="http://www.w3.org/2000/svg">
<path fill-rule="evenodd" clip-rule="evenodd" d="M14.8484 47.0005V47.0005V47.0003C14.8332 37.3 14.818 27.5997 14.9071 17.9008C14.9376 14.6262 13.7911 13.2195 10.4915 13.4448C8.97695 13.5482 7.45335 13.5169 5.92956 13.4857H5.92955C5.26068 13.472 4.59178 13.4582 3.92359 13.4559C1.42932 13.4482 0.202304 12.3892 0.10589 9.70013C0.103582 9.6356 0.101286 9.57149 0.099006 9.50781C-0.0701826 4.78345 -0.155252 2.40802 0.990674 1.21364C2.14953 0.00577569 4.56733 0.0057758 9.43022 0.00577603H9.4365C12.3029 0.00577603 15.1694 0.00433204 18.0358 0.00288804C25.3123 -0.000777526 32.5888 -0.00444314 39.8657 0.0155114C43.854 0.0266376 44.4755 0.639271 44.4402 4.65372C44.4297 5.83511 44.4475 6.85925 44.4628 7.74694C44.5065 10.2666 44.5311 11.687 43.8384 12.4842C42.9434 13.5144 40.8506 13.5041 36.0534 13.4803C35.9558 13.4798 35.8572 13.4793 35.7574 13.4788C29.8047 13.4496 29.7929 13.49 29.7922 19.4209L29.7915 31.1892V31.1892C29.7899 52.7481 29.7884 74.3069 29.7978 95.8652C29.7979 96.0223 29.7986 96.1816 29.7994 96.3424C29.8118 98.9472 29.826 101.951 27.0025 102.641C23.9422 103.389 20.3278 103.252 17.3424 102.295C16.0238 101.872 15.0028 98.4805 14.9695 96.4187C14.8121 86.6926 14.8302 76.9631 14.8483 67.2337V67.2337V67.2336C14.8545 63.9334 14.8606 60.6332 14.8599 57.3333C14.8592 53.8891 14.8538 50.4448 14.8484 47.0005ZM123.818 59.4106V82.9306C123.819 86.6354 123.819 88.4867 124.744 89.3969C125.669 90.3059 127.517 90.2762 131.21 90.2168C136.845 90.1264 138.452 88.5604 138.458 83.014C138.471 72.2463 138.469 61.4782 138.467 50.7097V50.7095V50.7094V50.7092C138.466 46.6046 138.465 42.5 138.465 38.3954C138.465 28.6607 137.859 28.1614 128.043 28.1983C124.936 28.2108 123.722 29.2538 123.772 32.4331C123.872 38.9215 123.853 45.4117 123.834 51.9018V51.903C123.826 54.4056 123.819 56.9081 123.818 59.4106ZM108.855 70.0667C108.855 65.7836 108.854 61.5006 108.854 57.2176C108.851 45.588 108.849 33.9588 108.86 22.3292C108.866 16.504 110.449 14.8886 116.209 14.8566C117.118 14.8515 118.028 14.8458 118.937 14.8401C124.599 14.8046 130.261 14.7691 135.919 14.8782C148.128 15.1132 153.114 20.1638 153.147 32.3108C153.195 50.2983 153.198 68.2872 153.143 86.2747C153.107 97.9842 148.436 102.832 136.726 103.433C133.852 103.581 130.961 103.585 128.083 103.471C125.036 103.35 123.621 104.486 123.778 107.704C123.927 110.73 123.881 113.766 123.836 116.8V116.8C123.826 117.458 123.816 118.115 123.808 118.771C123.746 124.065 121.946 125.664 116.198 125.636C110.707 125.61 108.882 123.99 108.87 118.842C108.843 107.21 108.848 95.5771 108.852 83.9449V83.9448V83.9447V83.9446C108.854 79.3186 108.856 74.6926 108.855 70.0667ZM94.2086 64.9336C94.2086 69.0602 94.1962 73.1869 94.1837 77.3136C94.1541 87.1366 94.1245 96.9594 94.2627 106.78C94.3772 114.913 91.2475 120.732 83.8299 124.269C82.1027 125.092 80.4569 126.084 78.8101 127.077L78.8099 127.077L78.8098 127.077C77.7889 127.693 76.7676 128.308 75.7263 128.884C72.2624 130.8 70.2835 130.289 68.1471 127.041C64.1886 121.023 64.7969 118.677 71.0354 114.894C73.3833 113.47 75.8103 111.985 77.672 110.025C78.7339 108.907 79.2444 106.69 78.985 105.138C78.8594 104.388 76.413 103.692 74.9668 103.569C73.3623 103.433 71.7458 103.444 70.129 103.456H70.1289H70.1288H70.1288C68.6305 103.467 67.132 103.477 65.6425 103.37C54.5924 102.579 49.9825 97.6619 49.9368 86.5364C49.8894 75.1842 49.8991 63.8316 49.9087 52.4792V52.4792V52.4791V52.479C49.9128 47.692 49.9169 42.9051 49.9167 38.1182C49.9167 36.4486 49.9131 34.779 49.9096 33.1093V33.1092V33.1092L49.9096 33.1036C49.9012 29.1263 49.8928 25.1488 49.9319 21.1717C49.9791 16.3833 51.8255 14.8458 57.3051 14.8478C62.8347 14.8499 64.5909 16.3054 64.5993 21.1842C64.6219 34.9317 64.6198 48.6788 64.6177 62.4261C64.6167 68.853 64.6157 75.2799 64.6173 81.707C64.6194 89.0926 71.231 93.2441 77.7809 89.7206C78.8372 89.1517 79.4261 86.8382 79.4338 85.3271C79.5181 69.6734 79.5136 54.0197 79.5092 38.366C79.5079 34.0761 79.5067 29.7862 79.5073 25.4963C79.5073 25.1249 79.5065 24.7534 79.5057 24.3819C79.5024 22.9086 79.4992 21.4348 79.5468 19.9631C79.6453 16.943 81.3232 15.3339 84.244 14.9751C85.2685 14.8499 86.3138 14.8409 87.3487 14.8555C92.5363 14.9299 94.194 16.5578 94.201 21.7023C94.2164 32.0544 94.2136 42.4062 94.2108 52.7584C94.2097 56.8167 94.2086 60.8751 94.2086 64.9336ZM182.759 81.9211V75.0173C182.76 73.9114 182.752 72.8049 182.744 71.6985C182.723 68.8909 182.703 66.0834 182.84 63.2841C182.892 62.2368 183.836 60.3836 184.443 60.3537C187.841 60.1847 191.339 60.093 194.635 60.7828C195.793 61.0255 197.182 63.5282 197.247 65.051C197.487 70.652 197.435 76.2668 197.382 81.8796V81.8803V81.8814C197.372 82.9431 197.362 84.0048 197.355 85.0663C197.333 87.8903 195.768 89.514 193.015 90.0181C192.677 90.08 192.335 90.1287 191.992 90.1635C183.3 91.0542 182.759 90.571 182.759 81.9211ZM168.055 49.4998C168.056 52.6883 168.058 55.8767 168.059 59.0652C168.059 62.8588 168.058 66.6523 168.056 70.4459L168.056 70.5084C168.051 79.4925 168.046 88.4765 168.078 97.4601C168.093 101.556 169.604 103.361 173.592 103.399C181.998 103.482 190.424 103.535 198.813 103.082C206.298 102.679 211.115 98.7911 211.608 91.4597C212.34 80.5797 212.353 69.578 211.617 58.6994C211.115 51.2477 206.15 47.5037 198.539 46.9182C194.665 46.6198 190.762 46.626 186.872 46.6323L186.794 46.6324C183.889 46.6366 182.666 45.4259 182.72 42.4448C182.824 36.7367 182.796 31.0258 182.768 25.3152V25.315V25.3148C182.762 24.1069 182.756 22.8989 182.751 21.6911C182.73 16.4583 181.034 14.8756 175.539 14.8471C169.673 14.8165 168.075 16.2448 168.064 21.7071C168.045 30.971 168.05 40.2354 168.055 49.4998ZM235.983 68.4676C235.974 65.3313 235.966 62.195 235.966 59.0588C235.966 55.6107 235.966 52.1627 235.966 48.7148C235.966 39.7228 235.966 30.7312 235.962 21.7389C235.961 19.2487 235.708 16.8476 233.127 15.5437C226.789 12.3415 221.078 15.6918 221.066 22.6624C221.046 33.9369 221.05 45.2115 221.053 56.486C221.055 60.6462 221.056 64.8064 221.056 68.9666C221.056 71.3732 221.047 73.7801 221.038 76.1869C221.012 82.8808 220.986 89.5747 221.16 96.2632C221.214 98.3536 222.113 101.829 223.362 102.205C226.464 103.137 230.202 103.342 233.259 102.421C234.674 101.995 235.803 98.2792 235.848 96.031C236.033 86.8458 236.008 77.6567 235.983 68.4676Z" fill="white"/>
</svg>
