<svg width="181" height="106" viewBox="0 0 181 106" fill="none" xmlns="http://www.w3.org/2000/svg">
<path fill-rule="evenodd" clip-rule="evenodd" d="M12.8784 79.0201H12.8778C10.429 79.0222 7.97937 79.0243 5.53187 79.018C0.897316 79.0039 -0.808916 76.8088 0.352074 72.2589C1.50927 67.7144 2.69794 63.1797 3.88681 58.6442L3.887 58.6435C4.35442 56.8603 4.82188 55.077 5.28745 53.2929C6.48193 48.7069 7.67436 44.1205 8.86679 39.534L8.86682 39.5339C11.7051 28.617 14.5434 17.7 17.4097 6.78753C18.8668 1.23641 24.8551 -1.5039 30.1759 0.841577C32.4132 1.82865 33.1136 3.64769 32.338 6.78283C31.648 9.57901 30.9311 12.3675 30.2144 15.1557L30.2142 15.1564C29.8081 16.7362 29.402 18.3159 29.0008 19.8968L28.9985 19.906C25.4458 33.9241 21.8931 47.9423 18.3545 61.9651C17.7011 64.5503 18.3545 65.4058 21.0243 65.4669C22.3746 65.4973 23.7249 65.4908 25.0752 65.4842C26.2255 65.4786 27.3758 65.4731 28.526 65.4904C30.707 65.5186 31.6236 64.4469 31.6095 62.3223C31.5766 57.2553 31.586 52.1836 31.6048 47.1119C31.6236 41.7864 33.2781 40.146 38.613 40.1178L38.8126 40.1167H38.8128C39.6822 40.1121 40.555 40.1074 41.4238 40.1554C44.6436 40.334 46.5002 42.092 46.5613 45.3211C46.6317 48.9264 46.6281 52.5316 46.6245 56.1384V56.1386C46.6228 57.836 46.6211 59.5337 46.6271 61.2318C46.6412 64.8182 47.2006 65.3823 50.8152 65.4857C55.4403 65.6173 57.3064 67.6478 57.2359 72.4704C57.1654 77.152 55.3604 78.9522 50.6742 79.018C47.3463 79.0603 46.6365 79.7842 46.6271 83.2248C46.6219 85.2129 46.6245 87.2017 46.6271 89.1906V89.1908C46.6315 92.506 46.636 95.8217 46.6036 99.1356C46.5613 103.427 44.7235 105.18 40.4086 105.232C32.7423 105.321 31.6001 104.184 31.6001 96.4939V83.6244C31.5954 79.4645 31.1677 79.0274 27.0971 79.0227C24.4635 79.0157 21.8298 79.0165 19.1962 79.0174H19.1886C18.3089 79.0177 17.4292 79.018 16.5495 79.018C15.3262 79.018 14.1024 79.0191 12.8784 79.0201ZM67.661 52.8143C67.661 49.9279 67.6592 47.0418 67.6575 44.1559V44.1513C67.6522 35.4965 67.6469 26.8429 67.6892 18.1867C67.6986 16.0951 67.8678 13.9658 68.2908 11.9211C69.6069 5.55214 73.5552 1.52863 80.0135 0.959885C86.2086 0.414643 92.5353 0.11382 98.6928 0.743668C108.042 1.69314 112.094 6.48281 112.601 15.8506C112.737 18.3691 112.712 20.897 112.687 23.4243V23.4244V23.4246C112.676 24.4867 112.666 25.5486 112.667 26.6098C112.667 28.504 111.708 29.524 109.8 29.5381C106.754 29.5663 103.708 29.5616 100.662 29.5475C98.6505 29.5381 97.6587 28.5134 97.6728 26.4923C97.6752 26.1157 97.678 25.7391 97.6809 25.3623C97.6953 23.477 97.7096 21.5901 97.6587 19.7096C97.5506 15.8459 95.6893 14.0316 91.835 13.9329C83.7644 13.7214 82.6693 14.7978 82.6693 22.9388V84.4712C82.6693 90.1681 84.1922 91.6863 89.8749 91.6957C90.0535 91.6957 90.2321 91.6964 90.4107 91.6972C90.8573 91.6991 91.3038 91.701 91.7504 91.691C95.7363 91.6017 97.6164 89.7779 97.6587 85.7638C97.7021 81.7248 97.6934 77.6859 97.6846 73.6452V73.6444L97.6846 73.6346C97.6811 71.9843 97.6775 70.3337 97.6775 68.6827C97.6775 66.1295 97.6772 63.576 97.6769 61.0224V61.022C97.676 53.3601 97.6752 45.6969 97.6822 38.0363C97.6822 34.7649 98.3685 34.1021 101.682 34.0927C104.338 34.0833 106.994 34.088 109.649 34.0974C111.661 34.1068 112.676 35.1315 112.676 37.1386C112.675 42.1736 112.686 47.209 112.697 52.2446V52.245V52.2461C112.725 64.6785 112.752 77.1119 112.592 89.5429C112.47 98.9953 108.126 103.827 98.7069 104.904C93.1605 105.538 87.4307 105.548 81.8749 104.946C72.0981 103.888 67.802 98.7697 67.708 88.8426C67.6321 80.415 67.6489 71.9874 67.6656 63.5598C67.6727 59.9779 67.6798 56.3961 67.6798 52.8143H67.661ZM136.151 79.0175C137.349 79.017 138.547 79.0164 139.746 79.0164C140.996 79.0164 142.247 79.0154 143.497 79.0144C145.997 79.0123 148.496 79.0102 150.994 79.0164C154.27 79.0305 154.904 79.6839 154.914 83.0259C154.924 86.1985 154.922 89.3735 154.92 92.5492C154.919 93.8197 154.918 95.0902 154.918 96.3608C154.918 104.201 156.065 105.338 163.84 105.226C168.014 105.165 169.875 103.388 169.922 99.2515C169.964 95.7132 169.957 92.1749 169.95 88.6366C169.947 87.028 169.944 85.4194 169.945 83.8108C169.945 79.5664 170.397 79.2656 174.566 78.9365C176.155 78.8096 178.199 78.255 179.121 77.141C181.212 74.6169 180.977 71.4254 179.863 68.4829C178.881 65.8883 176.451 65.5499 174.021 65.4841C170.571 65.3901 169.96 64.7932 169.945 61.3525C169.939 59.5835 169.941 57.815 169.943 56.0469C169.948 52.5109 169.952 48.9763 169.889 45.4418C169.833 42.081 167.976 40.309 164.634 40.1492C163.77 40.1057 162.902 40.1104 162.038 40.1151C161.966 40.1155 161.895 40.1159 161.823 40.1162C156.639 40.1492 154.951 41.8131 154.928 46.9835C154.917 49.338 154.919 51.6926 154.921 54.0467C154.924 56.7633 154.927 59.4792 154.909 62.1939C154.895 64.6897 154.162 65.4324 151.736 65.47C149.316 65.5123 146.89 65.517 144.469 65.47C141.649 65.4183 141.01 64.591 141.701 61.8554C145.212 47.9048 148.742 33.9588 152.277 20.0128C152.701 18.3391 153.134 16.668 153.566 14.9974C154.285 12.225 155.002 9.45364 155.68 6.67317C156.54 3.1385 155.337 0.736611 152.272 0.506293C146.185 0.0456575 142.256 0.120864 140.305 7.99397C137.629 18.7896 134.804 29.5464 131.979 40.3042C130.755 44.9657 129.531 49.6274 128.319 54.2925C126.773 60.2385 125.226 66.1845 123.708 72.1398C122.509 76.8449 124.173 79.007 128.963 79.0164C131.36 79.0196 133.755 79.0185 136.151 79.0175Z" fill="white"/>
</svg>
