<?xml version="1.0" encoding="UTF-8"?>
<svg width="27px" height="688px" viewBox="0 0 27 688" version="1.1" xmlns="http://www.w3.org/2000/svg" xmlns:xlink="http://www.w3.org/1999/xlink">
	<!-- Generator: Sketch 63.1 (92452) - https://sketch.com -->
	<title>p</title>
	<desc>Created with Sketch.</desc>
	<g id="Page-1" stroke="none" stroke-width="1" fill="none" fill-rule="evenodd">
		<path d="M27.000211,687.963896 C26.9389244,687.436487 26.8661173,686.923965 26.7701386,686.417629 C26.5257268,685.12739 26.2690133,684.105252 26.025666,682.823391 L25.8043102,681.613448 C25.3646247,679.315615 24.8512019,677.637301 24.4354031,675.124532 C24.2203454,673.819589 24.1165244,672.098814 23.8792194,671.048294 C23.668982,670.117598 23.431714,669.747536 23.2088623,668.897057 L22.984868,667.955955 C22.731524,666.920304 22.4663068,666.004974 22.2242639,664.890164 C21.9546178,663.651334 21.7825957,661.915969 21.5720606,660.288837 L21.4815203,659.617823 L21.3862628,658.987517 C21.326415,658.620685 21.2724948,658.349862 21.2161823,658.110633 L21.1288796,657.767436 L20.8255025,656.69466 C20.6782493,656.143379 20.5935571,655.704732 20.5186917,655.196908 L20.4635611,654.800228 L20.2393061,653.04445 C19.4767165,647.299416 18.094909,643.488543 17.8959188,635.746425 L17.8790977,634.921293 C17.8289461,631.522987 18.0670493,630.342373 18.3062253,627.99558 L18.3613081,627.431771 L18.4174955,626.795114 L18.5892945,624.661586 C18.6317035,624.155561 18.6768934,623.660501 18.7320338,623.154909 L18.8343386,622.267269 C18.8866022,621.79022 18.9250322,621.343391 18.9578375,620.891803 L18.9890719,620.437334 L19.1343545,618.111905 C19.3719892,614.613817 19.7829663,611.98557 20.0065326,608.376588 L20.1221986,606.383144 L20.2780845,603.998954 C20.3021085,603.600222 20.3239696,603.199437 20.3418911,602.794549 C20.4308805,600.838501 20.3418911,598.685481 20.4395323,596.661041 L20.4966255,595.537249 C20.7191433,591.403061 21.0848083,587.166003 21.5345961,584.374874 C21.7125749,583.264168 22.0549369,582.328548 22.0586448,580.254864 C22.0611167,578.61069 21.8003283,577.631298 21.7657214,576.077403 C21.7162828,573.858726 22.0870719,572.975085 22.1426903,571.040923 C22.1835722,569.607821 22.1235292,568.540562 22.008692,567.4743 L21.9726432,567.154086 L21.8917897,566.505081 L21.7951292,565.812412 L21.6398116,564.795964 C21.5796548,564.376143 21.530014,563.936306 21.4856298,563.226076 L21.4406629,562.368657 C21.370213,560.79014 21.3949322,559.753298 21.2527964,558.180253 C21.029087,555.71536 20.073687,552.44069 20.1441369,549.855425 C20.1923395,548.099085 20.6076233,547.694197 20.7312197,546.307182 C20.8708836,544.742344 20.8647038,542.44433 20.9883002,540.729027 L21.0565669,539.852783 C21.5495948,533.973274 22.5547261,530.199581 22.1080833,521.68287 L22.0610981,520.917542 C22.0093769,520.189726 21.9440109,519.568001 21.8700708,518.994363 L21.7934605,518.434604 L21.7122608,517.894013 L21.4765058,516.413853 C21.19965,514.635628 21.1341439,513.133712 20.9178502,511.144835 C20.6026795,508.266847 20.1317773,506.376457 19.8178425,503.348003 L19.6489334,501.689323 C19.3936864,499.128018 19.1334268,496.270683 18.9149077,493.573012 L18.775925,491.80322 L18.597521,489.482919 L18.4481377,487.619769 C18.3457844,486.373924 18.2381325,485.131406 18.1265616,483.957114 L18.0421703,483.090202 L17.9082785,481.80686 C17.687041,479.790626 17.3916456,477.492612 17.1259134,475.780045 C16.899732,474.321901 16.6179323,473.602403 16.3929869,472.261895 C16.3380552,471.935887 16.2846493,471.576949 16.232425,471.199447 L16.0789521,470.025614 L15.842983,468.130942 C15.6217455,466.404696 15.5154526,464.366577 15.2966871,462.654009 C15.1551515,461.552839 14.9584063,460.461959 14.7682198,459.499567 L14.4308749,457.843221 L14.2756565,457.028175 C14.0932249,456.048405 13.9072197,455.001123 13.729485,454.238902 C13.3759994,452.726043 12.6813877,452.901129 12.4650941,450.22832 C12.3725027,449.078845 12.3316322,447.207817 12.3045192,445.367563 L12.2573881,441.950999 L12.1585751,437.359101 C12.1292209,436.059287 12.093687,434.765971 12.0374506,433.523949 C11.9410455,431.398286 11.7902579,429.609118 11.7296957,427.363083 L11.6589367,424.604099 L11.5690976,420.878935 L11.5190114,419.377574 C11.4259703,417.028938 11.2801451,415.382732 11.0070807,413.452999 L10.8908924,412.663648 L10.7780036,411.94177 C10.4331697,409.783278 9.65945636,408.166461 9.49507318,404.839813 C9.35170138,401.918052 9.9548517,398.990821 10.1365384,396.815915 L10.3073905,394.757716 C10.5098183,392.278133 10.6866305,389.875757 10.8138465,386.948134 C10.9757578,383.216598 11.0128367,379.993907 11.3181197,376.836874 L11.5391834,374.524326 C11.7555736,372.207846 11.9537141,369.849817 12.0955409,367.18248 C12.3625091,362.187036 11.3687942,363.574051 11.2204786,358.863123 C11.1736871,357.381542 11.3599676,355.030382 11.5497637,353.106295 L11.6367756,352.253302 L11.7248587,351.438868 L11.8310447,350.508202 C12.1486874,347.799828 12.5652072,345.4854 12.8976814,342.774291 C13.0880198,341.228603 13.4328537,340.572028 13.5725176,339.001718 C13.730721,337.223493 13.7381368,335.368668 13.9779137,333.806566 L14.0649789,333.260584 C14.2219823,332.309846 14.3642704,331.588556 14.4864475,330.324407 L14.6614872,328.372602 L14.7116802,327.894108 C14.7449127,327.603965 14.7788394,327.364337 14.8203804,327.132059 L14.8892678,326.78376 L14.9747668,326.414114 L15.0878092,325.968697 C15.5570172,324.163469 15.5160214,321.365105 15.30562,318.15341 L15.274447,317.691848 L15.2060698,316.753354 L15.0930451,315.353656 L14.9571743,313.906871 C14.9065263,313.389836 14.8530567,312.863723 14.8043744,312.405622 L14.7358926,311.779114 L14.6873569,311.368103 C14.4834229,309.754022 14.2337582,309.491391 13.9902734,308.227484 C13.7649314,307.063157 13.586276,305.169584 13.4402142,303.191595 L13.3226718,301.490541 L13.1436382,298.589505 C13.0183681,296.536852 13.0422693,294.347472 13.1060919,292.244092 L13.1355701,291.348558 L13.210537,289.325015 C13.3212278,285.993992 13.2859194,282.48635 12.8531867,279.543348 C12.5524194,277.501527 12.37329,275.755489 12.1904169,273.709802 L11.9163262,270.556472 C11.5739642,266.649849 11.0511515,264.557015 10.6667668,261.03613 C10.4826082,259.359127 10.3429443,257.452323 10.1649655,255.772584 C9.98822272,254.10926 9.75833346,252.932895 9.58406257,251.231271 C9.47282583,250.145186 9.43203903,248.941464 9.30102687,247.858115 C9.19102609,246.93891 9.02417099,246.643451 8.92900178,245.53548 C8.8461922,244.577974 8.7918098,242.91465 8.83012468,241.951673 C8.90799039,240.028454 9.37889258,240.14609 9.30597072,237.785155 C9.28348919,237.063613 9.17392131,236.014518 9.05506688,235.027097 L8.96540045,234.304176 L8.64076024,231.812277 C8.02447196,227.171885 7.34127001,223.574879 6.65287241,219.643689 L6.37738256,218.050125 L5.94525008,215.45937 L5.80278595,214.640189 L5.51403391,213.029528 C4.6859382,208.449915 3.79728025,204.297075 2.99143188,199.588883 C2.69603655,197.862637 2.29929218,196.817588 2.03973979,194.86154 C1.85434523,193.466318 1.77895144,191.592342 1.58614109,190.156084 L1.35364148,188.395127 C1.05606096,186.091335 0.804517612,183.90275 0.555347319,181.092608 C0.388240738,179.209857 0.311453065,177.107871 0.26063836,174.976085 L0.242674654,174.175639 L0.190049762,171.482871 L0.154895061,169.870641 L0.116360378,168.516685 C0.0318031603,165.799985 -0.0806443179,163.059453 0.0856810907,160.815372 C0.313948147,157.747934 0.858327419,155.668725 1.21267274,153.209463 L1.31349278,152.47388 L1.39990323,151.917465 C1.76174306,149.723379 2.43834407,146.818216 2.1485046,142.937372 C1.87412065,139.271493 1.07568806,137.586283 1.41805002,133.359579 C1.54782622,131.745498 1.77153566,131.050622 1.81232246,129.080896 L1.83003834,127.987438 C1.8454579,126.671479 1.83818994,125.856404 1.92966174,124.737483 L1.95465703,124.450957 L2.02367226,123.784522 C2.62083791,118.528463 3.43320505,114.662125 3.98681662,109.21972 L4.13875826,107.658613 C4.30862783,105.98522 4.51079183,104.549029 4.72626151,103.19849 L4.80764926,102.695757 L5.476955,98.7498502 C5.87471061,96.3175369 6.21935042,93.6523474 6.54337536,90.7234507 L6.72182909,89.0544347 C6.87841775,87.5130256 7.02072388,85.8593594 7.15702074,84.177345 L7.54966622,79.2112617 C7.79552001,76.1267254 8.19404108,73.7157297 8.39774693,70.6886627 L8.4683509,69.5095178 C8.58431756,67.7571741 8.91679663,65.0601818 8.90057461,63.2263874 C8.88079919,61.0952532 8.59652753,60.6000859 8.47540308,58.8245967 C8.19806986,54.7691747 8.61027129,53.1241948 8.85727928,50.6684412 L8.88307336,50.4020755 L8.9314737,49.8267785 C9.33686982,44.4592749 6.7932564,38.465289 6.95393169,30.4742197 C7.02808952,26.7919262 7.56326182,23.8400728 7.87225276,21.186414 C8.09659713,19.2624 4.60320673,2.93684971 4.80764926,1 C3.04889144,0.643495814 10.446412,0.643495814 27.000211,1 L27.000211,687.963896 Z" id="p" fill="#2E4A6B"></path>
	</g>
</svg>