<?xml version="1.0" encoding="UTF-8"?>
<svg width="25px" height="676px" viewBox="0 0 25 676" version="1.1" xmlns="http://www.w3.org/2000/svg" xmlns:xlink="http://www.w3.org/1999/xlink">
	<!-- Generator: Sketch 63.1 (92452) - https://sketch.com -->
	<title>l</title>
	<desc>Created with Sketch.</desc>
	<g id="Page-1" stroke="none" stroke-width="1" fill="none" fill-rule="evenodd">
		<path d="M19.0547499,0 C18.6209623,2.49758394 15.902782,46.6323004 16.0685263,48.8267785 L16.1169266,49.4020755 C16.3594062,52.0097708 16.8118349,53.6243382 16.5245969,57.8245967 C16.4034725,59.6000859 16.1192008,60.0952532 16.0994254,62.2263874 C16.0844512,63.9191207 16.3665951,66.3473599 16.5013014,68.0891848 L16.5316491,68.5095178 L16.6022531,69.6886627 C16.7855883,72.413023 17.1267239,74.6383655 17.3723451,77.3048174 L17.4503338,78.2112617 L17.7618561,82.1654059 L17.9017842,83.8962281 L18.0467844,85.5986017 C18.1208859,86.4392945 18.1976396,87.26171 18.2781709,88.0544347 L18.4566246,89.7234507 L18.6537734,91.4493905 C18.887273,93.4266435 19.1340591,95.2777013 19.4052793,97.0131391 L19.523045,97.7498502 L19.7744892,99.2403801 L20.1923507,101.695757 L20.3538788,102.709253 C20.5127637,103.739993 20.6628291,104.829568 20.7960639,106.041914 L20.8612417,106.658613 L21.0131834,108.21972 C21.566795,113.662125 22.3791621,117.528463 22.9763277,122.784522 C23.1160028,124.014486 23.1445289,124.806512 23.1574117,125.793541 L23.1737033,127.280703 L23.1876775,128.080896 C23.2284643,130.050622 23.4521738,130.745498 23.58195,132.359579 C23.9243119,136.586283 23.1258794,138.271493 22.8514954,141.937372 C22.5742576,145.649483 23.181249,148.468911 23.5512205,150.627226 L23.6000968,150.917465 L23.6865072,151.47388 L23.7873273,152.209463 C24.1416726,154.668725 24.6860519,156.747934 24.9143189,159.815372 C25.0252025,161.311426 25.0121871,163.028125 24.9661357,164.811311 L24.8836396,167.516685 L24.8451049,168.870641 L24.8099502,170.482871 L24.7573253,173.175639 C24.7063326,175.578948 24.6326476,177.974513 24.4446527,180.092608 L24.3293235,181.348145 C24.1362974,183.376093 23.9378922,185.103325 23.7142336,186.865192 L23.6463585,187.395127 L23.4138589,189.156084 C23.2210486,190.592342 23.1456548,192.466318 22.9602602,193.86154 C22.7007078,195.817588 22.3039635,196.862637 22.0085681,198.588883 C21.2027197,203.297075 20.3140618,207.449915 19.4859661,212.029528 L19.1972141,213.640189 C19.1493977,213.911027 19.1018517,214.183745 19.0547499,214.45937 L18.7688956,216.182321 C17.9865157,220.873634 17.1945582,224.768953 16.4838053,229.894572 L16.3592398,230.812277 L16.0345996,233.304176 L15.9449331,234.027097 L15.8679264,234.690243 C15.7816824,235.464607 15.7115149,236.223956 15.6940293,236.785155 C15.6211074,239.14609 16.0920096,239.028454 16.1698753,240.951673 C16.2081902,241.91465 16.1538078,243.577974 16.0709982,244.53548 C15.975829,245.643451 15.8089739,245.93891 15.6989731,246.858115 C15.567961,247.941464 15.5271742,249.145186 15.4159374,250.231271 C15.2416665,251.932895 15.0117773,253.10926 14.8350345,254.772584 C14.6570557,256.452323 14.5173918,258.359127 14.3332332,260.03613 C13.9702032,263.36141 13.4836988,265.412904 13.1423503,268.921607 L13.0836738,269.556472 L12.8095831,272.709802 C12.62671,274.755489 12.4475806,276.501527 12.1468133,278.543348 C11.7449901,281.276136 11.6858439,284.495782 11.7680699,287.608792 L11.789463,288.325015 L11.8644299,290.348558 L11.8939081,291.244092 C11.9486132,293.046989 11.9739883,294.91307 11.9012346,296.702075 L11.8563618,297.589505 L11.6773282,300.490541 L11.590591,301.766683 C11.439008,303.895353 11.2511644,305.979991 11.0097266,307.227484 C10.7814596,308.412397 10.547761,308.717282 10.3514039,310.080725 L10.3126431,310.368103 L10.2641074,310.779114 L10.1199628,312.134146 C10.0626657,312.697302 10.0041552,313.296837 9.95486858,313.827005 L9.87836898,314.683551 L9.79393024,315.753354 L9.75880998,316.225037 C9.50782347,319.666639 9.40713887,322.715211 9.84859507,324.704114 L9.91219082,324.968697 L10.0252332,325.414114 L10.0843346,325.664515 C10.1733344,326.057214 10.2300453,326.393337 10.2841616,326.8581 L10.3385128,327.372602 L10.5135525,329.324407 C10.5990765,330.209312 10.6944548,330.828215 10.7978368,331.446019 L10.9350211,332.260584 L11.0220863,332.806566 C11.2618632,334.368668 11.269279,336.223493 11.4274824,338.001718 C11.5671463,339.572028 11.9119802,340.228603 12.1023186,341.774291 C12.3872965,344.098099 12.7340222,346.130467 13.0273023,348.369284 L13.1689553,349.508202 L13.2751413,350.438868 L13.3632244,351.253302 C13.5771989,353.286366 13.8335116,356.153607 13.7795214,357.863123 C13.6312058,362.574051 12.6374909,361.187036 12.9044591,366.18248 C13.0305274,368.553447 13.2010904,370.680021 13.3894146,372.75026 L13.4608166,373.524326 L13.6818803,375.836874 C13.96368,378.751058 14.0169508,381.721187 14.1508264,385.095841 L14.1861535,385.948134 C14.2815655,388.143851 14.4048753,390.044117 14.5459662,391.903092 L14.6926095,393.757716 L14.8634616,395.815915 C15.0451483,397.990821 15.6482986,400.918052 15.5049268,403.839813 C15.3476907,407.021824 14.6329579,408.639453 14.2693217,410.663114 L14.2219964,410.94177 L14.0568554,412.011459 L13.9459885,412.791156 C13.6858777,414.703957 13.5503143,416.388186 13.4632993,418.850242 L13.4309024,419.878935 L13.3410633,423.604099 L13.2703043,426.363083 C13.2097421,428.609118 13.0589545,430.398286 12.9625494,432.523949 C12.9203721,433.455465 12.8898399,434.415835 12.8648262,435.386159 L12.8414249,436.359101 L12.7426119,440.950999 L12.688394,444.827832 C12.6611969,446.514644 12.6197813,448.174634 12.5349059,449.22832 C12.3186123,451.901129 11.6240006,451.726043 11.270515,453.238902 C11.041999,454.218901 10.7998112,455.670122 10.5691251,456.843221 L10.2317802,458.499567 C10.0415937,459.461959 9.84484845,460.552839 9.70331294,461.654009 C9.51579959,463.121924 9.41091923,464.82902 9.24545864,466.373886 L9.15701696,467.130942 L8.92104792,469.025614 L8.767575,470.199447 L8.66144894,470.925443 C8.6434647,471.040898 8.62532367,471.153226 8.60701309,471.261895 C8.38206769,472.602403 8.10026795,473.321901 7.87408658,474.780045 C7.60835437,476.492612 7.31295904,478.790626 7.09172152,480.80686 L6.95782974,482.090202 C6.80341975,483.63659 6.65563096,485.339436 6.51794275,487.035085 L6.40247905,488.482919 L6.22407497,490.80322 L6.08509233,492.573012 C5.89779018,494.885301 5.67982164,497.314895 5.46062874,499.574825 L5.35106656,500.689323 L5.18215752,502.348003 C4.86822272,505.376457 4.39732053,507.266847 4.08214977,510.144835 C3.88988875,511.912725 3.81676852,513.295857 3.60844844,514.830298 L3.52349416,515.413853 L3.2877392,516.894013 L3.20653954,517.434604 L3.1194252,518.076645 C3.06372081,518.517292 3.01313386,518.987457 2.96990699,519.512794 L2.9389019,519.917542 L2.89191668,520.68287 C2.46706132,528.784132 3.35579814,532.593823 3.86785491,538.006605 L3.94343308,538.852783 L4.01169984,539.729027 C4.13529622,541.44433 4.1291164,543.742344 4.2687803,545.307182 C4.39237668,546.694197 4.8076605,547.099085 4.85586309,548.855425 C4.92631302,551.44069 3.97091304,554.71536 3.7472036,557.180253 C3.62086063,558.578515 3.62635381,559.553111 3.57965506,560.861068 L3.5593371,561.368657 L3.51318004,562.245036 L3.47619582,562.758985 C3.43786787,563.224839 3.39520555,563.560843 3.34547983,563.896913 L3.23580194,564.607637 L3.13826405,565.279737 L3.06641653,565.831743 L2.99130796,566.4743 C2.87647079,567.540562 2.81642781,568.607821 2.85730969,570.040923 C2.91292806,571.975085 3.28371719,572.858726 3.23427864,575.077403 C3.19967165,576.631298 2.9388833,577.61069 2.94135523,579.254864 C2.94506312,581.328548 3.28742508,582.264168 3.46540386,583.374874 C3.87430187,585.912264 4.21367692,589.644637 4.43918308,593.408356 L4.50337452,594.537249 L4.56046775,595.661041 C4.65810889,597.685481 4.56911949,599.838501 4.65810889,601.794549 L4.68772374,602.39906 L4.72191551,602.998954 L4.87780144,605.383144 L4.99346742,607.376588 C5.19840315,610.684822 5.56081611,613.168966 5.80283428,616.254434 L5.86564548,617.111905 L5.92148128,617.977168 L6.01092808,619.437334 C6.0408957,619.89598 6.07375166,620.338209 6.11770494,620.798998 L6.16566137,621.267269 L6.26796616,622.154909 L6.3441101,622.908085 L6.41070549,623.661586 L6.58250446,625.795114 L6.64524294,626.501549 C6.88817549,629.074064 7.15025862,630.192775 7.12609543,633.456178 L7.12129529,633.894298 L7.10408116,634.746425 C6.91094365,642.260833 5.60354311,646.071846 4.82954232,651.542405 L4.76069388,652.04445 L4.53643887,653.800228 C4.44814885,654.467726 4.36473608,654.96868 4.19384953,655.621485 L4.10068923,655.962016 L3.84350093,656.87089 L3.76440766,657.194804 C3.68704762,657.537326 3.61243337,657.95467 3.5184797,658.617823 L3.42793942,659.288837 L3.15193255,661.517943 C3.04085031,662.390983 2.92281577,663.214438 2.77573608,663.890164 C2.53369318,665.004974 2.26847596,665.920304 2.015132,666.955955 L1.79113769,667.897057 C1.56828601,668.747536 1.33101805,669.117598 1.12078061,670.048294 C0.88347557,671.098814 0.779654614,672.819589 0.56459692,674.124532 C0.497178913,674.531955 0.427194403,674.91744 0.355124994,675.290776 L0.282378454,675.660426 L0,0 L19.0547499,0 Z" id="l" fill="#2E4A6B"></path>
	</g>
</svg>