<svg width="26" height="27" viewBox="0 0 26 27" fill="none" xmlns="http://www.w3.org/2000/svg">
<path d="M12.8808 14.8628L7.28291 20.4363H12.8583L20.2813 12.9916L12.8583 5.57355H7.28291L12.8808 11.1355L0.000257693 11.1342C0.0457473 9.17267 0.162791 7.21118 0.35139 5.24969C0.601187 2.87829 2.85685 0.622619 5.22909 0.372822C10.3991 -0.124274 15.5682 -0.124274 20.7381 0.372822C23.1104 0.622619 25.3661 2.87829 25.615 5.24969C26.1129 10.4197 26.1129 15.5896 25.615 20.7596C25.3661 23.1318 23.1104 25.3875 20.7381 25.6364C15.5682 26.1335 10.3991 26.1335 5.22909 25.6364C2.85685 25.3875 0.601187 23.1318 0.35139 20.7596C0.162434 18.7944 0.0453042 16.8292 0 14.864L12.8808 14.8628Z" fill="#4297EA"/>
</svg>
