<svg width="25" height="19" viewBox="0 0 25 19" fill="none" xmlns="http://www.w3.org/2000/svg">
<path fill-rule="evenodd" clip-rule="evenodd" d="M23.7566 1.41708C24.5061 2.23725 24.7499 4.10004 24.7499 4.10004C24.7499 4.10004 25 6.28583 25 8.47242V10.5212C25 12.7078 24.7499 14.8936 24.7499 14.8936C24.7499 14.8936 24.5053 16.7556 23.7566 17.5742C22.8992 18.5434 21.9491 18.644 21.4124 18.7008C21.3537 18.707 21.3001 18.7127 21.252 18.719C17.7532 18.9905 12.5 19 12.5 19C12.5 19 5.99953 18.9359 3.99969 18.7285C3.90503 18.7093 3.79036 18.6944 3.66054 18.6775C3.02722 18.595 2.03329 18.4656 1.24336 17.5734C0.493904 16.7548 0.250078 14.8928 0.250078 14.8928C0.250078 14.8928 0 12.7078 0 10.5205V8.47163C0 6.28583 0.250078 4.10004 0.250078 4.10004C0.250078 4.10004 0.494686 2.23725 1.24336 1.41708C2.10455 0.444403 3.05786 0.34657 3.59339 0.291611C3.64977 0.285825 3.70152 0.280515 3.74805 0.274708C7.24601 0 12.4937 0 12.4937 0H12.5055C12.5055 0 17.7532 0 21.252 0.274708C21.2985 0.280517 21.3503 0.28583 21.4067 0.291618C21.9424 0.346578 22.8962 0.444444 23.7566 1.41708ZM17.1929 9.5L9.37793 14.25V4.75L17.1929 9.5Z" fill="white"/>
</svg>
