<?xml version="1.0" encoding="UTF-8"?>
<svg width="802px" height="48px" viewBox="0 0 802 48" version="1.1" xmlns="http://www.w3.org/2000/svg" xmlns:xlink="http://www.w3.org/1999/xlink">
	<!-- Generator: Sketch 63.1 (92452) - https://sketch.com -->
	<title>v</title>
	<desc>Created with Sketch.</desc>
	<g id="Page-1" stroke="none" stroke-width="1" fill="none" fill-rule="evenodd">
		<path d="M802.000211,12.8216846 C799.361863,12.2869283 777.733094,13.3419019 774.898075,12.8216846 C772.151641,12.3184253 769.096587,11.4467802 765.285556,11.3259979 C757.015109,11.0643031 750.811565,15.2071336 745.256407,14.5468574 C742.187196,14.1845107 740.601626,13.3028004 735.944013,13.8040467 C734.106451,14.0013243 733.593972,14.4643229 731.38833,14.4965315 C729.490424,14.5229526 726.699141,13.9814377 724.885533,13.7925607 L723.730983,13.6844804 C720.567132,13.3548774 718.059304,12.6995087 714.844604,12.2962819 L710.153132,11.7136486 C707.959152,11.4365612 705.799776,11.1458311 703.847542,10.8146865 C700.452723,10.2409709 697.392006,9.63303368 694.622921,8.92041852 L693.589326,8.64802339 C691.034242,7.96330081 688.650003,7.25962834 685.402697,6.7408726 L683.833989,6.50090662 C678.176552,5.5990783 674.167933,4.27130918 668.713006,3.29599267 C666.629113,2.92358079 665.759881,3.03631087 663.231463,2.95176331 C661.192873,2.88533309 660.473703,2.52097336 658.803192,2.30960446 C654.428717,1.75199316 652.68459,3.05241517 648.890547,3.49930942 C644.524761,4.01242566 641.352018,2.66583065 639.020631,2.13931013 L638.289293,1.98187807 C635.730951,1.4049358 633.574638,0.512791161 630.387509,0.139550387 C628.710121,-0.0560976545 626.764729,-0.0149148397 624.754182,0.0749419141 L622.323235,0.194091467 L621.015657,0.252280468 C617.17348,0.401245219 612.917923,0.413323442 609.401355,0.904504511 C606.700708,1.28134507 604.554734,1.66151823 602.352913,2.10196391 L601.244522,2.32747307 L600.021008,2.58337751 C598.534536,2.89741131 596.595044,3.02020658 595.151043,3.32216215 C593.126609,3.74489996 592.045024,4.39108489 590.258426,4.87220077 C585.385629,6.18470101 581.087601,7.63207473 576.347879,8.98080964 C575.517578,9.21633499 574.68887,9.45299267 573.833087,9.68313944 L572.179699,10.1147052 L570.714652,10.5046057 C566.14441,11.7399685 562.163596,12.9770612 556.868674,14.0816748 L554.023025,14.6628925 L553.324664,14.7961626 C552.380696,14.9704939 551.411301,15.1232429 550.726764,15.1568077 C548.283287,15.2755769 548.405036,14.5086097 546.414579,14.3817884 C545.417935,14.3193842 543.696459,14.4079578 542.705477,14.5428313 C541.55877,14.6978352 541.252982,14.9695952 540.30164,15.1487555 C539.180415,15.3621375 537.93461,15.4285677 536.810554,15.609741 C535.049438,15.8935793 533.831947,16.2680042 532.110471,16.5558685 C530.372006,16.8457459 528.398538,17.0732191 526.662905,17.3731616 C523.018924,17.9992162 520.852922,18.8507309 516.809718,19.4083422 L513.791849,19.8203531 C511.567491,20.1304583 509.703133,20.425518 507.50865,20.9342244 C504.462757,21.6390242 500.832483,21.6965316 497.385003,21.5162474 L495.290715,21.3941474 C492.83725,21.2582674 490.22452,21.1741113 487.796615,21.4072881 L485.316695,21.6460404 C482.546443,21.9225547 479.474297,22.2828787 477.82168,22.7862186 C476.513584,23.1827869 476.241772,23.5894204 474.571261,23.9215715 L474.202919,23.9904143 C473.430406,24.1292747 472.166314,24.3310022 471.122316,24.4850538 L470.331684,24.5982151 L469.435585,24.7133065 L468.56356,24.8173974 C464.817442,25.2494101 461.516375,25.4148286 459.460211,24.5737956 L459.062094,24.4140135 C458.384028,24.1498897 457.950716,24.0340712 457.09841,23.8990933 L456.587973,23.8225623 L454.97607,23.597961 C453.41379,23.3620545 452.651131,23.0798536 451.34832,22.7660882 C449.731605,22.375559 447.811933,22.3634807 445.971539,22.105812 C444.346329,21.8783388 443.666799,21.3167014 442.067072,21.0066937 C439.261179,20.4651867 436.865835,19.7867932 434.062774,19.2694426 L433.141277,19.1037892 C431.073207,18.7416845 427.451408,18.1738285 425.415754,18.2750023 C420.540125,18.5165667 421.975633,20.1350486 416.805541,19.7002326 C414.351683,19.4949028 412.15076,19.2171036 410.008143,18.9103764 L409.207015,18.7940828 L406.813618,18.4340322 C403.54621,17.936812 400.21085,17.8764209 396.348854,17.612713 C393.823874,17.4400472 391.676401,17.2112853 389.545603,16.9490302 L388.266239,16.7878388 L386.136083,16.5095687 C383.88514,16.2136522 380.855568,15.2312901 377.83166,15.4648024 C374.388707,15.7325363 372.715364,16.9926976 370.481409,17.5543349 L369.734293,17.7381991 C366.94284,18.407751 364.914935,18.6801376 361.231789,18.8428045 L360.23183,18.8829395 L357.376388,18.9891272 L354.520946,19.1043736 C352.196387,19.2030124 350.344668,19.4486029 348.144689,19.6056198 C346.002282,19.7582751 343.712407,19.8172683 341.489712,19.8921048 L339.825618,19.9518236 L339.06931,19.9730309 C336.531692,20.0355031 332.748957,20.0622133 330.856311,20.3021307 C328.090057,20.6544122 328.271265,21.7857391 326.705515,22.3614677 C325.564471,22.7801794 323.806187,23.2270737 322.534899,23.6437724 C321.297588,24.0504059 319.658222,24.5778216 317.996204,24.9139988 C316.223763,25.2703064 314.114389,25.4434276 312.327791,25.8037613 L309.872806,26.286904 C309.21936,26.4196264 308.592263,26.5564135 308.052414,26.6995628 C306.66504,27.0659356 305.920388,27.5249081 304.411265,27.8932939 C302.638824,28.3260968 300.260469,28.8072127 298.173746,29.1675464 C296.252766,29.4982194 293.984113,29.8137422 291.727773,30.1020705 L290.229321,30.2901284 L286.920128,30.691049 C283.254207,31.144194 279.201353,31.7332397 275.879496,32.2776888 C272.745164,32.7890003 270.788683,33.5559674 267.810076,34.0692919 C265.751666,34.4215734 264.197241,34.5282644 262.356847,34.9791847 L260.824939,35.3631632 C259.7169,35.6339172 258.569883,35.8708343 256.903619,36.0078467 C247.659178,36.7707878 243.81417,34.9328848 237.191583,34.184035 C235.416311,33.9827313 233.037956,33.9927965 231.418409,33.7653233 C229.982902,33.5640196 229.563858,32.8876391 227.746115,32.8091306 C225.070466,32.6943875 221.681309,34.2504652 219.13024,34.614825 C217.502199,34.8463242 216.429108,34.8060635 214.795404,34.9208066 C212.514345,35.0802941 212.312627,35.2709628 210.747588,35.6066161 L210.176283,35.7236355 C208.834404,35.9873113 207.599791,36.1441138 205.819945,36.0642117 C203.818162,35.9736251 202.903628,35.3697139 200.607383,35.4502354 C198.999161,35.5066004 197.985529,35.9313513 196.283872,35.9273252 C194.13769,35.9212861 193.169359,35.3636748 192.019821,35.0737974 C189.256707,34.3730709 185.124412,33.7977015 181.025762,33.4318216 L180.467195,33.3832353 L179.304114,33.2902465 C177.208897,33.1312166 174.980604,33.2761552 172.956171,33.1312166 C171.69904,33.0436495 170.480133,32.8983333 169.242114,32.7733992 L167.229062,32.5898703 C163.468088,32.2268675 160.739848,31.5532471 157.1033,31.1644793 L156.207786,31.0735384 C154.93644,30.9504077 153.95469,30.8744574 152.802659,30.6758378 L151.883986,30.5092121 C151.535141,30.4493399 151.19114,30.3966707 150.845391,30.3477445 L150.324634,30.2767299 L148.116515,29.9969177 L147.477287,29.908291 C144.421548,29.4609308 143.351487,28.9662427 138.852255,29.147416 C130.839463,29.471515 126.895357,31.7220906 120.949469,32.9641345 L120.035865,33.1491662 C118.76588,33.3999384 118.129347,33.5106679 117.117805,33.9416691 L116.061361,34.4129993 L115.809151,34.5161171 C115.507996,34.6330707 115.170063,34.7408572 114.663134,34.8663521 L114.435146,34.9212981 L113.907838,35.0395758 C112.098589,35.428092 110.088313,35.7179693 108.689613,36.1970722 C107.305071,36.6701359 106.217823,37.1975517 104.855931,37.6806806 C103.740369,38.0772489 103.386447,38.5120649 102.316187,38.892529 C101.228939,39.2790321 99.4480042,39.4481272 98.0974381,39.7983957 C95.4786337,40.4803507 93.7355788,41.3235393 91.3316754,42.042966 L90.129417,42.3884865 C88.8027407,42.7848307 87.7448681,43.2029448 86.4095207,43.6010229 C84.7022014,44.1103213 82.926929,44.2190253 80.7722524,44.583385 L79.0109412,44.8879571 C76.6928298,45.2951744 74.4644374,45.7032629 71.9478276,46.0688582 L69.989653,46.3458431 C67.3797882,46.725368 64.0266659,47.2501856 61.6633002,47.0352643 C60.0748986,46.8923387 58.4327009,46.4877182 57.0028564,46.2662841 C54.9161328,45.9401721 45.3023098,45.662373 43.1193194,46.20388 C42.2829747,46.411997 26.2273727,44.49485 25.244364,44.5780063 L25.2094405,44.583385 L1,39.7983957 C0.710808243,41.4634516 0.710808243,28.1973197 1,0 L802.000211,0 C801.863775,9.83902285 801.863775,14.1129177 802.000211,12.8216846 Z" id="v" fill="#2E4A6B"></path>
	</g>
</svg>