<?xml version="1.0" encoding="UTF-8"?>
<svg width="781px" height="49px" viewBox="0 0 781 49" version="1.1" xmlns="http://www.w3.org/2000/svg" xmlns:xlink="http://www.w3.org/1999/xlink">
	<!-- Generator: Sketch 63.1 (92452) - https://sketch.com -->
	<title>n</title>
	<desc>Created with Sketch.</desc>
	<g id="Page-1" stroke="none" stroke-width="1" fill="none" fill-rule="evenodd">
		<path d="M0.341,18.68 L1.37166296,18.5293012 C4.56304167,18.0528003 7.6864558,17.5277746 10.6623767,16.9652136 L11.9285093,16.72185 C14.1711414,16.2823223 16.34737,15.8321779 18.3304243,15.3565537 C21.394047,14.6240075 25.3480822,14.1674932 28.8916221,13.5241265 C31.8194192,12.993296 35.0762161,12.0738974 39.1389118,11.946498 C47.9555048,11.6704661 54.5687041,16.0402635 60.4907019,15.3438138 C63.7625906,14.9616158 65.4528652,14.0316006 70.4180468,14.5603079 C72.3769543,14.7683934 72.9232752,15.2567576 75.2745679,15.2907307 C77.2978039,15.3185993 80.2734111,14.7474173 82.2067821,14.5481926 L83.4375739,14.434191 C86.8103526,14.0865306 89.4837869,13.3952572 92.9107722,12.9699394 L97.91205,12.3553863 C100.250911,12.0631186 102.552883,11.7564607 104.634034,11.4071742 C108.253032,10.8020273 111.515866,10.1607839 114.46781,9.40912782 L115.512289,9.13701132 C118.267409,8.40746761 120.828651,7.65597185 124.333373,7.10442192 L125.923819,6.8642055 C131.978818,5.91284887 136.258985,4.50789317 142.088708,3.47656517 C143.546326,3.21882364 144.446476,3.18138818 145.654575,3.16092672 L147.136276,3.13556158 L147.932228,3.11347705 C150.105439,3.04340741 150.872099,2.65908606 152.652924,2.43613722 C157.316271,1.84797692 159.175573,3.21964316 163.220158,3.69102073 C167.879783,4.23289259 171.264551,2.80849482 173.750715,2.25453347 L174.521475,2.09045619 C177.248759,1.48190586 179.547465,0.540884664 182.945059,0.14719572 C185.833618,-0.18616589 189.467708,0.132332463 192.935789,0.266101772 L194.594739,0.322791647 C198.227436,0.435608954 202.068102,0.505046314 205.317051,0.954058214 C208.196037,1.35154416 210.483723,1.75254528 212.830943,2.21712099 L214.012527,2.45498477 L215.316836,2.72490906 C216.901468,3.05614734 218.969037,3.18567001 220.508394,3.50416836 C222.666512,3.95006605 223.819521,4.63165253 225.724098,5.13912657 C230.918674,6.52353275 235.500526,8.05020152 240.553239,9.47282749 C241.733413,9.80406578 242.910569,10.1374274 244.157146,10.4538024 C250.104603,11.9608074 254.767921,13.5008382 261.316924,14.8527651 L264.220488,15.4404844 L264.916288,15.573501 C265.978186,15.7709006 267.0928,15.9496556 267.866266,15.9871805 C270.4711,16.1124565 270.341311,15.3034707 272.463209,15.1697014 C273.525667,15.1038784 275.360823,15.1973046 276.417244,15.3395672 C277.639675,15.503063 277.965656,15.7897115 278.979821,15.9786872 C280.175087,16.2037594 281.50316,16.273829 282.701444,16.464928 C284.578856,16.7643165 285.876745,17.1592544 287.7119,17.4628895 C289.565166,17.7686479 291.668954,18.0085834 293.519201,18.3249584 C297.403814,18.9853116 299.71285,19.883477 304.02305,20.4716373 L307.074912,20.883477 C309.519629,21.2190271 311.544772,21.5321188 313.938322,22.0811156 C317.185353,22.8245283 321.055355,22.8851862 324.730492,22.695025 L326.963078,22.5662358 C329.57856,22.4229115 332.363824,22.3341449 334.952057,22.5800964 L337.937817,22.8659781 C340.798614,23.153051 343.891706,23.5240765 345.585695,24.0345722 C346.980172,24.4528667 347.269933,24.8817778 349.050758,25.232126 L349.473599,25.3100955 C350.608695,25.5110959 352.692656,25.8317042 353.827269,25.9801855 L354.961338,26.1195804 L355.852918,26.221632 C359.681807,26.6431634 363.040799,26.7776216 365.159678,25.9200824 L365.595977,25.7469686 C366.2703,25.4876527 366.719169,25.3646984 367.523867,25.2329952 L368.054036,25.1517625 L369.569484,24.9433542 C371.492172,24.6843088 372.319199,24.3679338 373.807244,24.013339 C375.53072,23.6014144 377.57716,23.5886745 379.539086,23.3168892 C381.271617,23.0769538 381.996021,22.4845469 383.701387,22.1575552 C386.692569,21.5863815 389.246091,20.8708219 392.234255,20.325128 L393.459,20.1086883 C395.694868,19.7265732 399.359711,19.1733015 401.452289,19.2762068 C406.649883,19.5310055 405.119581,21.2381567 410.631083,20.779519 C413.045761,20.5796001 415.230688,20.3145491 417.349054,20.0204888 L418.927898,19.7950687 L421.282832,19.4439493 C424.766005,18.9194886 428.321618,18.855789 432.438644,18.5776337 C434.968483,18.4064613 437.142837,18.1830225 439.281052,17.9271104 L441.204311,17.6885562 L443.325823,17.4140531 C445.72541,17.1019247 448.955041,16.0657434 452.178636,16.3120488 C455.848947,16.5944507 457.63279,17.9236505 460.014266,18.5160574 L460.782971,18.7034027 C463.782354,19.416644 465.949519,19.7047875 469.911324,19.8767116 L470.940684,19.9174501 L473.984688,20.0294554 L477.028691,20.1510156 C479.506755,20.2550584 481.480754,20.5141037 483.82601,20.6797229 C486.175147,20.845342 488.6906,20.9064417 491.123371,20.9887127 L492.678066,21.0443657 L494.294395,21.0850305 C496.944821,21.1404236 500.427708,21.1850736 502.25604,21.4143924 C505.204965,21.7859738 505.011791,22.979281 506.680937,23.5865512 C507.775692,23.9840371 509.403426,24.4056015 510.705994,24.8063553 L512.293594,25.3117865 C513.401026,25.6564571 514.676814,26.0210368 515.965374,26.2789239 C517.854859,26.654752 520.103528,26.8373577 522.008105,27.2174324 L523.037855,27.4182713 C524.266724,27.6543912 525.558688,27.8980752 526.56581,28.1623108 C528.0448,28.5487555 528.838626,29.032873 530.447405,29.421441 C531.864519,29.7638267 533.644967,30.1348773 535.385091,30.4593475 L535.963086,30.5656758 L537.096825,30.765504 C539.44032,31.1646507 542.269196,31.5428697 545.008322,31.8811215 L545.752699,31.9723667 L549.093584,32.3724725 L550.922227,32.6025595 C554.312523,33.0405043 557.866877,33.5601104 560.863293,34.0460371 C564.204603,34.585361 566.290281,35.3943468 569.465583,35.935794 C571.659922,36.3073754 573.316994,36.4199115 575.27892,36.8955357 L576.817319,37.2775673 C578.028207,37.5726992 579.268465,37.8321706 581.092257,37.9805534 C590.947162,38.7852926 595.046078,36.8466993 602.105993,36.0568234 C603.998496,35.8444911 606.533908,35.8551077 608.260403,35.6151723 C609.790705,35.4028401 610.237421,34.6894038 612.1752,34.6065942 C615.027538,34.4855648 618.6405,36.126893 621.360031,36.5112143 C623.095581,36.7553964 624.239535,36.71293 625.981121,36.8339593 L626.593271,36.8808434 C628.468313,37.0404582 628.781266,37.2364419 630.30662,37.5595422 L630.879713,37.6757932 C632.320113,37.9569152 633.640609,38.1247877 635.549283,38.0400064 C637.683254,37.9444569 638.658181,37.3074602 641.10606,37.3923931 C642.820482,37.4518461 643.90105,37.8998672 645.715077,37.8956205 C648.002984,37.8892505 649.035259,37.3010903 650.260708,36.9953318 C653.216999,36.2535279 657.643519,35.6449124 662.028433,35.2591983 L662.625976,35.207991 L663.816107,35.1140682 C666.049684,34.9463258 668.425124,35.099205 670.583242,34.9463258 C672.370104,34.8231731 674.084525,34.5917309 675.871387,34.447345 C680.314394,34.0885035 683.347833,33.3092442 687.48297,32.8718398 L688.367844,32.7826216 C689.768868,32.6476162 690.836322,32.5681825 692.099137,32.3510276 L693.046945,32.1806735 C693.542787,32.0964705 694.029449,32.0257742 694.523586,31.959934 L695.272481,31.8637345 L697.063204,31.6403129 C700.866322,31.1477021 701.823138,30.5404319 706.939237,30.7442708 C715.481161,31.0861257 719.685719,33.4600001 726.024249,34.77009 L727.934192,35.1497564 C728.807817,35.3288473 729.420048,35.4935842 730.346522,35.9039441 L731.151068,36.262364 C731.581056,36.4482244 731.98478,36.5953502 732.733031,36.7783141 L732.995717,36.8407317 L733.530879,36.9592354 C735.459603,37.3690366 737.602629,37.674795 739.093693,38.1801457 C740.569665,38.6791265 741.72871,39.2354369 743.180536,39.7450343 C744.369765,40.1633288 744.747058,40.6219664 745.887993,41.0232743 C747.047039,41.4309522 748.945579,41.6093113 750.385331,41.9787694 C753.17707,42.6980857 755.035229,43.5874688 757.597876,44.3463096 L758.879527,44.7107595 C760.293811,45.1288176 761.421541,45.5698383 762.845069,45.9897253 C764.665133,46.5269259 766.557637,46.6415853 768.854599,47.0259066 C772.061342,47.5631072 774.956126,48.1199337 778.34569,48.6047983 L779.7147,48.7946505 L781.105994,49 L0,49 L0.341,18.68 Z" id="n" fill="#2E4A6B"></path>
	</g>
</svg>