<?xml version="1.0" encoding="UTF-8"?>
<svg id="Layer_2" data-name="Layer 2" xmlns="http://www.w3.org/2000/svg" viewBox="0 0 581.39 581.39">
  <defs>
    <style>
      .cls-1 {
        fill: #fff;
      }

      .cls-2 {
        fill: #f60;
      }
    </style>
  </defs>
  <g id="Layer_1-2" data-name="Layer 1">
    <g>
      <circle class="cls-1" cx="290.7" cy="290.7" r="290.7"/>
      <path class="cls-2" d="m347.95,333.66l-2.83-.6-.19-.04-2.43-.51-1.8-.38-.41-.09-2.41,2.7-.35.4-1.51,1.69,1.24.26,3.45.73.98.21,3.44.73,2.04.43,1.58.33.81.17.26.06,3.56.75,14.82,3.13,4.58.97,1.85.39.66.14,2.13.45,5.8,1.23,3.66.77,2.93.62c.59.12,1.09.05,1.49-.1.37-.13.66-.32.84-.47.2-.16.47-.44.69-.83.19-.35.35-.79.35-1.34,0-.12-.04-.22-.06-.34-.13-1.03-.81-1.88-1.78-2.24-.13-.05-.24-.12-.37-.15l-4.04-.85-10.27-2.17-4.71-.99-4.71-.99h0s-5.45-1.15-5.45-1.15l-9.12-1.92-4.7-.99Zm-116.94,22.43l4.28-.89.14-.03.14-.03,4.28-.89.12-.02,4.43-.93,9.55-1.99,2.95-.62-3.46-3.88-.81-.9-1.7.35-2.64.55-4.11.86-4.33.9-.11.02-4.31.9-4.4.92h-.03s-4.28.9-4.28.9l-.21.04-15.09,3.14-4.48.93-4.52.94-5.32,1.11-3.52.73-4.44.92-1.75.36c-.74.15-1.33.61-1.73,1.21-.3.45-.5.96-.5,1.53,0,.69.23,1.19.5,1.57.18.26.38.47.53.6.39.31,1.2.81,2.33.57l.44-.09,4.45-.93,8.84-1.85,4.46-.93,4.45-.93,13.23-2.76,1.97-.41,1.66-.35,2.8-.58.16-.03Zm-45.67,160.84v-12.65l-29.7,6.32,29.7,6.32Zm184.39-223.38l1.95-1.68,1.29-1.11.11-.09-.7-.84-3.28-3.94-1.29,2.76-.78,1.67-.21.44-1.26,2.69-.61,1.3-2.29,4.9,3.71-3.2,3.35-2.89Zm-172.16,211.25h8.94v22.54h10.29v-22.54h8.94v-7.98h-28.17v7.98Zm13.67-210.89l2.94,2.53,2.07,1.79,1.64,1.41-.83-1.78-1.31-2.79-.16-.33-1.87-3.98-.21-.44-1.38-2.95-.69-1.48-1.76,2.11-2.22,2.66.11.09,3.25,2.8.42.36Zm83.46-63.6h0s-1.36,0-1.36,0h-41.06l.82.25h.04s1.97.61,1.97.61l4.32,1.32.13.04,2.26.69,2.77.85.15.05,6.16,1.89.78.24.95.29c.57.17,1.08.47,1.52.83.64.53,1.12,1.22,1.38,2.02.13.4.21.82.23,1.25.06,1.9-1.1,3.62-2.88,4.28l-1.92.72-1.22.45-6.43,2.4-2.48.92-5.36,2-4.83,1.8-3.6,1.34-1.88.7c-.5.18-1.02.28-1.55.28h-1.46l5.78,5.23,1.95,1.76.83-.29,1.1-.39,5.98-2.12,3.7-1.31,2.71-.96,5.26-1.87.77-.27,6.35-2.25h.01s1.3-.47,1.3-.47h24.84l1.94.69,2.77.98,3.6,1.28,4.89,1.74,1.83.65,7.39,2.62,1.21.43,4.37,1.55,4.43-4,3.3-2.98h-1.46c-.53,0-1.05-.09-1.55-.28l-6.6-2.46-2.01-.75-6.75-2.51-3.98-1.48-4.19-1.56-4.2-1.57c-.3-.11-.58-.27-.85-.44-1.28-.83-2.08-2.27-2.03-3.84.06-1.9,1.31-3.55,3.13-4.1l1.73-.53,3.34-1.02,2.51-.77h0s1.98-.61,1.98-.61l3.24-.99h0s4.41-1.35,4.41-1.35l2.09-.64h0s1.03-.32,1.03-.32h-33.58s0,0,0,0Zm-89.09,70.42l-3.54-3.05c-1,2.02-1.37,4.25-1.13,6.41.04.34.09.68.16,1.02.08.4.19.8.31,1.19l2.11,1.82,6.71,5.78.47.4c.6.1,1.21.16,1.83.16.1,0,.19,0,.29-.01.21,0,.43,0,.64-.03,3.16-.25,6.02-1.73,8.05-4.16l.88-1.06-.47-1-1.21-2.59-.39-.84-1.96-4.19-3.92,4.55-1.58,1.83-2.49-2.15-2.98-2.56-1.77-1.52Zm-16,41.99c-.13.03-.25.1-.37.15-.97.36-1.65,1.22-1.78,2.24-.01.11-.06.22-.06.34,0,.55.15.99.35,1.34.22.39.48.66.69.83.18.15.47.34.84.47.4.14.9.22,1.49.09l2.93-.62,3.65-.77,1.49-.32,4.3-.91,2.13-.45,2.51-.53,4.58-.97,11.06-2.34.74-.16,3.02-.64,3.82-.81.81-.17,3.62-.76,3.44-.73.98-.21,2.16-.46,1.28-.27,1.24-.26-1.47-1.65-.03-.04-2.02-2.26-.74-.83-.41.09-1.8.38-2.63.55-2.83.6-3.55.75-1.15.24-9.12,1.92-5.45,1.15-4.71.99-2.38.5-2.33.49-10.27,2.17-4.04.85Zm170.65-37.95l-.19.4-1.89,4.03.88,1.06c2.03,2.44,4.89,3.92,8.06,4.16.31.02.62.04.93.04.62,0,1.22-.07,1.82-.16l.47-.4,6.71-5.78,1.2-1.03.91-.78c.27-.86.45-1.75.52-2.65.15-2.02-.25-4.08-1.18-5.97l-3.54,3.05-3.69,3.18-.5.43-3.04,2.62-1.93-2.24-3.57-4.14-1.96,4.19Zm31.32,60.08l.44.09c1.15.24,1.95-.25,2.34-.57.16-.13.35-.34.53-.59.27-.38.5-.89.5-1.57,0-.57-.2-1.08-.5-1.53-.4-.59-.99-1.05-1.73-1.2l-1.75-.36-4.44-.92-3.52-.73-5.32-1.11-4.52-.94-4.48-.93-15.09-3.14-.21-.04-4.28-.89h-.03s-4.4-.92-4.4-.92l-4.31-.9-.11-.02-4.33-.9-4.11-.86-4.33-.9-.81.9-3.46,3.88,2.95.62,9.55,1.99,4.43.92.12.02,4.29.9.14.03.14.03,4.28.89.16.03,2.8.58,1.66.35,1.97.41,13.23,2.76,4.46.93,4.46.93,8.84,1.85,4.45.93Zm-5.2,151.69l27.96-5.95-27.96-5.95v11.91ZM290.28,15C137.98,15,14.52,138.46,14.52,290.76c0,9.58.49,19.04,1.44,28.37l10.96-28.37,17-44,3.05-7.89h53.26l4.87-6.08-67.13-30.5,74.85,20.85,12.74-15.9-66.83-45.82,74.85,35.81,11.75-14.67-59.24-58.08,67.25,48.09,12.2-15.22-46.3-64.75,54.02,55.1,6.49-8.1,3.7-4.62h6.34l-32.65-68.24,46.78,68.24h19.07l-24.32-87.29,36.12,79.5,14.38-23.45-6.6-67.72,14.23,55.28,20.83-33.98,9.05-14.76.81-10.48.8,10.26,10,14.38,21.02,30.22,13.11-50.93-5.97,61.2,13.91,20,5.84-3.26,30.11-66.27-16.32,58.57,9.22-5.15,9.17-5.12,6.52,8.24,3.88,4.9,29.06-42.38-23.58,49.3,17.21,21.74,44.29-45.18-38,53.14,14.97,18.91,56.17-40.17-49.53,48.56,14.45,18.25,62.45-29.88-55.06,37.75h41.86l3.35,7.02,1.95,4.08,28.65-7.98-26.68,12.12,36.48,76.35,16.96,35.49c1.49-11.62,2.27-23.46,2.27-35.49,0-152.3-123.46-275.76-275.76-275.76Zm75.1,481.83h-10.29v30.52h21.78v-7.98h-11.49v-22.54Zm-58.95,17.81l-7.26-17.81h-11.08l12.91,30.52h10.12l12.91-30.52h-10.12l-7.47,17.81Zm-35.51-17.81l-13.03,29.8-5.93-8.69c1.71-.87,3.08-2.04,4.07-3.52,1.13-1.7,1.7-3.73,1.7-6.08s-.57-4.4-1.7-6.13c-1.13-1.73-2.74-3.06-4.82-3.99-2.08-.93-4.54-1.4-7.39-1.4h-14.69v30.52h10.29v-7.67h2.8l5.18,7.67h20.64l2.04-5.32h11.61l2.04,5.32h10.64l-13.34-30.52h-10.12Zm-24.59,14.13c-.68.64-1.74.96-3.16.96h-3.75v-7.15h3.75c1.42,0,2.48.32,3.16.96.68.64,1.02,1.51,1.02,2.62s-.34,1.98-1.02,2.62Zm26.61,3.66l2.96-7.69,2.96,7.69h-5.91Zm-22.39-311.63c-.32-.02-.64-.05-.97-.05-2.56,0-4.96.7-7.04,1.9-.02.01-.04.02-.06.04-1.15.68-2.2,1.51-3.11,2.48h20.41c-.18-.19-.36-.37-.55-.55-2.3-2.18-5.33-3.58-8.68-3.81Zm84.59,312.59h12.91v-7.41h-12.91v-3.58h14.7v-7.76h-24.81v30.52h25.38v-7.76h-15.26v-4.01Zm-2.14-312.42c-.78-.14-1.59-.22-2.41-.22-2.83,0-5.47.85-7.68,2.29-.93.61-1.77,1.32-2.53,2.12h20.41c-.82-.87-1.75-1.63-2.77-2.27-1.51-.95-3.21-1.61-5.03-1.93Z"/>
      <path d="m263.34,332.52l4.62,5.2,2.21,2.49h3.73l-2.1-6.47-1.35-4.15-1.16-3.57-1.87-5.77-1.47-4.53-.75-2.3-.38-1.16-.68-2.09-.75,2.23-1.51,4.46-2.43,7.21-.95,2.81-.05.15,3.67,4.13,1.22,1.37Zm-30.98-41.76l.06.13,3.63,7.64.97,2.03,2.41,5.07.51.57.89,1,4.4,4.95,1.64,1.85,4.11,4.63.69.78.03-.1,2.02-5.98.49-1.46,1.19-3.54.94-2.8,1.18-3.48.72-2.14-2.96-1.62-4.69-2.56-5.83-3.19-3.24-1.77-4.02-2.2-8.42-4.61h0s3.15,6.61,3.15,6.61l.09.2Zm227.35,103.55l-6.31.9h-2.86c.11-.79.23-1.6.34-2.45,1.26-9.7,2.04-22.01,2.29-35.3.04-2.04.06-4.09.08-6.17,0-.95.02-1.89.02-2.85,0-.56,0-1.09,0-1.64,0-.56,0-1.12,0-1.68,0-1.36-.03-2.68-.05-3.98-.09-5.49-.28-10.48-.55-15.01-.36-6.15-.86-11.46-1.44-16.02-.6-4.69-1.27-8.61-1.96-11.84-.66-3.07-1.32-5.55-1.94-7.51-1.36-4.3-2.5-6.18-2.81-6.64l-.38-.57-.53-.43c-.12-.1-.29-.22-.5-.36-1.85-1.23-7.37-3.81-21-3.81-.09,0-.17,0-.26,0-5.65.01-10.38.48-14.11,1.06-2.28.36-4.17.76-5.69,1.13l.27-1.55,3.02-17.49.37-2.16,1.43-8.28c.78-4.49-1.73-8.96-5.96-10.64l-.66-.26-.68-.27-8-3.17c1.47-3.46,1.17-7.38-.86-10.57-.82-1.29-1.88-2.38-3.09-3.23-.2-.14-.41-.26-.62-.39-1.76-1.07-3.79-1.7-5.93-1.7l-6.19.03h-.11l-3.92-10.49-.28-.75h0s0,0,0-.01l-.38-1.02-7.99-21.42-.96-2.58c-.04-.12-.11-.22-.16-.34-1.59-3.82-5.36-6.38-9.52-6.38h-123.07c-4.29,0-8.18,2.7-9.68,6.72l-2.3,6.16-.2.53-7.63,20.45-1.4,3.76-2.01,5.38h-6.29c-3.07,0-5.93,1.22-8.04,3.33-.46.46-.88.96-1.26,1.5-.11.16-.24.3-.34.47-2.03,3.19-2.33,7.11-.86,10.57l-9.34,3.7c-.29.12-.55.27-.83.42-.57.29-1.11.63-1.6,1.03-2.7,2.16-4.15,5.66-3.54,9.2l1.53,8.83.75,4.35,2.48,14.32.34,1.98c-1.93-.48-4.47-1-7.63-1.42-3.45-.46-7.6-.78-12.42-.78-1.75,0-3.35.05-4.84.12-8.73.45-13.21,2.06-15.32,3.19-.65.35-1.09.65-1.34.85l-.53.43-.38.57c-.31.46-1.45,2.34-2.81,6.64-.65,2.05-1.35,4.67-2.03,7.94-.59,2.8-1.16,6.09-1.68,9.94-.64,4.75-1.2,10.37-1.6,16.96-.24,3.97-.43,8.3-.53,13.01-.01.64-.03,1.29-.04,1.94-.03,1.49-.05,3.02-.06,4.59,0,.55,0,1.11,0,1.68,0,.55,0,1.08,0,1.64,0,.96.01,1.9.02,2.85.01,2.08.04,4.13.08,6.17.2,10.48.73,20.33,1.57,28.79l-9.11-.97-12.45-1.32-72.97,9.82c.6,1.48,1.19,2.96,1.81,4.42.63,1.48,1.28,2.94,1.93,4.41,22.47,50.56,59.7,93.11,106.22,122.17,5.43,3.39,10.99,6.6,16.67,9.62,38.55,20.49,82.52,32.11,129.22,32.11s90.67-11.62,129.22-32.11c2.63-1.4,5.25-2.83,7.83-4.31,50.77-29.13,91.37-73.96,115.22-127.85.64-1.45,1.29-2.91,1.91-4.38.61-1.46,1.21-2.93,1.8-4.39l-37.73-6.17-48.81,7Zm-36.54-31.89l-1.98,3.96-1.4,2.8h-8.49c.05-1.04.1-2.08.14-3.14l10.9-2.92-1.52-5.66-.33-1.25,2.5,1.25,8.51,4.26,1.77-3.54,1.05,3.91,1.14,4.28,8.7-2.33c-.06,1.76-.13,3.48-.21,5.14h-8.81l.31-.62-12.28-6.14Zm-4.98-22.1l-6.47,1.73c-.02-1.87-.06-3.73-.11-5.56l9.74-2.61-1.23,2.46-1.98,3.96.05.02Zm3.93,8.11l-1.44,2.87-.03.06-1.76,3.53-7.22,1.93c.03-1.82.05-3.66.06-5.52v-.09s10.38-2.78,10.38-2.78Zm12.34,9.04l-.97.26.13-.26,1.83-3.66-5.01-2.51-7.8-3.9-.37.74-.36-1.33-.45-1.68-.98-3.67,7.33,3.67,3.35,1.68.32.16.08-.16.84-1.68.85-1.71.46,1.71.45,1.68.14.53,1.06,3.96.08.31,1.16-.31,7.79-2.09c0,.71,0,1.39-.01,2.09,0,1.18-.01,2.37-.03,3.52l-9.91,2.65Zm9.72-22.95c.03.84.05,1.7.08,2.57.03.98.05,1.97.07,2.99l-10.84,2.9,1.96-3.92-13.34-6.67-.07.14-1.55-5.81,11.01,5.5.38-.76,1.39-2.79,1.04,3.89v.02s1.15,4.28,1.15,4.28l5.22-1.4,3.51-.94Zm-22.09-46.7c9.38,0,13.83,1.36,15.43,2.02.11.25.24.56.39.93.61,1.53,1.49,4.15,2.4,8.2.54,2.39,1.09,5.29,1.61,8.76.71,4.72,1.35,10.5,1.8,17.54,0,.07,0,.14.01.21l-10.25,2.74,1.88-3.77.08-.16-13.34-6.67-1.98,3.96-.66,1.32-1.19,2.38-.13.26.05.02-6.91,1.85c-.08-1.81-.18-3.59-.28-5.34,0-.03,0-.07,0-.1,0-.02,0-.05,0-.07l10.29-2.75-2.29-8.55-8.66,2.32c-.28-3.1-.59-6.05-.94-8.78-.12-.95-.25-1.86-.38-2.74-.11-.78-.23-1.51-.35-2.23-.54-3.34-1.14-6.12-1.81-8.4-.15-.52-.31-1.02-.48-1.49,3.59-.72,8.87-1.45,15.72-1.45Zm-27.21,72.87c.3.45.5.97.5,1.53,0,.69-.23,1.2-.5,1.57-.18.26-.38.47-.53.59-.39.31-1.19.81-2.34.57l-.44-.09-4.45-.93-8.84-1.85-4.46-.93-4.46-.93-13.23-2.76-1.97-.41-1.66-.35-2.8-.58-.16-.03-4.28-.89-.14-.03-.14-.03-4.29-.9-.12-.02-4.43-.92-9.55-1.99-2.95-.62,3.46-3.88.81-.9,4.33.9,4.11.86,4.33.9.11.02,4.31.9,4.4.92h.03s4.28.9,4.28.9l.21.04,15.09,3.14,4.48.93,4.52.94,5.32,1.11,3.52.73,4.44.92,1.75.36c.74.15,1.33.61,1.73,1.2Zm-5.3,34.52h-6.22l-6.42-.66c.77-5.42,1.3-12.95,1.38-23.41l9.19,1.92c.4,7.25.98,13.94,1.73,19.7.11.85.22,1.65.34,2.45Zm-97.44,57.36c.75,2.02,1.79,3.74,3.12,5.17,1.34,1.43,2.94,2.52,4.8,3.26,1.86.75,3.95,1.12,6.25,1.12,2.92,0,5.55-.67,7.88-2,2.33-1.34,4.46-3.22,6.39-5.64l13.89,12.4c-3.23,4.16-7.32,7.38-12.26,9.65-4.94,2.27-10.61,3.4-17.01,3.4-5.22,0-10.05-.82-14.5-2.47-4.44-1.65-8.3-3.99-11.56-7.04-3.26-3.04-5.8-6.65-7.6-10.81-1.8-4.16-2.7-8.76-2.7-13.8s.9-9.63,2.7-13.8c1.8-4.16,4.34-7.77,7.6-10.81,3.26-3.04,7.11-5.39,11.56-7.04,4.44-1.65,9.28-2.47,14.5-2.47,6.4,0,12.07,1.12,17.01,3.36,4.94,2.24,9.03,5.47,12.26,9.69l-13.89,12.4c-1.93-2.42-4.06-4.3-6.39-5.64-2.33-1.34-4.96-2-7.88-2-2.3,0-4.38.37-6.25,1.12-1.86.75-3.47,1.83-4.8,3.26-1.34,1.43-2.38,3.16-3.12,5.17-.75,2.02-1.12,4.27-1.12,6.76s.37,4.74,1.12,6.76Zm21.31-65.89l-40.52,8.58-29.27-8.52c1.22-5.91.85-9.42.86-24.42l2.71-.57,18.53-3.87h49.03l21.24,4.44c0,13.35.68,22.26,1.69,28.23l-24.27-3.86Zm77.87-43.8c.97.36,1.65,1.22,1.78,2.24.01.11.06.22.06.34,0,.55-.15.99-.35,1.34-.22.39-.48.66-.69.83-.18.15-.47.34-.84.47-.4.14-.9.22-1.49.1l-2.93-.62-3.66-.77-5.8-1.23-2.13-.45-.66-.14-1.85-.39-4.58-.97-14.82-3.13-3.56-.75-.26-.06-.81-.17-1.58-.33-2.04-.43-3.44-.73-.98-.21-3.45-.73-1.24-.26,1.51-1.69.35-.4,2.41-2.7.41.09,1.8.38,2.43.51.19.04,2.83.6,4.7.99,9.12,1.92,5.45,1.15h0s4.71.99,4.71.99l4.71.99,10.27,2.17,4.04.85c.13.03.25.1.37.15Zm-25.53-38.14l1.93,2.24,3.04-2.62.5-.43,3.69-3.18,3.54-3.05c.93,1.89,1.33,3.95,1.18,5.97-.07.9-.25,1.79-.52,2.65l-.91.78-1.2,1.03-6.71,5.78-.47.4c-.6.1-1.21.16-1.82.16-.31,0-.62-.01-.93-.04-3.16-.25-6.02-1.73-8.06-4.16l-.88-1.06,1.89-4.03.19-.4,1.96-4.19,3.57,4.14Zm-3.12-5.1l2.29-4.9.61-1.3,1.26-2.69.21-.44.78-1.67,1.29-2.76,3.28,3.94.7.84-.11.09-1.29,1.11-1.95,1.68-3.35,2.89-3.71,3.2Zm24.08,20.07l.96,1.14,2.47,2.94.76.9-.88-.19-2.53-.53-10.6-2.23-.88-1.05.17-.15,1.95-1.68,4.59-3.95,3.71,4.43.3.36Zm-37.53-116.91c1.11,0,2.22.18,3.3.51,4.31,1.31,8.19,5.06,10.03,10.01h0s.45,1.2.45,1.2l1.92,5.13.67,1.79c-.62-.03-1.26-.04-1.91-.05-.05,0-.09,0-.14,0-2.06-.02-5-.03-8.52-.03-.5,0-1.04,0-1.57,0-.12,0-.24,0-.37,0,.27-1.41.43-2.87.43-4.36,0-.1-.01-.2-.02-.3,0-.1.02-.21.02-.31h0c0-.21-.05-.41-.06-.62-.18-3.31-1.04-6.43-2.48-9.22-.69-1.33-1.49-2.58-2.42-3.75h.67Zm-111.62-15.47h108.97l-5.42,6.62h-101.73l-5.42-6.62h3.6Zm69.26,57.17c.26.17.54.32.85.44l4.2,1.57,4.19,1.56,3.98,1.48,6.75,2.51,2.01.75,6.6,2.46c.49.18,1.02.28,1.55.28h1.46l-3.3,2.98-4.43,4-4.37-1.55-1.21-.43-7.39-2.62-1.83-.65-4.89-1.74-3.6-1.28-2.77-.98-1.94-.69h-24.84l-1.3.46h-.01s-6.35,2.26-6.35,2.26l-.77.27-5.26,1.87-2.71.96-3.7,1.31-5.98,2.12-1.1.39-.83.29-1.95-1.76-5.78-5.23h1.46c.53,0,1.05-.09,1.55-.28l1.88-.7,3.6-1.34,4.83-1.8,5.36-2,2.48-.92,6.43-2.4,1.22-.45,1.92-.72c1.78-.66,2.93-2.38,2.88-4.28-.01-.43-.1-.85-.23-1.25-.26-.79-.74-1.49-1.38-2.02-.44-.37-.95-.66-1.52-.83l-.95-.29-.78-.24-6.16-1.89-.15-.05-2.77-.85-2.26-.69-.13-.04-4.32-1.32-1.97-.6h-.04s-.82-.26-.82-.26h76l-1.03.32h0s-2.09.64-2.09.64l-4.41,1.35h0s-3.24.99-3.24.99l-1.98.61h0s-2.51.77-2.51.77l-3.34,1.02-1.73.53c-1.81.56-3.07,2.2-3.13,4.1-.05,1.57.75,3.01,2.03,3.84Zm-43.39-28.3c.07,0,.11.04.15.09.02.03.04.05.04.09,0,.11-.01.21-.02.31-.03,1.5-.28,2.95-.72,4.31-.04.13-.09.26-.14.39-.7,0-24.51-.04-26.56-.04h0c-.3-.94-.52-1.9-.62-2.9,0,0,0-.02,0-.03-.05-.47-.07-.95-.07-1.43v-.61s.02-.06.04-.09c.03-.05.08-.09.15-.09h27.77Zm-24.09-8.85c.91-.97,1.96-1.8,3.11-2.48.02-.01.04-.03.06-.04,2.07-1.2,4.47-1.9,7.04-1.9.33,0,.65.03.97.05,3.35.23,6.38,1.64,8.68,3.81.19.18.37.36.55.55h-20.41Zm68.42,11.99s0,.02,0,.02c.07.7.18,1.38.31,2.07-2.12,0-4.12.01-5.92.02-1.8,0-3.41.01-4.81.01-3.51.01-5.62.02-5.62.02h-2.93s-1.52,0-4.12-.01c-1.86,0-4.27-.01-7.07-.02-1.5,0-3.1,0-4.8-.01-.25,0-.51,0-.77,0,.28-1.43.44-2.91.44-4.43,0-.1-.01-.2-.02-.3,0-.1.02-.21.02-.31,0-.21-.05-.41-.06-.62-.17-3.26-1.02-6.33-2.42-9.09-.7-1.38-1.53-2.68-2.48-3.88h45.1c-2.86,3.61-4.64,8.08-4.9,12.97-.01.21-.06.4-.06.62v.61c0,.79.04,1.57.12,2.34Zm9.45,2.06h0c-.31-.95-.53-1.93-.63-2.94,0,0,0-.02,0-.03-.05-.47-.07-.95-.07-1.44v-.61s.02-.06.04-.09c.03-.05.08-.09.14-.09h27.77c.07,0,.11.04.14.09.02.03.04.05.04.09h0c0,.11-.01.21-.02.31-.03,1.63-.33,3.2-.84,4.66-1.87,0-23.1.04-26.55.04Zm3.14-14.05c.76-.8,1.6-1.52,2.53-2.12,2.21-1.45,4.84-2.29,7.68-2.29.82,0,1.63.09,2.41.22,1.82.32,3.52.98,5.03,1.93,1.02.64,1.95,1.4,2.77,2.27h-20.41Zm-103.98,10.32l1.62-4.35c1.18-3.15,3.18-5.82,5.59-7.68,1.31-1.01,2.74-1.78,4.23-2.26,1.15-.37,2.33-.58,3.51-.58h.27c-.66.83-1.25,1.7-1.79,2.62-1.33,2.26-2.29,4.76-2.78,7.43-.18.95-.28,1.93-.33,2.92-.01.21-.06.4-.06.62v.61c0,.79.04,1.57.12,2.34,0,0,0,.02,0,.03.07.67.17,1.34.3,2-.51,0-1.04,0-1.52,0-1.44,0-2.76,0-3.98,0-1.77,0-3.33.01-4.54.02-.7,0-1.38.02-2.04.05l1.41-3.78Zm-19.35,16.61c.02-.09.02-.18.05-.26.05-.18.12-.35.19-.52.12-.32.24-.64.42-.94.6-.99,1.49-1.71,2.51-2.17.06-.03.11-.05.17-.07.49-.2.99-.34,1.53-.4.16-.02,24.16-.42,24.16-.42l2.49.81,3.18,1.04h.01s.35.12.35.12l4.58,1.5,2.09.68,7,2.29,5.91,1.93,3.72,1.22h.04s4.14,1.37,4.14,1.37l-5.91,2.24-.59.22-.88.33-8.97,3.41-.2.08-.05-.14-.19.07h-22.54l-4-8.38-4.84.14-1.35.04-2.53.07,4.44,9.33,1.57,3.3,1.8,3.78,4.73,9.93.64,1.34,1.93,4.05,8.7,4.76,9.16,5.01,7.13,3.91,2.61,1.43.09.05v-8.19c0-3.36,1.94-6.42,4.98-7.86l3.87-1.82v22.71l.82.45.56.31.58.32.07-.22.14-.4.5-1.48.57-1.68c.05-.16.12-.31.18-.46.48-1.35,1.06-2.65,1.72-3.88.45-.84.96-1.64,1.49-2.42.19-.27.37-.55.56-.82.65-.89,1.36-1.72,2.11-2.52.75-.81,1.54-1.58,2.38-2.29.65-.54,1.32-1.05,2.02-1.53.36-.25.73-.49,1.1-.73.16-.1.31-.2.47-.3.46-.28.94-.54,1.41-.79.19-.1.38-.2.58-.3.48-.24.97-.46,1.46-.67.23-.1.46-.19.7-.28.67-.27,1.36-.5,2.05-.72.59-.18,1.19-.35,1.79-.49.46-.11.93-.2,1.4-.28.18-.03.36-.08.54-.11.49-.08.99-.13,1.49-.18.44-.05.89-.08,1.34-.11.05,0,.09,0,.14,0,.14,0,.29-.01.43-.02.34-.01.68-.04,1.03-.04h4.43s2.2.25,2.56.3c.13.02.27.03.41.05.26.04.51.11.77.15.89.17,1.77.38,2.63.63.41.12.82.24,1.22.38.77.26,1.52.57,2.26.9.68.3,1.35.63,2,.99.36.2.72.38,1.07.6.1.06.2.13.29.19.94.58,1.84,1.23,2.7,1.92.75.6,1.49,1.23,2.18,1.91.32.31.62.65.92.98,1.07,1.16,2.04,2.4,2.91,3.74.29.44.55.9.81,1.36.58,1.02,1.1,2.08,1.55,3.18.22.55.44,1.09.63,1.66l1.01,3,.05.15.03.08.19.55.34-.19.8-.44.82-.45v-22.71l3.87,1.82c3.04,1.43,4.98,4.49,4.98,7.86v8.19l.18-.1,7.88-4.31,10.25-5.61,7.02-3.84,2.37-1.3.23-.49,2.61-5.47,4.46-9.36,2.65-5.56,5.16-10.85h-.48s-2.06-.07-2.06-.07l-1.35-.04-4.84-.14-4,8.38h-22.54l-.19-.07-.05.14-4.91-1.86-5.72-2.17-2.17-.83-2.27-.86-1.46-.55,1.78-.58,2.17-.71h.02s6.57-2.16,6.57-2.16l5.76-1.88,10.66-3.49.34-.11.18-.06,3.54-1.16h26.18c2.82,0,4.14,1.37,4.67,2.24.28.46.47.95.61,1.46.02.09.03.17.05.26.27,1.22.18,2.5-.38,3.66l-3.96,8.32-6.46,13.57-1.66,3.5-6.35,13.35-1.18,2.48-1.18,2.48-.91,1.92-1.45,3.06-1.62,3.41-.34.72-2.51,5.28-.28.58-.64,1.33-2.1,4.4-1.68,3.54-.27.56-1.9,4-.04.09h0s-.35.4-.35.4l-3.87,4.36-.22.24-2,2.26-3.38,3.81-.79.89-.37.42-.53.6-6.76,7.6-.21.24-4.47,5.03-2.11,2.38-1.18,1.33-2.17,2.44-2.31,2.6-1.49,1.68-1.97,2.22-.03.04h-48.16l-.03-.04-1.97-2.22-1.49-1.68-.54-.6-.37-.42-1.4-1.58-5.46-6.15-.05-.06-.89-1.01-5.39-6.07-1.75-1.97-4.25-4.78-.2-.23-.59-.66-1.9-2.14-1.48-1.67-2.45-2.75-2.36-2.66-1.19-1.34-.45-.5-.05-.09-1.96-4.11-1.31-2.76-.58-1.23-2.09-4.4-.14-.29-1.49-3.13-1.8-3.79-2.57-5.41-.22-.47-.62-1.31-2.09-4.4-1.38-2.89-1.19-2.51-3.93-8.27-.76-1.6-7.54-15.85-4.81-10.11c-.55-1.16-.65-2.45-.38-3.66Zm13.3,70.54l2.49,2.15,1.58-1.83,3.92-4.55,1.96,4.19.39.84,1.21,2.59.47,1-.88,1.06c-2.03,2.44-4.89,3.92-8.05,4.16-.21.02-.43.02-.64.03-.1,0-.19.01-.29.01-.62,0-1.23-.07-1.83-.16l-.47-.4-6.71-5.78-2.11-1.82c-.12-.39-.23-.79-.31-1.19-.07-.34-.12-.68-.16-1.02-.24-2.16.13-4.38,1.13-6.41l3.54,3.05,1.77,1.52,2.98,2.56Zm-2.88-14.16l2.22-2.66,1.76-2.11.69,1.48,1.38,2.95.21.44,1.87,3.98.16.33,1.31,2.79.83,1.78-1.64-1.41-2.07-1.79-2.94-2.53-.42-.36-3.25-2.8-.11-.09Zm-17.08,33.13l2.47-2.94,1.26-1.5.19-.23,3.52-4.2,4.02,3.46,2.32,2,.19.17.17.15-.88,1.05-2.13.45-8.47,1.78-2.53.53-.88.19.76-.9Zm-2.94,21.33c.13-1.03.81-1.88,1.78-2.24.13-.05.24-.12.37-.15l4.04-.85,10.27-2.17,2.33-.49,2.38-.5,4.71-.99,5.45-1.15,9.12-1.92,1.15-.24,3.55-.75,2.83-.6,2.63-.55,1.8-.38.41-.09.74.83,2.02,2.26.03.04,1.47,1.65-1.24.26-1.28.27-2.16.46-.98.21-3.44.73-3.62.76-.81.17-3.82.81-3.02.64-.74.16-11.06,2.34-4.58.97-2.51.53-2.13.45-4.3.91-1.49.32-3.65.77-2.93.62c-.59.13-1.09.05-1.49-.09-.37-.13-.66-.32-.84-.47-.2-.16-.47-.44-.69-.83-.19-.35-.35-.79-.35-1.34,0-.12.04-.22.06-.34Zm-1.78,15.57c.4-.59.99-1.05,1.73-1.21l1.75-.36,4.44-.92,3.52-.73,5.32-1.11,4.52-.94,4.48-.93,15.09-3.14.21-.04,4.28-.89h.03s4.4-.92,4.4-.92l4.31-.9.11-.02,4.33-.9,4.11-.86,2.64-.55,1.7-.35.81.9,3.46,3.88-2.95.62-9.55,1.99-4.43.93-.12.02-4.28.89-.14.03-.14.03-4.28.89-.16.03-2.8.58-1.66.35-1.97.41-13.23,2.76-4.45.93-4.46.93-8.84,1.85-4.45.93-.44.09c-1.14.24-1.95-.25-2.33-.57-.16-.13-.35-.34-.53-.6-.27-.38-.5-.89-.5-1.57,0-.57.2-1.08.5-1.53Zm-48.8-35.98c.07-1.09.15-2.14.23-3.17l8.99-2.4-1.14-4.28-1.14-4.28-5.76,1.54c.26-2.14.54-4.11.83-5.91.42-2.62.86-4.9,1.28-6.84.95-4.32,1.87-7.06,2.49-8.63.15-.37.28-.68.38-.92,1.59-.66,6.04-2.02,15.44-2.02,6.85,0,12.14.73,15.72,1.45-.16.47-.32.97-.48,1.49-.57,1.93-1.08,4.22-1.55,6.9-.23,1.29-.45,2.67-.66,4.16-.11.75-.21,1.51-.32,2.31-.59,4.56-1.08,9.7-1.46,15.24-.05.71-.09,1.44-.13,2.16-.08,1.23-.15,2.46-.22,3.73l-11.07,2.96,1.96-3.92-.66-.33-2.45-1.23-10.24-5.12-3.22,6.43-.74,1.49.05.02-6.3,1.68c.05-.86.1-1.7.16-2.53Zm11.12,37.7l-1.98,3.96-1.4,2.8h-7.99c-.05-1.04-.09-2.12-.13-3.2l10.67-2.86-1.51-5.66-.33-1.25,2.5,1.25,8.51,4.26,1.77-3.54,1.05,3.91,1.14,4.28,8.79-2.35c.06,1.75.13,3.47.2,5.17h-9.31l.31-.62-12.28-6.14Zm1.13-28.95l-2.2-1.1-.07.14-.66-2.46-.9-3.35,3.94,1.97,5.77,2.89,1.3.65.64-1.28,1.13-2.27.47,1.75.58,2.16,1.14,4.28,8.74-2.34c-.05,1.85-.1,3.73-.13,5.63l-10.57,2.83,1.96-3.92-11.15-5.57Zm3.51,11.66l2.76,1.38.59.29.32.16.08-.16.33-.66.51-1.01.85-1.71.46,1.71.13.47.32,1.2.14.53,1.06,3.96.08.31,1.16-.31,7.37-1.97c0,.66,0,1.31.01,1.97,0,1.21.01,2.42.03,3.61l-9.56,2.56-.97.26.13-.26,1.83-3.66-5.01-2.51-7.8-3.9-.37.74-.36-1.33-.45-1.68-.98-3.67,7.33,3.67Zm-16.35-7.49c.01-.38.02-.75.03-1.13l9.86-2.64-.33.66-2.88,5.76.05.02-6.82,1.82c.02-1.54.05-3.04.09-4.5Zm-.06,13.66l10.73-2.87-1.44,2.87-1.79,3.59-7.49,2c-.03-1.82-.05-3.68-.07-5.57l.06-.02Zm49.13,165.63l-29.7-6.32,29.7-6.32v12.65Zm-19.28-38.49l-11.07-16.41h-11.41v16.41h-21.16v-65.25h36c1.73,0,3.37.1,4.97.26,2.44.24,4.73.68,6.86,1.3,1.39.4,2.72.86,3.98,1.43,3.78,1.69,6.78,4.04,9.1,6.96.41.52.84,1.01,1.2,1.57,2.42,3.7,3.64,8.06,3.64,13.1s-1.21,9.37-3.64,13c-2.11,3.17-5.04,5.65-8.69,7.52l13.73,20.12h-23.49Zm25.25-85.68c.75-5.76,1.33-12.45,1.73-19.7l9.19-1.92c.08,10.15.58,17.53,1.31,22.92l-.8.03-11.45-1.22s0-.07.01-.11Zm34.44,112.04h-8.94v22.54h-10.29v-22.54h-8.94v-7.98h28.17v7.98Zm-11.95-27.39c-4.51-1.68-8.41-4.05-11.7-7.13-3.29-3.08-5.86-6.7-7.69-10.86-1.83-4.16-2.75-8.7-2.75-13.61s.92-9.52,2.75-13.66c1.83-4.13,4.4-7.74,7.69-10.81,3.29-3.08,7.19-5.45,11.7-7.13,4.51-1.68,9.4-2.52,14.68-2.52s10.25.84,14.73,2.52c4.47,1.68,8.36,4.06,11.65,7.13,3.29,3.08,5.86,6.68,7.69,10.81,1.83,4.13,2.75,8.69,2.75,13.66s-.92,9.45-2.75,13.61c-1.83,4.16-4.4,7.78-7.69,10.86-3.29,3.08-7.18,5.45-11.65,7.13-4.47,1.68-9.38,2.52-14.73,2.52s-10.18-.84-14.68-2.52Zm69.94,49.93l-2.04-5.32h-11.61l-2.04,5.32h-20.64l-5.18-7.67h-2.8v7.67h-10.29v-30.52h14.69c2.85,0,5.31.47,7.39,1.4,2.08.93,3.68,2.26,4.82,3.99,1.13,1.73,1.7,3.77,1.7,6.13s-.57,4.38-1.7,6.08c-.99,1.48-2.36,2.64-4.07,3.52l5.93,8.69,13.03-29.8h10.12l13.34,30.52h-10.64Zm27.37,0h-10.12l-12.91-30.52h11.08l7.26,17.81,7.47-17.81h10.12l-12.91,30.52Zm39.29,0h-25.38v-30.52h24.81v7.76h-14.7v3.58h12.91v7.41h-12.91v4.01h15.26v7.76Zm26.47,0h-21.78v-30.52h10.29v22.54h11.49v7.98Zm9.5-10.79v-11.91l27.96,5.95-27.96,5.95Zm60.24-65.22v27.1h-22v-27.1l-20.69-28.05-3.2-4.33-3.75,4.13-17.13,18.86,27.42,36.5h-25.45l-16.36-21.6-4.9,5.44v16.16h-21.63v-65.25h21.63v23.63l21.44-23.63h41.21l.17.26.84,1.3,5.52,8.54,5.87,9.08,6.87-9.18,7.49-10.01h26.67l-30.03,38.15Zm86.99-159.61l-.46-.97-.5-1.05-16.7-34.96-2.53-5.29-14.31-29.94-2.81-5.88-1.01-2.12h-41.21l-3.82-4.83-7.85-9.92-11.89-15.03-7.83-9.89-12.39-15.65-7.54-9.52-14.43-18.23-6.85-8.65-6.25-7.9-19.9,11.12-17.73,9.91-.98.55-12.01-17.27-9.35-13.45-25.07-36.05-2.02-2.9-3.57,5.82-23.5,38.33-9.92,16.18-10.2,16.64-4.03,6.57h-47.55l-7.42,9.26-8.97,11.19-9.6,11.98-9.2,11.49-9.18,11.45-9.24,11.54-10.02,12.5-9.06,11.31-10.54,13.15h-50.72l-.92,2.37-14.01,36.28-.35.9-.33.85-20.18,52.23-.5,1.29h0s0,0,0,0l.65-.47,13.57-9.85,3.04-2.21,49.92-36.24-13.63,26.9-4.11,8.11-6.97,13.76-.85,1.68-2.28,4.49-3.13,6.17-3.91,7.71,23.75-7.71,19.01-6.17,13.84-4.49,4.5-1.46.66-.21,5.1-1.65c0-.26,0-.5.01-.75.07-5.92.25-11.33.53-16.25.32-5.77.76-10.89,1.29-15.42.58-5.05,1.27-9.38,1.99-13.06.54-2.75,1.11-5.15,1.67-7.23.87-3.22,1.75-5.69,2.53-7.56.91-2.17,1.69-3.53,2.22-4.31l.39-.59.75-1.12,1.05-.84.53-.43c.75-.6,1.71-1.23,2.88-1.84,4.27-2.23,11.59-4.27,24.17-4.27,3.37,0,6.45.15,9.23.39l-1.69-9.8-.13-.78-1.16-6.73c-.9-5.18.5-10.35,3.53-14.34.36-.47.73-.93,1.13-1.37,1.84-2,4.12-3.62,6.76-4.67l2.88-1.14c.2-3.39,1.25-6.72,3.12-9.66.22-.34.47-.65.71-.97.22-.3.42-.61.65-.9,3.82-4.74,9.55-7.52,15.74-7.52h.15l1.92-5.15.12-.31,8.26-22.14,1.09-2.92c.22-.59.48-1.16.75-1.71,3.03-6.18,9.22-10.32,16.12-10.72.36-.02.73-.04,1.1-.04h109.36l5.94-5.28,18.55-16.47,2.55-2.27,8.24,14.69,6,10.68,9.11,16.22,3.81,6.79,9.29,16.56,2.71,4.83,9.41,16.77,2.35,4.2,9.52,16.96,2.69,4.79,6.56,11.68,7.37-13.04,8.35-14.78,1.72-3.04.92,1.84,7.12,14.21,6.41,12.8,8.93,17.83,2.74,5.48,2.54,5.07,12.6,25.14,4.81,9.61,7.29,14.56.84,1.68,2.25,4.49,3.09,6.17,6,11.98-1.67-11.98-.86-6.17-.63-4.49-.23-1.68-1.83-13.17-.88-6.31-4.43-31.87-.42-3.02-.43-3.09-.33-2.37,2.24,2.52,2.61,2.94,2.28,2.56,46.02,51.81h0s0,0,0,0l-25.51-53.4Zm-49.24,59.57l-2.84-4.27-3.32,4.27-4.79,6.17-9.7,12.49,30.01-4.57-5.26-7.92-4.1-6.17Zm-365.98,6.17c-.02-1.15-.05-2.28-.06-3.44l-8.15,3.44-10.1,4.26,18.51,3.08c-.08-2.41-.15-4.86-.2-7.34Zm189.31-49.13l.71-2.19.52-1.61.41-1.25.1-.3h-38.3l.79,2.44.84,2.59.36,1.1.19.59.06.2.47,1.46.64,1.97.99,3.06,1.37,4.23,1.92,5.91,2.39,7.36,2.05,6.32h14.14l.27-.82,2.78-8.55,2.27-6.99,1.67-5.15,1.28-3.94.1-.31.83-2.55.85-2.62.3-.92Zm-68.82,125.49c-1.34-1.4-2.89-2.47-4.66-3.22-1.77-.75-3.68-1.12-5.73-1.12s-3.96.37-5.73,1.12c-1.77.75-3.33,1.82-4.66,3.22-1.34,1.4-2.38,3.11-3.12,5.13-.75,2.02-1.12,4.3-1.12,6.85s.37,4.83,1.12,6.85c.75,2.02,1.79,3.73,3.12,5.13,1.34,1.4,2.89,2.47,4.66,3.22,1.77.75,3.68,1.12,5.73,1.12s3.96-.37,5.73-1.12c1.77-.75,3.32-1.82,4.66-3.22,1.34-1.4,2.38-3.11,3.12-5.13.75-2.02,1.12-4.3,1.12-6.85s-.37-4.83-1.12-6.85c-.75-2.02-1.79-3.73-3.12-5.13Zm84.88-129.63l1.25,3.69,2.02,5.98,1.83,5.42.03.09,3.38-3.81.98-1.1,4.79-5.39,2.11-2.38.99-1.11h0s2-4.22,2-4.22l1.18-2.48,2.83-5.95,1.05-2.21,1.63-3.42,1.41-2.96.2-.43-.6.33-10.34,5.66-1.49.82-6.33,3.46-6.3,3.45-3.45,1.89-.62.34,1.24,3.68.21.62Zm-45.19-10.07h32.45l-.81-2.39-.33-.99-.11-.32c-.18-.55-.4-1.08-.63-1.6-.34-.76-.72-1.49-1.14-2.19-.27-.44-.55-.87-.85-1.29-.03-.03-.05-.07-.07-.11-.16-.22-.33-.42-.5-.63-.14-.18-.28-.36-.42-.52-.05-.06-.11-.13-.17-.19-.65-.73-1.35-1.41-2.09-2.02-.28-.23-.57-.46-.86-.67-.39-.28-.78-.55-1.19-.81-.53-.33-1.07-.63-1.62-.91-.27-.14-.55-.26-.83-.38-.1-.05-.2-.1-.31-.14-.23-.1-.48-.18-.72-.27-.13-.05-.26-.1-.39-.14-.58-.2-1.17-.38-1.77-.52-.36-.09-.73-.15-1.09-.22-.53-.09-1.06-.17-1.61-.22-.09,0-.18-.02-.26-.03v-.06h-4.43c-.44,0-.87.02-1.3.05-.05,0-.11,0-.16,0-.53.04-1.05.1-1.57.19-.3.05-.6.12-.9.18-.16.03-.33.06-.49.1-1.08.26-2.12.62-3.13,1.05-.07.03-.13.06-.2.09-1.12.5-2.19,1.1-3.19,1.81-.1.07-.2.14-.3.22-.02.01-.03.02-.05.04-.06.05-.12.1-.18.14-.19.15-.39.29-.57.45-.32.26-.62.53-.92.81-.17.16-.35.33-.52.5-.24.25-.48.5-.71.76-.45.5-.86,1.03-1.26,1.59-.05.07-.09.13-.14.2-.51.73-.97,1.5-1.38,2.31-.39.78-.74,1.59-1.03,2.44l-.11.32h0s-1.06,3.15-1.06,3.15l-.08.23h9Zm-121.54,136.02h-13.51v15.29h13.51c3.04,0,5.3-.68,6.76-2.05,1.46-1.37,2.19-3.23,2.19-5.59s-.73-4.23-2.19-5.59c-1.46-1.37-3.71-2.05-6.76-2.05Zm86.15,74.61h-3.75v7.15h3.75c1.42,0,2.48-.32,3.16-.96.68-.64,1.02-1.51,1.02-2.62s-.34-1.98-1.02-2.62c-.68-.64-1.74-.96-3.16-.96Zm64.19-166.71l-.7,2.15h3.73l1.82-2.05,4.07-4.58,3.24-3.64,2.49-2.8.11-.13-.05-.15-2.81-8.32-1.89-5.61-.94-2.79-.85,2.62-.45,1.39-.96,2.97-1.76,5.41-1.31,4.04-.86,2.66-2.86,8.81Zm-34.42,176.56h5.91l-2.96-7.69-2.96,7.69Z"/>
    </g>
  </g>
</svg>