<svg width="28" height="24" viewBox="0 0 28 24" fill="none" xmlns="http://www.w3.org/2000/svg">
<mask id="path-1-outside-1_84_195" maskUnits="userSpaceOnUse" x="-1" y="0" width="29" height="24" fill="black">
<rect fill="white" x="-1" width="29" height="24"/>
<path fill-rule="evenodd" clip-rule="evenodd" d="M14.0289 16.1196L15.9528 18.5676C16.532 19.3145 16.3045 20.4141 15.477 20.8497C12.3533 22.5509 8.21599 22.1775 4.24414 14.8748C0.272299 7.57211 2.17547 3.87927 5.29916 2.17808C6.12663 1.74241 7.16097 2.13659 7.47127 3.02868L8.5056 5.93315C8.85728 6.99121 8.29873 8.13226 7.24371 8.48495L6.06457 8.87913C5.79565 8.96211 5.65084 9.25256 5.7129 9.52226C6.41625 12.157 7.69882 14.5429 9.51925 16.576C9.70543 16.7627 10.0364 16.7835 10.2433 16.6175L11.2156 15.8084C12.0637 15.103 13.3463 15.2482 14.0289 16.1196ZM26 14H19V18L12 12L19 6V10H26V14Z"/>
</mask>
<path fill-rule="evenodd" clip-rule="evenodd" d="M14.0289 16.1196L15.9528 18.5676C16.532 19.3145 16.3045 20.4141 15.477 20.8497C12.3533 22.5509 8.21599 22.1775 4.24414 14.8748C0.272299 7.57211 2.17547 3.87927 5.29916 2.17808C6.12663 1.74241 7.16097 2.13659 7.47127 3.02868L8.5056 5.93315C8.85728 6.99121 8.29873 8.13226 7.24371 8.48495L6.06457 8.87913C5.79565 8.96211 5.65084 9.25256 5.7129 9.52226C6.41625 12.157 7.69882 14.5429 9.51925 16.576C9.70543 16.7627 10.0364 16.7835 10.2433 16.6175L11.2156 15.8084C12.0637 15.103 13.3463 15.2482 14.0289 16.1196ZM26 14H19V18L12 12L19 6V10H26V14Z" fill="#EE1F1F"/>
<path d="M15.9528 18.5676L17.5333 17.3419L17.5253 17.3318L15.9528 18.5676ZM14.0289 16.1196L12.4546 17.353L12.4564 17.3554L14.0289 16.1196ZM15.477 20.8497L14.5453 19.08L14.5328 19.0866L14.5205 19.0933L15.477 20.8497ZM4.24414 14.8748L6.00109 13.9192L4.24414 14.8748ZM5.29916 2.17808L4.3674 0.408386L4.35495 0.414939L4.3426 0.421665L5.29916 2.17808ZM7.47127 3.02868L5.58228 3.68573L5.5847 3.69269L5.58717 3.69963L7.47127 3.02868ZM8.5056 5.93315L10.4035 5.30233L10.3968 5.28219L10.3897 5.2622L8.5056 5.93315ZM7.24371 8.48495L6.60962 6.58813H6.60962L7.24371 8.48495ZM6.06457 8.87913L6.65429 10.7902L6.67656 10.7833L6.69867 10.7759L6.06457 8.87913ZM5.7129 9.52226L3.76383 9.97075L3.77161 10.0046L3.78056 10.0381L5.7129 9.52226ZM9.51925 16.576L8.02924 17.9101L8.06508 17.9501L8.103 17.9882L9.51925 16.576ZM10.2433 16.6175L11.4949 18.1775L11.5088 18.1663L11.5226 18.1548L10.2433 16.6175ZM11.2156 15.8084L9.93671 14.2707L9.93624 14.2711L11.2156 15.8084ZM19 14V12H17V14H19ZM26 14V16H28V14H26ZM19 18L17.6984 19.5185L21 22.3484V18H19ZM12 12L10.6984 10.4815L8.92682 12L10.6984 13.5185L12 12ZM19 6H21V1.65156L17.6984 4.48149L19 6ZM19 10H17V12H19V10ZM26 10H28V8H26V10ZM17.5253 17.3318L15.6015 14.8838L12.4564 17.3554L14.3803 19.8034L17.5253 17.3318ZM16.4088 22.6194C18.3669 21.5885 18.8538 19.0448 17.5332 17.342L14.3724 19.7933C14.2102 19.5842 14.2421 19.2396 14.5453 19.08L16.4088 22.6194ZM2.4872 15.8304C4.58341 19.6845 6.89912 22.0481 9.41514 23.0872C12.0175 24.1621 14.471 23.675 16.4336 22.6061L14.5205 19.0933C13.3594 19.7257 12.1823 19.9024 10.9421 19.3902C9.6156 18.8423 7.87672 17.3678 6.00109 13.9192L2.4872 15.8304ZM4.3426 0.421665C2.37363 1.49399 0.642958 3.29863 0.142631 6.07063C-0.340727 8.74862 0.391786 11.9777 2.4872 15.8304L6.00109 13.9192C4.12466 10.4692 3.82283 8.20052 4.07903 6.78112C4.31825 5.45574 5.10101 4.56336 6.25573 3.93449L4.3426 0.421665ZM9.36026 2.37162C8.64074 0.303071 6.25791 -0.586988 4.3674 0.408386L6.23093 3.94777C5.99536 4.0718 5.68119 3.9701 5.58228 3.68573L9.36026 2.37162ZM10.3897 5.2622L9.35536 2.35772L5.58717 3.69963L6.62151 6.60411L10.3897 5.2622ZM7.87781 10.3818C9.99925 9.67258 11.0964 7.38706 10.4035 5.30233L6.60769 6.56397C6.6096 6.56972 6.61023 6.57345 6.61048 6.57548C6.61074 6.57761 6.61074 6.57925 6.61064 6.5806C6.61042 6.58356 6.60957 6.58665 6.60829 6.58925C6.60704 6.59179 6.60654 6.59154 6.60857 6.58975C6.60963 6.58881 6.61083 6.58795 6.61185 6.58736C6.61296 6.58672 6.61254 6.58715 6.60962 6.58813L7.87781 10.3818ZM6.69867 10.7759L7.87781 10.3818L6.60962 6.58813L5.43048 6.98231L6.69867 10.7759ZM7.66196 9.07377C7.80671 9.70282 7.50238 10.5285 6.65429 10.7902L5.47485 6.96804C4.08891 7.39572 3.49496 8.8023 3.76383 9.97075L7.66196 9.07377ZM11.0093 15.2419C9.40058 13.4452 8.26829 11.3404 7.64523 9.00643L3.78056 10.0381C4.5642 12.9736 5.99707 15.6405 8.02924 17.9101L11.0093 15.2419ZM8.99171 15.0575C9.32553 14.7897 9.69731 14.7151 9.99129 14.7325C10.2844 14.7498 10.6388 14.8663 10.9355 15.1638L8.103 17.9882C9.00122 18.889 10.4814 18.9905 11.4949 18.1775L8.99171 15.0575ZM9.93624 14.2711L8.96396 15.0802L11.5226 18.1548L12.4949 17.3457L9.93624 14.2711ZM15.6033 14.8861C14.2365 13.1416 11.6656 12.8328 9.93671 14.2707L12.4944 17.3461C12.4919 17.3482 12.4879 17.351 12.4829 17.3536C12.478 17.3562 12.4735 17.3579 12.4698 17.359C12.463 17.3609 12.4609 17.3602 12.4628 17.3604C12.4648 17.3606 12.4652 17.3612 12.4632 17.3601C12.462 17.3594 12.4602 17.3583 12.4582 17.3566C12.4562 17.3549 12.4549 17.3534 12.4546 17.353L15.6033 14.8861ZM19 16H26V12H19V16ZM21 18V14H17V18H21ZM10.6984 13.5185L17.6984 19.5185L20.3016 16.4815L13.3016 10.4815L10.6984 13.5185ZM17.6984 4.48149L10.6984 10.4815L13.3016 13.5185L20.3016 7.51851L17.6984 4.48149ZM21 10V6H17V10H21ZM26 8H19V12H26V8ZM28 14V10H24V14H28Z" fill="white" mask="url(#path-1-outside-1_84_195)"/>
</svg>
