<svg width="25" height="24" viewBox="0 0 25 24" fill="none" xmlns="http://www.w3.org/2000/svg">
<path fill-rule="evenodd" clip-rule="evenodd" d="M23.9717 11.0586C23.9079 10.5843 23.8667 10.1059 23.7767 9.63668C23.6925 9.1975 23.5754 8.76225 23.4386 8.33609C23.3143 7.9489 23.1559 7.57101 22.99 7.19896C22.8734 6.9376 22.7225 6.69087 22.5802 6.44134C22.4513 6.21512 22.3256 5.98554 22.1769 5.77222C21.8414 5.29083 21.4878 4.82357 21.0782 4.39871C20.6328 3.9367 20.1661 3.50074 19.64 3.13038C19.3582 2.9319 19.0816 2.72413 18.7874 2.54521C18.4768 2.35632 18.1557 2.18054 17.8254 2.02875C17.4504 1.85646 17.0646 1.70428 16.675 1.5674C16.35 1.45322 16.0166 1.35527 15.6798 1.28351C15.2503 1.192 14.8147 1.12562 14.3796 1.06366C13.7183 0.969521 13.0504 0.999636 12.3885 1.029C11.8803 1.05151 11.3754 1.16839 10.8715 1.25737C10.3356 1.35196 9.82502 1.53357 9.31541 1.72116C8.67016 1.95868 8.06331 2.26913 7.4837 2.63252C7.16303 2.83358 6.84518 3.04291 6.54801 3.27612C6.23842 3.51907 5.94226 3.78237 5.66389 4.0602C5.33954 4.38396 5.02356 4.71925 4.7351 5.07447C4.30744 5.60109 3.94705 6.17375 3.62755 6.77355C3.38111 7.2362 3.1758 7.71528 3.00044 8.2057C2.81509 8.72399 2.67056 9.25732 2.58495 9.80159C2.52 10.2145 2.47453 10.6317 2.44669 11.0487C2.42019 11.4456 2.40412 11.846 2.4257 12.2426C2.46108 12.8938 2.5335 13.5412 2.69621 14.1778C2.83378 14.7162 2.99598 15.2439 3.20532 15.759C3.40518 16.2509 3.63891 16.7242 3.91526 17.1779C3.94314 17.2236 3.94493 17.3024 3.92719 17.3555C3.78613 17.7777 3.63608 18.197 3.49132 18.618C3.33068 19.0854 3.1712 19.5532 3.01392 20.0217C2.8147 20.6152 2.62063 21.2104 2.41966 21.8033C2.28398 22.2036 2.14018 22.6012 2 23H2.13782C2.36373 22.916 2.58826 22.8281 2.81601 22.7494C2.98792 22.69 3.16424 22.6433 3.33803 22.5892C3.78348 22.4505 4.22949 22.3136 4.67361 22.1709C5.05648 22.0479 5.43591 21.9144 5.81904 21.7922C6.19461 21.6724 6.57337 21.5625 6.94985 21.4455C7.26868 21.3464 7.58556 21.241 7.90522 21.1447C7.95315 21.1302 8.02025 21.1337 8.06379 21.1566C8.59917 21.4375 9.1475 21.6909 9.72523 21.8707C10.188 22.0147 10.6575 22.1408 11.1298 22.2498C11.4205 22.3169 11.7224 22.3349 12.0189 22.3783C12.538 22.4544 13.0613 22.4661 13.5826 22.4405C14.0367 22.4181 14.4915 22.3678 14.9403 22.295C15.3922 22.2217 15.8387 22.1122 16.2842 22.0045C16.4752 21.9584 16.659 21.8805 16.8436 21.8104C17.1166 21.7067 17.3956 21.614 17.657 21.4862C18.0554 21.2914 18.4448 21.0774 18.8304 20.8582C19.0673 20.7234 19.3005 20.5773 19.5167 20.4121C19.8567 20.1521 20.1842 19.8756 20.511 19.5991C20.9391 19.2367 21.3115 18.8205 21.65 18.376C21.8808 18.0729 22.0988 17.7599 22.3126 17.4446C22.4566 17.2323 22.6019 17.0174 22.7136 16.7878C22.9167 16.3706 23.0965 15.9422 23.2835 15.5173C23.3398 15.3894 23.3972 15.2607 23.4375 15.1274C23.5976 14.5969 23.7634 14.0671 23.8328 13.5147C23.8812 13.1296 23.9252 12.744 23.9726 12.3588C23.975 12.3389 23.9906 12.3207 24 12.3017V11.1384C23.9903 11.1118 23.9753 11.0859 23.9717 11.0586Z" fill="#17DA39"/>
<path d="M23.9717 11.0586C23.9079 10.5843 23.8667 10.1059 23.7767 9.63668C23.6925 9.1975 23.5754 8.76225 23.4386 8.33609C23.3143 7.9489 23.1559 7.57101 22.99 7.19896C22.8734 6.9376 22.7225 6.69087 22.5802 6.44134C22.4513 6.21512 22.3256 5.98554 22.1769 5.77222C21.8414 5.29083 21.4878 4.82357 21.0782 4.39871C20.6328 3.9367 20.1661 3.50074 19.64 3.13038C19.3582 2.9319 19.0816 2.72413 18.7874 2.54521C18.4768 2.35632 18.1557 2.18054 17.8254 2.02875C17.4504 1.85646 17.0646 1.70428 16.675 1.5674C16.35 1.45322 16.0166 1.35527 15.6798 1.28351C15.2503 1.192 14.8147 1.12562 14.3796 1.06366C13.7183 0.969521 13.0504 0.999636 12.3885 1.029C11.8803 1.05151 11.3754 1.16839 10.8715 1.25737C10.3356 1.35196 9.82502 1.53357 9.31541 1.72116C8.67016 1.95868 8.06331 2.26913 7.4837 2.63252C7.16303 2.83358 6.84518 3.04291 6.54801 3.27612C6.23842 3.51907 5.94226 3.78237 5.66389 4.0602C5.33954 4.38396 5.02356 4.71925 4.7351 5.07447C4.30744 5.60109 3.94705 6.17375 3.62755 6.77355C3.38111 7.2362 3.1758 7.71528 3.00044 8.2057C2.81509 8.72399 2.67056 9.25732 2.58495 9.80159C2.52 10.2145 2.47453 10.6317 2.44669 11.0487C2.42019 11.4456 2.40412 11.846 2.4257 12.2426C2.46108 12.8938 2.5335 13.5412 2.69621 14.1778C2.83378 14.7162 2.99598 15.2439 3.20532 15.759C3.40518 16.2509 3.63891 16.7242 3.91526 17.1779C3.94314 17.2236 3.94493 17.3024 3.92719 17.3555C3.78613 17.7777 3.63608 18.197 3.49132 18.618C3.33068 19.0854 3.1712 19.5532 3.01392 20.0217C2.8147 20.6152 2.62063 21.2104 2.41966 21.8033C2.28398 22.2036 2.14018 22.6012 2 23H2.13782C2.36373 22.916 2.58826 22.8281 2.81601 22.7494C2.98792 22.69 3.16424 22.6433 3.33803 22.5892C3.78348 22.4505 4.22949 22.3136 4.67361 22.1709C5.05648 22.0479 5.43591 21.9144 5.81904 21.7922C6.19461 21.6724 6.57337 21.5625 6.94985 21.4455C7.26868 21.3464 7.58556 21.241 7.90522 21.1447C7.95315 21.1302 8.02025 21.1337 8.06379 21.1566C8.59917 21.4375 9.1475 21.6909 9.72523 21.8707C10.188 22.0147 10.6575 22.1408 11.1298 22.2498C11.4205 22.3169 11.7224 22.3349 12.0189 22.3783C12.538 22.4544 13.0613 22.4661 13.5826 22.4405C14.0367 22.4181 14.4915 22.3678 14.9403 22.295C15.3922 22.2217 15.8387 22.1122 16.2842 22.0045C16.4752 21.9584 16.659 21.8805 16.8436 21.8104C17.1166 21.7067 17.3956 21.614 17.657 21.4862C18.0554 21.2914 18.4448 21.0774 18.8304 20.8582C19.0673 20.7235 19.3005 20.5773 19.5167 20.4121C19.8567 20.1521 20.1842 19.8756 20.511 19.5991C20.9392 19.2367 21.3115 18.8205 21.65 18.376C21.8808 18.0729 22.0988 17.7599 22.3126 17.4446C22.4566 17.2323 22.6019 17.0174 22.7136 16.7878C22.9167 16.3706 23.0965 15.9422 23.2835 15.5173C23.3398 15.3894 23.3972 15.2607 23.4375 15.1274C23.5976 14.5969 23.7634 14.0671 23.8328 13.5147C23.8812 13.1296 23.9252 12.744 23.9726 12.3588C23.975 12.3389 23.9906 12.3207 24 12.3017V11.1384C23.9903 11.1118 23.9753 11.0859 23.9717 11.0586" stroke="white" stroke-width="2"/>
<path fill-rule="evenodd" clip-rule="evenodd" d="M18.8183 14.7085C18.8069 15.0775 18.7101 15.4325 18.5761 15.7737C18.4605 16.068 18.2299 16.2751 17.9776 16.4591C17.6273 16.7145 17.2455 16.9092 16.8231 17.0061C16.3181 17.122 15.8208 17.1329 15.3094 16.9646C14.528 16.7076 13.7634 16.4136 13.0269 16.0534C12.6746 15.8812 12.3502 15.651 12.0198 15.4369C11.5197 15.1129 11.0756 14.7189 10.6662 14.2909C10.3497 13.9599 10.0578 13.6046 9.76816 13.2495C9.55054 12.9828 9.33599 12.7104 9.15201 12.4206C8.87084 11.9777 8.56511 11.5503 8.33095 11.0767C8.15221 10.7152 8.00221 10.3454 7.90667 9.95774C7.8412 9.69221 7.82899 9.4137 7.79297 9.14097C7.79941 8.63252 7.9075 8.15167 8.14125 7.70594C8.24893 7.50059 8.40033 7.31663 8.54187 7.13044C8.62422 7.02214 8.72378 6.92625 8.81985 6.82896C9.09583 6.54952 9.42027 6.41465 9.82142 6.4889C9.9514 6.51296 10.0871 6.51744 10.2197 6.5136C10.3917 6.50865 10.5259 6.57774 10.6004 6.71941C10.7 6.90878 10.7786 7.10991 10.8556 7.31004C11.0737 7.87703 11.2771 8.44977 11.5048 9.01286C11.631 9.32506 11.5509 9.58592 11.3572 9.82477C11.1759 10.0484 10.9793 10.2605 10.7801 10.469C10.5608 10.6987 10.5366 10.8101 10.6993 11.0776C10.8877 11.3872 11.0657 11.7054 11.2809 11.9959C11.6337 12.4719 12.0183 12.9245 12.4966 13.285C12.7987 13.5129 13.1036 13.7385 13.42 13.9458C13.609 14.0696 13.823 14.1554 14.0252 14.2594C14.1266 14.3116 14.2248 14.3705 14.3282 14.418C14.3891 14.446 14.4568 14.4614 14.5229 14.476C14.732 14.5223 14.8456 14.3798 14.9635 14.2498C15.1062 14.0924 15.2476 13.9338 15.3874 13.7739C15.5042 13.6403 15.617 13.5031 15.7336 13.3692C15.7933 13.3006 15.8513 13.2287 15.9206 13.1707C16.034 13.076 16.1672 13.0929 16.2877 13.1502C16.6406 13.318 16.9907 13.4915 17.3392 13.6683C17.7076 13.8552 18.074 14.0464 18.4387 14.2404C18.5354 14.2918 18.6233 14.3596 18.7144 14.421C18.8184 14.4912 18.8213 14.6096 18.8183 14.7085Z" fill="white"/>
</svg>
